<?xml version="1.0" standalone="no"?>
<!DOCTYPE svg PUBLIC "-//W3C//DTD SVG 20010904//EN"
 "http://www.w3.org/TR/2001/REC-SVG-20010904/DTD/svg10.dtd">
<svg version="1.0" xmlns="http://www.w3.org/2000/svg"
 width="225.000000pt" height="225.000000pt" viewBox="0 0 225.000000 225.000000"
 preserveAspectRatio="xMidYMid meet">

<g transform="translate(0.000000,225.000000) scale(0.100000,-0.100000)"
fill="#000000" stroke="none">
<path d="M1066 1998 c-30 -106 -30 -108 -7 -108 12 0 21 6 21 15 0 9 9 15 25
15 14 0 28 -7 31 -15 4 -8 15 -15 26 -15 15 0 18 5 14 17 -4 9 -14 45 -22 80
-15 59 -18 63 -45 63 -26 0 -30 -5 -43 -52z m54 -24 c0 -15 -6 -24 -16 -24
-11 0 -14 5 -10 16 3 9 6 22 6 30 0 9 5 12 10 9 6 -3 10 -17 10 -31z"/>
<path d="M1229 1966 c-15 -70 -15 -75 1 -79 14 -4 20 7 30 52 l13 56 11 -59
c10 -52 14 -61 38 -67 26 -7 27 -6 42 61 20 86 20 92 -1 88 -11 -2 -21 -20
-28 -53 l-12 -50 -7 40 c-12 65 -23 85 -49 85 -20 0 -24 -8 -38 -74z"/>
<path d="M893 2020 c-17 -7 -23 -18 -23 -38 0 -36 15 -49 60 -54 44 -4 37 -24
-7 -21 -26 2 -33 -1 -33 -16 0 -26 24 -33 68 -18 30 10 38 18 40 40 5 39 -15
59 -52 55 -22 -2 -31 1 -31 12 0 11 9 14 33 12 33 -3 40 6 20 26 -14 14 -43
15 -75 2z"/>
<path d="M743 1967 c-24 -12 -43 -24 -43 -28 0 -3 14 -36 30 -73 l30 -66 50
25 c34 17 48 30 44 40 -5 13 -10 13 -35 -1 -28 -14 -49 -12 -49 5 0 4 13 14
30 22 21 10 27 18 21 27 -7 12 -14 11 -39 -2 -25 -13 -31 -13 -35 -2 -4 9 5
19 24 26 27 12 38 33 22 43 -5 3 -27 -5 -50 -16z"/>
<path d="M1438 1978 c-3 -7 2 -18 11 -25 14 -10 13 -17 -7 -64 -17 -41 -19
-55 -9 -61 20 -13 24 -10 45 45 15 41 24 52 40 50 36 -4 35 26 -2 41 -59 25
-74 27 -78 14z"/>
<path d="M1562 1848 c-36 -55 -39 -64 -25 -72 12 -6 20 -4 29 9 11 15 16 16
29 5 12 -10 13 -16 4 -26 -9 -11 -8 -18 2 -30 12 -14 14 -14 26 2 7 10 13 26
13 36 0 10 5 18 11 18 16 0 38 31 39 52 0 15 -63 68 -81 68 -4 0 -25 -28 -47
-62z m83 2 c4 -6 1 -17 -5 -26 -15 -18 -42 0 -33 22 6 16 29 19 38 4z"/>
<path d="M571 1863 l-32 -28 41 -57 c38 -54 57 -67 73 -52 3 3 1 15 -6 25 -10
16 -8 21 11 34 26 19 28 51 6 83 -20 30 -53 28 -93 -5z m66 -29 c3 -8 1 -20
-6 -27 -14 -14 -47 15 -37 32 10 16 36 13 43 -5z"/>
<path d="M995 1806 c-100 -20 -175 -51 -260 -107 -193 -129 -305 -342 -305
-578 0 -120 19 -202 71 -310 33 -68 58 -101 128 -171 141 -143 265 -198 462
-207 143 -7 235 11 347 67 143 73 249 178 318 320 49 99 67 180 67 300 0 127
-17 203 -75 320 -54 110 -177 237 -283 292 -148 76 -320 103 -470 74z m-121
-266 c83 -56 105 -110 71 -170 -19 -34 -18 -40 6 -40 15 0 20 -5 17 -22 -2
-15 -9 -22 -21 -22 -25 2 -23 -42 3 -49 28 -7 27 -47 -1 -47 -20 0 -21 -4 -15
-57 3 -32 10 -141 16 -243 6 -102 13 -209 16 -237 l5 -53 95 0 95 0 -3 33 c-3
30 -5 32 -43 33 -39 1 -40 2 -43 37 l-3 37 51 0 52 0 -39 48 c-106 129 -115
203 -36 285 21 21 58 53 83 70 25 16 76 55 114 85 l68 55 -28 12 c-36 15 -50
32 -58 70 -8 36 27 98 59 104 20 3 20 3 1 -18 -24 -27 -25 -75 -1 -101 27 -30
71 -26 107 10 l30 31 -7 -28 c-8 -34 -32 -62 -64 -74 -20 -8 -21 -12 -10 -26
8 -8 59 -46 114 -83 55 -37 112 -81 127 -96 29 -31 58 -92 58 -121 0 -37 -22
-94 -55 -143 -19 -29 -35 -54 -35 -56 0 -2 20 -4 45 -4 25 0 45 -4 45 -9 0
-21 -132 -149 -199 -193 -141 -92 -337 -129 -501 -94 -84 18 -218 78 -269 121
l-33 29 6 105 c10 164 26 392 30 434 4 34 2 37 -20 37 -17 0 -24 6 -24 20 0
15 7 20 25 20 20 0 25 5 25 25 0 20 -5 25 -25 25 -20 0 -25 5 -25 25 0 18 5
25 20 25 19 0 19 1 5 24 -19 29 -22 84 -6 114 8 16 111 97 128 101 1 1 22 -13
47 -29z m536 -86 c0 -9 10 -14 28 -14 25 -1 26 -1 8 -15 -12 -9 -17 -22 -13
-35 6 -22 -3 -26 -21 -8 -9 9 -15 9 -24 0 -17 -17 -29 -15 -21 3 3 9 -3 25
-12 35 -17 19 -17 20 4 20 14 0 25 7 28 20 6 22 23 18 23 -6z"/>
<path d="M760 1260 c0 -21 5 -30 16 -30 11 0 14 5 10 16 -3 9 -6 22 -6 30 0 8
-4 14 -10 14 -5 0 -10 -13 -10 -30z"/>
<path d="M820 1260 c0 -16 5 -30 10 -30 6 0 10 14 10 30 0 17 -4 30 -10 30 -5
0 -10 -13 -10 -30z"/>
<path d="M870 1260 c0 -20 5 -30 15 -30 10 0 15 10 15 30 0 20 -5 30 -15 30
-10 0 -15 -10 -15 -30z"/>
<path d="M1707 1749 l-57 -51 36 -44 c30 -36 39 -42 51 -33 12 10 10 16 -12
39 -22 23 -24 29 -11 39 11 9 18 7 35 -15 16 -21 24 -25 33 -16 9 9 6 18 -11
36 -34 36 -16 54 20 20 24 -23 29 -25 35 -11 4 11 -6 29 -28 52 l-33 36 -58
-52z"/>
<path d="M411 1717 c-8 -11 0 -21 34 -47 25 -18 43 -35 42 -36 -2 -2 -27 4
-55 13 -51 17 -53 16 -73 -4 l-21 -20 56 -44 c31 -24 62 -44 68 -44 27 0 16
25 -24 54 -42 31 -40 39 4 22 60 -22 75 -21 91 3 15 22 14 24 -36 62 -72 54
-73 55 -86 41z"/>
<path d="M1818 1622 c-54 -35 -69 -54 -50 -66 4 -2 30 9 56 26 l49 30 -37 -51
c-33 -44 -36 -53 -25 -73 6 -13 13 -24 14 -26 4 -4 120 72 123 81 2 4 2 13 0
19 -3 8 -21 2 -53 -16 -49 -29 -50 -25 -7 32 21 28 23 36 14 57 -7 14 -15 25
-19 24 -5 0 -34 -17 -65 -37z"/>
<path d="M281 1502 c-17 -31 -15 -34 45 -85 58 -48 80 -52 70 -12 -8 32 2 55
25 55 12 0 19 7 19 19 0 14 -10 20 -42 24 -24 4 -57 9 -75 13 -25 5 -33 2 -42
-14z m79 -32 c10 -6 11 -13 5 -19 -7 -7 -19 -3 -35 9 -23 18 -23 20 -5 20 11
0 27 -5 35 -10z"/>
<path d="M1938 1376 c-50 -15 -68 -26 -68 -38 0 -23 4 -22 84 2 40 13 66 26
66 35 0 23 -11 23 -82 1z"/>
<path d="M219 1320 c-13 -44 -5 -64 32 -73 23 -6 59 24 59 48 0 8 7 15 15 15
8 0 15 -9 15 -20 0 -11 -4 -20 -9 -20 -5 0 -11 -9 -14 -20 -4 -14 0 -20 13
-20 24 0 37 18 45 62 6 30 4 38 -13 47 -38 20 -60 13 -81 -26 -16 -32 -21 -35
-27 -20 -3 10 -2 23 5 30 17 17 13 37 -9 37 -14 0 -22 -11 -31 -40z"/>
<path d="M1973 1283 c-7 -2 -13 -20 -13 -38 0 -37 -15 -54 -33 -36 -9 9 -8 16
1 31 17 28 15 40 -7 40 -43 0 -39 -105 4 -116 38 -9 65 12 65 51 0 26 4 35 16
35 13 0 15 -7 10 -36 -6 -31 -5 -35 11 -32 22 4 31 72 12 94 -11 14 -42 17
-66 7z"/>
<path d="M285 1180 c-16 -4 -42 -11 -57 -14 -23 -5 -28 -12 -28 -36 0 -27 4
-31 66 -50 81 -25 84 -25 84 0 0 11 -4 20 -10 20 -16 0 -12 47 5 54 8 3 15 12
15 21 0 16 -26 18 -75 5z m15 -56 c0 -11 -5 -14 -16 -10 -9 3 -22 6 -30 6 -8
0 -14 5 -14 10 0 6 14 10 30 10 21 0 30 -5 30 -16z"/>
<path d="M1900 1076 c0 -25 0 -49 -1 -53 0 -5 7 -9 15 -11 12 -3 16 5 16 32
l0 35 65 -6 c62 -6 65 -5 65 16 0 19 -6 21 -49 21 -27 0 -63 3 -80 6 l-31 7 0
-47z"/>
<path d="M200 1017 c0 -21 14 -34 45 -41 l30 -8 -28 -16 c-17 -10 -27 -25 -27
-40 0 -23 1 -23 48 10 26 18 58 35 72 38 47 10 29 35 -30 41 -30 4 -67 12 -82
18 -21 8 -28 8 -28 -2z"/>
<path d="M1885 982 c-3 -8 -1 -20 5 -26 17 -17 12 -53 -10 -59 -11 -3 -20 -13
-20 -22 0 -15 10 -17 76 -13 76 3 94 13 94 48 0 8 -31 31 -69 52 -59 31 -70
34 -76 20z m85 -67 l25 -14 -32 -1 c-23 0 -33 5 -33 15 0 18 8 18 40 0z"/>
<path d="M310 869 c-63 -46 -65 -50 -50 -79 11 -20 17 -21 83 -15 40 4 75 9
79 11 13 8 -4 34 -22 34 -20 0 -35 41 -18 51 12 7 4 39 -9 39 -4 -1 -33 -19
-63 -41z m40 -43 c0 -8 -14 -16 -32 -18 l-32 -5 23 18 c28 23 41 24 41 5z"/>
<path d="M1836 814 c-8 -20 -11 -16 42 -43 23 -12 42 -23 42 -25 0 -2 -24 2
-52 10 -29 7 -54 14 -54 14 -1 0 -5 -8 -8 -17 -5 -11 6 -30 31 -56 l38 -40
-46 26 c-26 14 -49 23 -53 20 -16 -17 -1 -35 60 -66 l65 -35 11 24 c10 22 7
29 -28 66 l-39 41 29 -7 c79 -19 84 -19 96 4 14 26 20 20 -61 64 -58 32 -67
34 -73 20z"/>
<path d="M434 726 c-11 -8 -45 -17 -77 -21 -49 -6 -55 -9 -47 -24 7 -13 18
-16 42 -13 l32 5 -17 -26 c-15 -24 -14 -57 2 -57 4 0 18 18 30 40 12 22 34 48
47 56 24 16 31 38 16 48 -5 3 -17 -1 -28 -8z"/>
<path d="M1578 498 l-45 -33 46 -61 c38 -50 50 -60 64 -52 15 8 15 11 1 33
-14 22 -14 24 7 30 15 5 26 2 34 -8 9 -12 14 -13 28 -3 15 12 15 14 -4 35 -11
12 -25 18 -31 15 -7 -5 -9 -2 -5 9 6 15 -26 67 -42 67 -4 0 -28 -15 -53 -32z
m57 -28 c4 -6 1 -18 -6 -26 -11 -13 -14 -13 -27 0 -8 8 -11 19 -8 25 9 14 33
14 41 1z"/>
<path d="M586 472 c-61 -41 -66 -47 -50 -59 9 -7 21 -10 26 -7 17 11 59 -18
53 -36 -3 -10 1 -23 9 -30 13 -10 19 -3 41 46 37 84 39 96 12 116 -23 16 -26
15 -91 -30z m62 -27 c-6 -14 -17 -25 -25 -25 -17 0 -16 10 4 32 23 26 35 22
21 -7z"/>
<path d="M719 385 c-16 -35 -29 -68 -29 -72 0 -5 23 -18 50 -30 41 -18 49 -19
54 -6 8 21 9 19 -24 33 -16 7 -30 14 -30 15 0 2 9 24 20 50 24 56 24 61 4 69
-11 4 -23 -10 -45 -59z"/>
<path d="M1447 424 c-22 -12 -27 -21 -23 -38 3 -12 8 -47 12 -78 6 -48 9 -55
25 -51 11 3 19 14 19 24 0 22 39 41 56 28 12 -10 44 -2 44 10 -1 3 -24 32 -53
63 -52 57 -52 57 -80 42z m45 -86 c-14 -14 -17 -11 -26 27 l-7 30 22 -22 c18
-18 21 -25 11 -35z"/>
<path d="M1347 382 c-14 -3 -17 -10 -12 -32 5 -23 2 -28 -17 -34 -34 -9 -35
-8 -41 23 -5 24 -10 28 -27 24 -13 -4 -19 -11 -16 -22 3 -9 10 -42 17 -73 10
-47 16 -58 32 -58 17 0 19 5 14 34 -5 31 -3 34 23 38 24 4 29 0 34 -24 4 -20
12 -28 26 -28 19 0 20 4 14 36 -17 91 -29 120 -47 116z"/>
<path d="M925 303 c-28 -51 -33 -68 -23 -74 19 -12 26 -11 35 6 10 17 53 9 53
-10 0 -12 21 -25 40 -25 16 0 -1 144 -18 158 -31 24 -50 13 -87 -55z m65 -3
c0 -20 -5 -30 -15 -30 -18 0 -19 14 -5 41 15 27 20 24 20 -11z"/>
<path d="M1080 335 c0 -10 11 -15 35 -15 19 0 35 -4 35 -8 0 -4 -16 -23 -35
-42 -19 -19 -35 -42 -35 -52 0 -15 9 -18 65 -18 51 0 65 3 65 15 0 10 -11 15
-35 15 -19 0 -35 4 -35 8 0 4 16 23 35 42 19 19 35 42 35 52 0 15 -9 18 -65
18 -51 0 -65 -3 -65 -15z"/>
<path d="M650 107 c4 -41 5 -41 8 -8 2 18 0 37 -5 42 -5 5 -6 -11 -3 -34z"/>
<path d="M1232 130 c0 -14 2 -19 5 -12 2 6 2 18 0 25 -3 6 -5 1 -5 -13z"/>
<path d="M1780 118 c6 -7 11 -23 11 -37 l2 -26 4 25 c3 14 10 32 16 40 10 13
10 13 -4 3 -10 -8 -19 -9 -27 -3 -9 7 -9 7 -2 -2z"/>
<path d="M426 109 c3 -5 16 -9 29 -9 13 0 26 -7 28 -15 4 -11 5 -11 3 2 -1 11
-13 20 -33 24 -18 3 -30 2 -27 -2z"/>
<path d="M1258 113 c6 -2 18 -2 25 0 6 3 1 5 -13 5 -14 0 -19 -2 -12 -5z"/>
<path d="M1448 108 c6 -6 18 -8 28 -6 14 3 12 5 -9 10 -19 3 -25 2 -19 -4z"/>
<path d="M1623 103 c9 -2 25 -2 35 0 9 3 1 5 -18 5 -19 0 -27 -2 -17 -5z"/>
<path d="M1502 80 c0 -14 2 -19 5 -12 2 6 2 18 0 25 -3 6 -5 1 -5 -13z"/>
<path d="M860 83 c0 -5 16 -8 35 -8 19 0 35 3 35 8 0 4 -16 7 -35 7 -19 0 -35
-3 -35 -7z"/>
</g>
</svg>
