<?xml version="1.0" encoding="UTF-8"?>
<svg version="1.1" xmlns="http://www.w3.org/2000/svg" width="279" height="181">
<path d="M0 0 C92.07 0 184.14 0 279 0 C279 59.73 279 119.46 279 181 C186.93 181 94.86 181 0 181 C0 121.27 0 61.54 0 0 Z " fill="#FDFCFC" transform="translate(0,0)"/>
<path d="M0 0 C7.18404173 5.85732282 13.00966779 12.68525338 15.98828125 21.62109375 C14.66376953 22.54728516 14.66376953 22.54728516 13.3125 23.4921875 C0.2155102 32.70505251 -11.39075677 42.7083935 -22.58227539 54.15991211 C-23.71804695 55.32090148 -24.86326907 56.47264407 -26.01171875 57.62109375 C-26.89472656 56.64269531 -27.77773437 55.66429688 -28.6875 54.65625 C-35.68670537 46.97713864 -42.68767918 39.88835252 -51.01171875 33.62109375 C-51.68154785 33.11352539 -52.35137695 32.60595703 -53.04150391 32.08300781 C-57.67936132 28.5700077 -62.33828033 25.086592 -67.01171875 21.62109375 C-64.71273769 11.77182937 -57.9960635 4.48075292 -50.01171875 -1.37890625 C-34.0254783 -10.962597 -15.44329423 -11.32131807 0 0 Z " fill="#F08519" transform="translate(163.01171875,49.37890625)"/>
<path d="M0 0 C0.87253418 -0.00467285 1.74506836 -0.0093457 2.64404297 -0.01416016 C6.7859634 -0.0037754 10.64938861 0.07592364 14.6875 1.125 C11.99233574 9.67517626 3.10356944 16.80725022 -4.4609375 21.22265625 C-5.07195312 21.52042969 -5.68296875 21.81820312 -6.3125 22.125 C-7.0034375 22.4859375 -7.694375 22.846875 -8.40625 23.21875 C-12.71900698 24.5635882 -16.94366906 24.46956096 -21.4375 24.5625 C-41.48154729 25.23846755 -60.97008959 27.45034881 -80.36621094 32.62207031 C-82.6655447 33.21622831 -84.97632718 33.69938147 -87.3125 34.125 C-74.01781477 15.76872377 -41.77686005 4.82060685 -20.3125 1.125 C-13.55292858 0.10262723 -6.82462946 0.02570712 0 0 Z " fill="#E61E4D" transform="translate(231.3125,80.875)"/>
<path d="M0 0 C5.84159256 3.77745047 11.15894451 8.00242078 16 13 C14.33333333 12.58333333 12.66666667 12.16666667 11 11.75 C9.89269531 11.47671875 8.78539063 11.2034375 7.64453125 10.921875 C5.23911004 10.31342976 2.84021947 9.67847668 0.44921875 9.015625 C-13.7082573 5.19325348 -28.11153314 3.26181106 -42.7578125 2.6171875 C-43.75193649 2.5694368 -43.75193649 2.5694368 -44.7661438 2.52072144 C-48.02284553 2.36442469 -51.27372807 2.23938891 -54.53369141 2.17333984 C-65.98713132 1.67683453 -73.67529195 -3.04288566 -81.5625 -11.125 C-82.36816406 -11.93195313 -83.17382812 -12.73890625 -84.00390625 -13.5703125 C-85.99473542 -15.99359184 -87.02516725 -18.03861617 -88 -21 C-59.0423508 -29.22806363 -24.38134925 -14.54516324 0 0 Z " fill="#E61D4C" transform="translate(118,103)"/>
<path d="M0 0 C6.6245211 1.5763459 13.56527869 -1.39343353 19.92578125 -3.23828125 C30.09970403 -6.09847154 40.19291222 -8.07252818 50.67578125 -9.36328125 C51.71347656 -9.49476562 52.75117188 -9.62625 53.8203125 -9.76171875 C56.77687147 -10.06771227 59.70549906 -10.24504324 62.67578125 -10.36328125 C63.35592285 -10.3905127 64.03606445 -10.41774414 64.73681641 -10.44580078 C83.9491094 -11.102596 102.95262239 -8.59399503 121.67578125 -4.36328125 C121.67578125 -4.03328125 121.67578125 -3.70328125 121.67578125 -3.36328125 C119.78085937 -3.4715625 119.78085937 -3.4715625 117.84765625 -3.58203125 C95.37784436 -4.78352276 73.03668179 -5.15030647 50.67578125 -2.36328125 C49.43183594 -2.21890625 48.18789062 -2.07453125 46.90625 -1.92578125 C34.15730738 -0.29391659 21.31739785 2.23139302 9.3515625 7 C3.41810156 8.41190384 -2.21698455 6.1526601 -7.82421875 4.26171875 C-41.22964082 -6.44121276 -77.67301879 -5.72107857 -112.32421875 -3.36328125 C-109.14044187 -5.48579917 -107.41998672 -5.84248493 -103.6953125 -6.3984375 C-102.57705078 -6.56794922 -101.45878906 -6.73746094 -100.30664062 -6.91210938 C-99.13681641 -7.08162109 -97.96699219 -7.25113281 -96.76171875 -7.42578125 C-95.61896484 -7.59916016 -94.47621094 -7.77253906 -93.29882812 -7.95117188 C-62.55139246 -12.53955421 -29.22553552 -11.64691712 0 0 Z " fill="#896777" transform="translate(132.32421875,118.36328125)"/>
<path d="M0 0 C-1.38708463 4.52969825 -3.06770339 8.25726965 -6 12 C-10.45936926 14.20637782 -14.99129289 15.25886659 -19.80908203 16.41943359 C-23.40471467 17.37223217 -26.81468172 18.70874143 -30.25 20.125 C-30.93707031 20.40794922 -31.62414062 20.69089844 -32.33203125 20.98242188 C-40.87384653 24.63537768 -48.92698045 29.26340804 -56.97973633 33.87426758 C-58.95976523 34.97758036 -60.96499838 36.00234938 -63 37 C-52.84390809 24.37350736 -19.47711271 -7.00248576 0 0 Z " fill="#886575" transform="translate(206,70)"/>
<path d="M0 0 C23.37945311 3.13912497 46.65148527 17.28454601 61 36 C57.72453146 34.83449586 54.730535 33.34850932 51.69140625 31.6796875 C40.68806283 25.6438151 29.72730804 20.72958229 17.85546875 16.65625 C17.0361084 16.37241455 16.21674805 16.0885791 15.37255859 15.79614258 C13.82356225 15.27635691 12.26371047 14.7875938 10.69384766 14.3347168 C6.97459167 13.17758669 5.26175726 12.40735973 3.125 9.08203125 C2.75375 8.00308594 2.3825 6.92414063 2 5.8125 C1.608125 4.72582031 1.21625 3.63914062 0.8125 2.51953125 C0.544375 1.68808594 0.27625 0.85664062 0 0 Z " fill="#886575" transform="translate(68,69)"/>
<path d="M0 0 C0.66 0 1.32 0 2 0 C4.64 5.28 7.28 10.56 10 16 C12.55820816 12.58905579 14.32943579 9.54870905 16.1875 5.75 C16.98220703 4.13351563 16.98220703 4.13351563 17.79296875 2.484375 C18.19128906 1.66453125 18.58960938 0.8446875 19 0 C19.66 0 20.32 0 21 0 C21.08564209 0.62567871 21.17128418 1.25135742 21.25952148 1.89599609 C21.64853518 4.72284647 22.0429495 7.54891732 22.4375 10.375 C22.57220703 11.35984375 22.70691406 12.3446875 22.84570312 13.359375 C23.04389648 14.77089844 23.04389648 14.77089844 23.24609375 16.2109375 C23.36654053 17.08024902 23.4869873 17.94956055 23.61108398 18.84521484 C23.90299163 21.04034561 23.90299163 21.04034561 25 23 C23.02 23 21.04 23 19 23 C18.34 18.71 17.68 14.42 17 10 C14.69 14.29 12.38 18.58 10 23 C6.06369185 19.06369185 4.40940787 15.01417313 2 10 C1.34 14.29 0.68 18.58 0 23 C-1.32 22.67 -2.64 22.34 -4 22 C-2.68 14.74 -1.36 7.48 0 0 Z " fill="#E62151" transform="translate(213,130)"/>
<path d="M0 0 C3.3 0 6.6 0 10 0 C9.01 0.33 8.02 0.66 7 1 C7 3.97 7 6.94 7 10 C11.29 10 15.58 10 20 10 C20 7.03 20 4.06 20 1 C19.01 0.67 18.02 0.34 17 0 C19.64 0 22.28 0 25 0 C25 7.59 25 15.18 25 23 C23.02 23 21.04 23 19 23 C19.33 19.37 19.66 15.74 20 12 C15.71 12 11.42 12 7 12 C7.33 15.63 7.66 19.26 8 23 C6.02 23 4.04 23 2 23 C2.33 15.74 2.66 8.48 3 1 C2.01 0.67 1.02 0.34 0 0 Z " fill="#E51346" transform="translate(66,130)"/>
<path d="M0 0 C0.75410156 0.00451172 1.50820313 0.00902344 2.28515625 0.01367188 C4.14847127 0.02546501 6.01174555 0.04340058 7.875 0.0625 C7.875 1.7125 7.875 3.3625 7.875 5.0625 C7.029375 4.5675 6.18375 4.0725 5.3125 3.5625 C1.39260133 1.85199876 -0.8960994 1.44738718 -5.125 2.0625 C-8.28848401 3.72428189 -8.28848401 3.72428189 -10.125 7.0625 C-10.96206862 11.54047687 -11.2367186 15.95759162 -9.0625 20.07421875 C-7.31951613 22.21663642 -5.60318181 23.82340909 -3.125 25.0625 C1.15990153 25.46673599 3.20189468 25.52078448 6.8125 23.0625 C7.493125 22.4025 8.17375 21.7425 8.875 21.0625 C7 26.9375 7 26.9375 5.875 28.0625 C-0.80545987 28.88434919 -6.03601229 28.52261389 -11.53125 24.46875 C-15.37053745 21.08114342 -16.33104573 18.20061214 -16.6875 13.1875 C-16.56234355 8.26222545 -15.01338917 5.8102425 -11.6328125 2.33984375 C-8.10169006 -0.65154754 -4.38895726 -0.04927154 0 0 Z " fill="#E61C4D" transform="translate(29.125,125.9375)"/>
<path d="M0 0 C2.73698809 1.36849405 2.95778423 2.81914961 4.12890625 5.62109375 C4.52400391 6.55630859 4.91910156 7.49152344 5.32617188 8.45507812 C5.73416016 9.43927734 6.14214844 10.42347656 6.5625 11.4375 C7.37598775 13.37383 8.18977519 15.31003414 9.00390625 17.24609375 C9.36299072 18.10904053 9.7220752 18.9719873 10.09204102 19.86108398 C10.68565236 21.25947844 11.32060594 22.64121187 12 24 C10.02 24 8.04 24 6 24 C5.34 21.36 4.68 18.72 4 16 C0.04 16.495 0.04 16.495 -4 17 C-4.66 19.31 -5.32 21.62 -6 24 C-7.32 23.67 -8.64 23.34 -10 23 C-6.7 15.41 -3.4 7.82 0 0 Z " fill="#E62150" transform="translate(148,129)"/>
<path d="M0 0 C3.3 0 6.6 0 10 0 C9.01 0.33 8.02 0.66 7 1 C7.08691739 3.77236494 7.19377361 6.54147078 7.3125 9.3125 C7.33505859 10.09818359 7.35761719 10.88386719 7.38085938 11.69335938 C7.41630859 12.45068359 7.45175781 13.20800781 7.48828125 13.98828125 C7.51446533 14.68477783 7.54064941 15.38127441 7.56762695 16.09887695 C8.13068193 18.57460202 8.96090491 19.51085247 11 21 C14.61462786 20.92421045 14.61462786 20.92421045 18 20 C19.6498007 16.70039859 19.38258361 13.00872116 19.5625 9.375 C19.60568359 8.57320312 19.64886719 7.77140625 19.69335938 6.9453125 C19.79951457 4.9637489 19.90026855 2.98189729 20 1 C19.01 0.67 18.02 0.34 17 0 C19.31 0 21.62 0 24 0 C23.91269147 2.73064947 23.80577876 5.4581619 23.6875 8.1875 C23.66494141 8.95642578 23.64238281 9.72535156 23.61914062 10.51757812 C23.40236649 15.10924853 22.94139106 18.2597126 20 22 C17.44909127 23.27545437 15.47334154 23.27572804 12.625 23.375 C11.19027344 23.44847656 11.19027344 23.44847656 9.7265625 23.5234375 C7 23 7 23 4.6640625 21.02734375 C2.42127344 16.94715239 2.55093392 13.75453525 2.75 9.1875 C2.76804688 8.39923828 2.78609375 7.61097656 2.8046875 6.79882812 C2.85155952 4.86535739 2.9232959 2.93251715 3 1 C2.01 0.67 1.02 0.34 0 0 Z " fill="#E62150" transform="translate(241,130)"/>
<path d="M0 0 C0.66 0 1.32 0 2 0 C5.3 7.59 8.6 15.18 12 23 C10.35 23 8.7 23 7 23 C6.67 21.865625 6.34 20.73125 6 19.5625 C5.27812632 17.59506575 5.27812632 17.59506575 4 16 C1.20799134 15.030782 -0.99397579 15.04927909 -4 15 C-4.66 17.64 -5.32 20.28 -6 23 C-7.32 22.67 -8.64 22.34 -10 22 C-6.7 14.74 -3.4 7.48 0 0 Z " fill="#E51648" transform="translate(51,130)"/>
<path d="M0 0 C3.24718675 3.73526084 4.81725639 8.02399115 6.625 12.5625 C6.93695313 13.33013672 7.24890625 14.09777344 7.5703125 14.88867188 C8.79241459 17.90968717 9.96906785 20.90720356 11 24 C9.35 24 7.7 24 6 24 C5.67 22.865625 5.34 21.73125 5 20.5625 C4.27812632 18.59506575 4.27812632 18.59506575 3 17 C0.20799134 16.030782 -1.99397579 16.04927909 -5 16 C-5.66 18.64 -6.32 21.28 -7 24 C-8.32 23.67 -9.64 23.34 -11 23 C-10.62488281 22.26136719 -10.24976562 21.52273437 -9.86328125 20.76171875 C-6.40765013 13.91138703 -3.11864614 7.01005415 0 0 Z " fill="#E6204F" transform="translate(106,129)"/>
<path d="M0 0 C2.64 0 5.28 0 8 0 C9.65 3.3 11.3 6.6 13 10 C13.825 8.906875 14.65 7.81375 15.5 6.6875 C15.9640625 6.07261719 16.428125 5.45773438 16.90625 4.82421875 C18.25711283 2.92566995 18.25711283 2.92566995 18 0 C20.31 0 22.62 0 25 0 C24.2575 0.70125 23.515 1.4025 22.75 2.125 C16.29316867 8.87532366 15.29586679 13.85771628 15 23 C13.35 23 11.7 23 10 23 C9.99742188 22.32195312 9.99484375 21.64390625 9.9921875 20.9453125 C9.67720383 13.36470539 7.71072743 7.98801422 3 2 C2.01 1.34 1.02 0.68 0 0 Z " fill="#E6174A" transform="translate(115,130)"/>
<path d="M0 0 C2.31 0 4.62 0 7 0 C7 8.91 7 17.82 7 27 C4.69 27 2.38 27 0 27 C0 18.09 0 9.18 0 0 Z " fill="#E72956" transform="translate(176,126)"/>
<path d="M0 0 C3.3 0 6.6 0 10 0 C9.01 0.33 8.02 0.66 7 1 C7.13822199 4.14621682 7.28685084 7.29185566 7.4375 10.4375 C7.47681641 11.33533203 7.51613281 12.23316406 7.55664062 13.15820312 C7.59853516 14.01220703 7.64042969 14.86621094 7.68359375 15.74609375 C7.72025146 16.53685303 7.75690918 17.3276123 7.79467773 18.14233398 C7.80563257 20.01401441 7.80563257 20.01401441 9 21 C13.14276875 21.24733137 13.14276875 21.24733137 17 20 C17 20.99 17 21.98 17 23 C12.05 23 7.1 23 2 23 C2.33 15.74 2.66 8.48 3 1 C2.01 0.67 1.02 0.34 0 0 Z " fill="#E51245" transform="translate(189,130)"/>
<path d="M0 0 C0 0.66 0 1.32 0 2 C0.99 2.33 1.98 2.66 3 3 C1.86046875 3.15855469 0.7209375 3.31710938 -0.453125 3.48046875 C-12.52773592 5.2352075 -24.2145056 7.85802942 -36 11 C-36 10.34 -36 9.68 -36 9 C-36.66 8.67 -37.32 8.34 -38 8 C-32.18956622 6.28164613 -26.33247558 4.83553432 -20.4375 3.4375 C-19.51775391 3.21642578 -18.59800781 2.99535156 -17.65039062 2.76757812 C-6.01987349 0 -6.01987349 0 0 0 Z " fill="#F4E0E4" transform="translate(180,107)"/>
<path d="M0 0 C5.45454545 0.45454545 5.45454545 0.45454545 8 3 C7.43181818 8.56818182 7.43181818 8.56818182 6 10 C2.5625 10.25 2.5625 10.25 -1 10 C-3 7 -3 7 -2.75 4.4375 C-2 2 -2 2 0 0 Z " fill="#CDBEC5" transform="translate(210,161)"/>
<path d="M0 0 C2.875 0.75 2.875 0.75 3.875 1.75 C4.0625 4.6875 4.0625 4.6875 3.875 7.75 C1.875 9.75 1.875 9.75 -1.125 10 C-4.125 9.75 -4.125 9.75 -6.125 7.75 C-6.4883156 4.91613833 -6.4818671 3.34477849 -5 0.875 C-3.125 -0.25 -3.125 -0.25 0 0 Z " fill="#CDBEC5" transform="translate(197.125,161.25)"/>
<path d="M0 0 C3.3 0 6.6 0 10 0 C9.01 0.33 8.02 0.66 7 1 C7.33 7.27 7.66 13.54 8 20 C5.525 19.01 5.525 19.01 3 18 C3 12.39 3 6.78 3 1 C2.01 0.67 1.02 0.34 0 0 Z " fill="#E51346" transform="translate(241,130)"/>
<path d="M0 0 C0.66 0 1.32 0 2 0 C2 0.66 2 1.32 2 2 C2.66 2 3.32 2 4 2 C6.31 6.95 8.62 11.9 11 17 C9.02 17 7.04 17 5 17 C4.34 14.36 3.68 11.72 3 9 C0.36 9 -2.28 9 -5 9 C-5 8.67 -5 8.34 -5 8 C-2.69 8 -0.38 8 2 8 C1.67 7.236875 1.34 6.47375 1 5.6875 C0 3 0 3 0 0 Z " fill="#E51346" transform="translate(149,136)"/>
<path d="M0 0 C0.75410156 0.00451172 1.50820313 0.00902344 2.28515625 0.01367188 C4.14847127 0.02546501 6.01174555 0.04340058 7.875 0.0625 C7.875 1.7125 7.875 3.3625 7.875 5.0625 C7.029375 4.5675 6.18375 4.0725 5.3125 3.5625 C1.39260133 1.85199876 -0.8960994 1.44738718 -5.125 2.0625 C-7.75516161 4.2352422 -9.59836894 6.00923788 -11.125 9.0625 C-12.115 9.3925 -13.105 9.7225 -14.125 10.0625 C-14.455 12.3725 -14.785 14.6825 -15.125 17.0625 C-15.455 17.0625 -15.785 17.0625 -16.125 17.0625 C-16.61803103 13.03607995 -16.99492855 9.5204358 -14.859375 5.94140625 C-10.14933518 0.44254909 -7.17039384 -0.08049665 0 0 Z " fill="#E51848" transform="translate(29.125,125.9375)"/>
<path d="M0 0 C0.99 0 1.98 0 3 0 C3 1.32 3 2.64 3 4 C4.32 4 5.64 4 7 4 C7 3.01 7 2.02 7 1 C7.66 1 8.32 1 9 1 C9 3.97 9 6.94 9 10 C8.34 10 7.68 10 7 10 C7 8.68 7 7.36 7 6 C5.68 6 4.36 6 3 6 C3 7.32 3 8.64 3 10 C2.01 10 1.02 10 0 10 C0 6.7 0 3.4 0 0 Z " fill="#AF98A2" transform="translate(175,161)"/>
<path d="M0 0 C3 1 3 1 5 3 C5.37890625 4.875 5.37890625 4.875 5.5625 7 C5.77684784 9.37969847 5.92338668 10.84677336 7 13 C5.02 13 3.04 13 1 13 C0.67 8.71 0.34 4.42 0 0 Z " fill="#E83760" transform="translate(231,140)"/>
<path d="M0 0 C0.33 0 0.66 0 1 0 C1.33 6.93 1.66 13.86 2 21 C0.02 21 -1.96 21 -4 21 C-3.88652381 19.02013918 -3.7589065 17.04108402 -3.625 15.0625 C-3.55539063 13.96035156 -3.48578125 12.85820312 -3.4140625 11.72265625 C-3.27742188 10.82417969 -3.14078125 9.92570313 -3 9 C-2.34 8.67 -1.68 8.34 -1 8 C-0.53476937 6.10466658 -0.53476937 6.10466658 -0.375 3.9375 C-0.25125 2.638125 -0.1275 1.33875 0 0 Z " fill="#E62552" transform="translate(89,132)"/>
<path d="M0 0 C0.33 0 0.66 0 1 0 C1 6.93 1 13.86 1 21 C-0.32 21 -1.64 21 -3 21 C-2.69152766 18.06202558 -2.37839777 15.12467718 -2.0625 12.1875 C-1.97548828 11.35412109 -1.88847656 10.52074219 -1.79882812 9.66210938 C-1.71181641 8.85966797 -1.62480469 8.05722656 -1.53515625 7.23046875 C-1.456604 6.49207764 -1.37805176 5.75368652 -1.29711914 4.99291992 C-1 3 -1 3 0 0 Z " fill="#F3A76B" transform="translate(144,13)"/>
<path d="M0 0 C1.90739027 3.38354448 2.76734743 6.72286344 3.625 10.5 C3.88539063 11.6240625 4.14578125 12.748125 4.4140625 13.90625 C5 17 5 17 5 21 C3.68 21 2.36 21 1 21 C0.25194283 13.97360585 -0.13794954 7.06608191 0 0 Z " fill="#F19031" transform="translate(130,13)"/>
<path d="M0 0 C0.99 0 1.98 0 3 0 C5.64162606 2.79164433 6.67523311 5.58655791 7.6875 9.25 C8.06455078 10.58804688 8.06455078 10.58804688 8.44921875 11.953125 C8.63097656 12.62859375 8.81273437 13.3040625 9 14 C8.01 14 7.02 14 6 14 C4.99515796 12.04414675 3.99626195 10.08523763 3 8.125 C2.1646875 6.48917969 2.1646875 6.48917969 1.3125 4.8203125 C0 2 0 2 0 0 Z " fill="#E51246" transform="translate(215,138)"/>
<path d="M0 0 C0.66 0 1.32 0 2 0 C1.34 1.98 0.68 3.96 0 6 C2.64 5.67 5.28 5.34 8 5 C8 5.66 8 6.32 8 7 C5.03 7 2.06 7 -1 7 C-1.66 9.64 -2.32 12.28 -3 15 C-4.32 14.67 -5.64 14.34 -7 14 C-4.69 9.38 -2.38 4.76 0 0 Z " fill="#E50E42" transform="translate(102,138)"/>
<path d="M0 0 C0.66 0.33 1.32 0.66 2 1 C1.31292969 1.74765625 0.62585938 2.4953125 -0.08203125 3.265625 C-0.9922811 4.26033102 -1.90243213 5.25512748 -2.8125 6.25 C-3.26431641 6.74113281 -3.71613281 7.23226562 -4.18164062 7.73828125 C-6.60818027 10.39507648 -8.90349971 13.07465076 -11 16 C-11.99 15.67 -12.98 15.34 -14 15 C-12.87563746 11.62691239 -11.92657267 10.84876903 -9.25 8.625 C-6.00331159 5.87465784 -2.96094821 3.05347784 0 0 Z " fill="#F0861A" transform="translate(182,28)"/>
<path d="M0 0 C1.09178911 3.27536732 0.93042848 4.04413619 0.00390625 7.23046875 C-0.22490234 8.03291016 -0.45371094 8.83535156 -0.68945312 9.66210938 C-0.93630859 10.49548828 -1.18316406 11.32886719 -1.4375 12.1875 C-1.68048828 13.03248047 -1.92347656 13.87746094 -2.17382812 14.74804688 C-2.77493493 16.8342411 -3.38647834 18.91742301 -4 21 C-5.32 20.34 -6.64 19.68 -8 19 C-5.36 12.73 -2.72 6.46 0 0 Z " fill="#F08B25" transform="translate(158,15)"/>
<path d="M0 0 C3.95969176 1.67229701 7.0161201 4.36304994 10.25 7.125 C10.80429688 7.59292969 11.35859375 8.06085937 11.9296875 8.54296875 C13.28947326 9.69175328 14.64515165 10.84539653 16 12 C15.67 12.66 15.34 13.32 15 14 C12 14 12 14 10.3515625 12.4609375 C9.78179687 11.77257813 9.21203125 11.08421875 8.625 10.375 C7.71427734 9.28832031 7.71427734 9.28832031 6.78515625 8.1796875 C6.19605469 7.46039063 5.60695313 6.74109375 5 6 C4.02108912 4.8331187 3.041959 3.66642126 2.0625 2.5 C1.0415625 1.2625 1.0415625 1.2625 0 0 Z " fill="#F08821" transform="translate(92,29)"/>
<path d="M0 0 C4.50513431 4.23209586 8.514292 8.88695859 12 14 C12 14.66 12 15.32 12 16 C10.265625 15.90234375 10.265625 15.90234375 8 15 C6.40730442 12.86381158 5.07283413 10.8529628 3.75 8.5625 C3.38648437 7.96373047 3.02296875 7.36496094 2.6484375 6.74804688 C0 2.30245536 0 2.30245536 0 0 Z " fill="#F08820" transform="translate(104,22)"/>
<path d="M0 0 C0.33 0.66 0.66 1.32 1 2 C-0.24125182 4.61161731 -1.5310524 7.10501786 -2.9375 9.625 C-3.32357422 10.33140625 -3.70964844 11.0378125 -4.10742188 11.765625 C-5.06448696 13.51433651 -6.03134031 15.25768432 -7 17 C-8.32 16.34 -9.64 15.68 -11 15 C-7.37 10.05 -3.74 5.1 0 0 Z " fill="#F0861A" transform="translate(170,22)"/>
<path d="M0 0 C2.27804239 2.87928525 4.04034684 5.7830329 5.6875 9.0625 C6.12449219 9.91972656 6.56148438 10.77695312 7.01171875 11.66015625 C8 14 8 14 8 17 C7.01 17 6.02 17 5 17 C4.16080602 14.73117913 3.32848276 12.46022973 2.5 10.1875 C2.26152344 9.54490234 2.02304688 8.90230469 1.77734375 8.24023438 C0.72931254 5.35066261 0 3.09923939 0 0 Z " fill="#EF8419" transform="translate(117,18)"/>
<path d="M0 0 C1.65 1.65 3.3 3.3 5 5 C5.66 3.35 6.32 1.7 7 0 C9.12508244 3.18762365 9.5020163 5.26512223 10 9 C9.34 9 8.68 9 8 9 C7.34 8.01 6.68 7.02 6 6 C5.01 6.99 4.02 7.98 3 9 C0 3.375 0 3.375 0 0 Z " fill="#947583" transform="translate(98,162)"/>
<path d="M0 0 C0.99 0.33 1.98 0.66 3 1 C3.66 0.67 4.32 0.34 5 0 C5 3.3 5 6.6 5 10 C3.35 10 1.7 10 0 10 C0 6.7 0 3.4 0 0 Z " fill="#E94669" transform="translate(125,143)"/>
<path d="M0 0 C4.9723422 1.49170266 9.41845739 3.60457417 14 6 C13.67 6.99 13.34 7.98 13 9 C7.97290493 7.42903279 3.97133531 4.38006951 0 1 C0 0.67 0 0.34 0 0 Z " fill="#F08823" transform="translate(86,40)"/>
<path d="M0 0 C1.32 0 2.64 0 4 0 C4 2.97 4 5.94 4 9 C4.99 9.33 5.98 9.66 7 10 C5.02 10 3.04 10 1 10 C0.67 6.7 0.34 3.4 0 0 Z " fill="#B5A0AA" transform="translate(70,161)"/>
<path d="M0 0 C-4.95 2.31 -9.9 4.62 -15 7 C-15.33 6.01 -15.66 5.02 -16 4 C-13.90049414 3.13444052 -11.7952093 2.28288723 -9.6875 1.4375 C-8.51574219 0.96183594 -7.34398437 0.48617187 -6.13671875 -0.00390625 C-3 -1 -3 -1 0 0 Z " fill="#F08823" transform="translate(197,51)"/>
<path d="M0 0 C0.66 0.33 1.32 0.66 2 1 C0.40629329 2.36646148 -1.20032982 3.71787166 -2.8125 5.0625 C-4.15248047 6.19365234 -4.15248047 6.19365234 -5.51953125 7.34765625 C-6.74736328 8.16556641 -6.74736328 8.16556641 -8 9 C-8.99 8.67 -9.98 8.34 -11 8 C-7.71644638 4.32241995 -4.37221763 2.18610882 0 0 Z " fill="#F0861D" transform="translate(186,41)"/>
<path d="M0 0 C2.15377564 2.62198774 3.40072174 4.64404172 4 8 C1.69 8 -0.62 8 -3 8 C-1.125 1.125 -1.125 1.125 0 0 Z " fill="#FBE6E9" transform="translate(105,136)"/>
<path d="M0 0 C-2.26949102 0.67155349 -4.5403961 1.3373963 -6.8125 2 C-8.70935547 2.556875 -8.70935547 2.556875 -10.64453125 3.125 C-14 4 -14 4 -17 4 C-17 3.01 -17 2.02 -17 1 C-14.91835982 0.63601378 -12.83459438 0.28416713 -10.75 -0.0625 C-9.00976562 -0.35833984 -9.00976562 -0.35833984 -7.234375 -0.66015625 C-4.37477376 -0.9606216 -2.66674071 -0.9439206 0 0 Z " fill="#F08C29" transform="translate(202,62)"/>
<path d="M0 0 C2.475 0.495 2.475 0.495 5 1 C5.66 2.98 6.32 4.96 7 7 C5.35 7 3.7 7 2 7 C1.34 4.69 0.68 2.38 0 0 Z " fill="#E51648" transform="translate(110,146)"/>
<path d="M0 0 C2.89932357 2.39509338 3.50168276 4.31245243 4 8 C2.02 8 0.04 8 -2 8 C-1.125 2.25 -1.125 2.25 0 0 Z " fill="#FCE9EC" transform="translate(147,136)"/>
<path d="M0 0 C0.66 0 1.32 0 2 0 C3.25664978 2.90600261 4 4.79604584 4 8 C2.02 8 0.04 8 -2 8 C-1.34 5.36 -0.68 2.72 0 0 Z " fill="#FCE9EC" transform="translate(50,136)"/>
<path d="M0 0 C1.75128818 0.28382946 3.50100003 0.57739529 5.25 0.875 C6.71179688 1.11863281 6.71179688 1.11863281 8.203125 1.3671875 C10.77264117 1.94855848 12.72071056 2.70840265 15 4 C14.67 4.99 14.34 5.98 14 7 C9.38 5.02 4.76 3.04 0 1 C0 0.67 0 0.34 0 0 Z " fill="#F0871F" transform="translate(79,50)"/>
<path d="M0 0 C6.6 0.66 13.2 1.32 20 2 C19.67 2.99 19.34 3.98 19 5 C12.73 3.68 6.46 2.36 0 1 C0 0.67 0 0.34 0 0 Z " fill="#F08923" transform="translate(70,60)"/>
<path d="M0 0 C0.66 0.33 1.32 0.66 2 1 C1.67 1.99 1.34 2.98 1 4 C1.99 4.33 2.98 4.66 4 5 C4.33 6.65 4.66 8.3 5 10 C3.35 10.66 1.7 11.32 0 12 C-0.33 11.34 -0.66 10.68 -1 10 C0.32 10 1.64 10 3 10 C2.525625 9.2575 2.05125 8.515 1.5625 7.75 C0.22077336 5.38856112 -0.61956417 3.66305078 -1 1 C-0.67 0.67 -0.34 0.34 0 0 Z " fill="#9C808D" transform="translate(149,160)"/>
<path d="M0 0 C2.31 0 4.62 0 7 0 C5.8553125 1.0828125 5.8553125 1.0828125 4.6875 2.1875 C2.28866409 4.69790967 0.64589779 6.96808302 -1 10 C-1.99 9.67 -2.98 9.34 -4 9 C-3.34 8.071875 -2.68 7.14375 -2 6.1875 C0.26574554 3.20363444 0.26574554 3.20363444 0 0 Z " fill="#E61C4C" transform="translate(133,130)"/>
<path d="M0 0 C2.32472205 2.85306797 3.7508258 5.54074837 5 9 C4.01 9 3.02 9 2 9 C2 8.01 2 7.02 2 6 C0.68 6 -0.64 6 -2 6 C-1.125 1.125 -1.125 1.125 0 0 Z " fill="#A08591" transform="translate(86,162)"/>
<path d="M0 0 C1 2 1 2 0.25 4.625 C-2 7 -2 7 -4.65234375 7.32421875 C-7.44993877 7.31341722 -10.21090159 7.21308901 -13 7 C-13 6.67 -13 6.34 -13 6 C-10.03 6 -7.06 6 -4 6 C-4 5.34 -4 4.68 -4 4 C-2.70766393 2.62689293 -1.37562854 1.28965176 0 0 Z " fill="#EA5070" transform="translate(37,147)"/>
<path d="M0 0 C0.66 0.99 1.32 1.98 2 3 C1.34 3 0.68 3 0 3 C-0.2165625 4.423125 -0.2165625 4.423125 -0.4375 5.875 C-1 9 -1 9 -2 11 C-2.99 10.67 -3.98 10.34 -5 10 C-3.35 6.7 -1.7 3.4 0 0 Z " fill="#E72452" transform="translate(50,133)"/>
<path d="M0 0 C0.33 0 0.66 0 1 0 C1 4.62 1 9.24 1 14 C0.01 14 -0.98 14 -2 14 C-1.34 9.38 -0.68 4.76 0 0 Z " fill="#EF7E05" transform="translate(143,19)"/>
<path d="M0 0 C4.2742558 1.5830577 6.26531794 4.50568404 9 8 C6.0280615 6.87548273 3.66559313 5.77706209 1 4 C0.3125 1.875 0.3125 1.875 0 0 Z " fill="#835E6F" transform="translate(120,97)"/>
<path d="M0 0 C0.66 0.33 1.32 0.66 2 1 C-0.64 3.97 -3.28 6.94 -6 10 C-6.66 9.34 -7.32 8.68 -8 8 C-5.36 5.36 -2.72 2.72 0 0 Z " fill="#F19640" transform="translate(182,28)"/>
<path d="M0 0 C3.3 0 6.6 0 10 0 C9.01 0.66 8.02 1.32 7 2 C6.01 3.485 6.01 3.485 5 5 C4.34 4.67 3.68 4.34 3 4 C3 3.01 3 2.02 3 1 C2.01 0.67 1.02 0.34 0 0 Z " fill="#E62250" transform="translate(189,130)"/>
<path d="M0 0 C0.66 1.32 1.32 2.64 2 4 C-0.64 4.66 -3.28 5.32 -6 6 C-2.25 1.125 -2.25 1.125 0 0 Z " fill="#E51546" transform="translate(150,109)"/>
<path d="M0 0 C3.09162264 1.38589981 4.49183541 2.49183541 7 5 C3.7 4.01 0.4 3.02 -3 2 C-2.01 1.34 -1.02 0.68 0 0 Z " fill="#E8325B" transform="translate(127,111)"/>
<path d="M0 0 C0.33 0 0.66 0 1 0 C1.66 2.31 2.32 4.62 3 7 C1.35 7 -0.3 7 -2 7 C-2 5.68 -2 4.36 -2 3 C-1.34 3 -0.68 3 0 3 C0 2.01 0 1.02 0 0 Z " fill="#E50A40" transform="translate(235,146)"/>
<path d="M0 0 C3.125 -0.1875 3.125 -0.1875 6 0 C6 0.66 6 1.32 6 2 C3.36 2.33 0.72 2.66 -2 3 C-1.34 2.01 -0.68 1.02 0 0 Z " fill="#FBF4F5" transform="translate(161,110)"/>
<path d="M0 0 C0.66 0.33 1.32 0.66 2 1 C2 1.66 2 2.32 2 3 C0.03852126 4.38938077 -1.96166576 5.7260411 -4 7 C-4.66 6.67 -5.32 6.34 -6 6 C-4.02 4.02 -2.04 2.04 0 0 Z " fill="#90707E" transform="translate(149,100)"/>
</svg>
