<?xml version="1.0" encoding="UTF-8"?>
<svg version="1.1" xmlns="http://www.w3.org/2000/svg" width="225" height="225">
<path d="M0 0 C74.25 0 148.5 0 225 0 C225 74.25 225 148.5 225 225 C150.75 225 76.5 225 0 225 C0 150.75 0 76.5 0 0 Z " fill="#FEFEFE" transform="translate(0,0)"/>
<path d="M0 0 C6.6 0 13.2 0 20 0 C20.495 6.435 20.495 6.435 21 13 C21.99 12.67 22.98 12.34 24 12 C35.90191654 11.30460712 45.60318929 11.62222467 55.21875 19.40625 C60.94514413 24.5298658 65.30164268 30.83840117 66.34875488 38.57766724 C66.45923287 41.37427734 66.45081527 44.14330763 66.390625 46.94140625 C66.38496521 47.94968979 66.37930542 48.95797333 66.37347412 49.99681091 C66.3512609 53.18587736 66.3010928 56.37377886 66.25 59.5625 C66.22991555 61.73761387 66.2116682 63.91274552 66.1953125 66.08789062 C66.1514459 71.39231789 66.08468689 76.69607568 66 82 C64.23977543 82.04065532 62.47927927 82.06966458 60.71875 82.09375 C59.73841797 82.11115234 58.75808594 82.12855469 57.74804688 82.14648438 C53.72839392 81.93221716 51.83060213 80.83060213 49 78 C45.05067982 70.3392705 45.50979333 62.22199828 45.4375 53.8125 C45.41360792 51.6349423 45.38538399 49.45777132 45.34571838 47.28044128 C45.31049431 45.31317749 45.2904346 43.34565932 45.27124023 41.37817383 C45.00879511 38.10953907 44.54152572 35.8801757 43 33 C38.39400099 30.64082978 33.08340197 30.08317214 28 31 C24.93169611 32.71952864 22.59620612 34.80758776 21 38 C20.88729824 39.90340758 20.78010871 41.80742227 20.71044922 43.71289062 C20.25646783 55.86402672 18.68889791 64.89648663 10 74 C2.37336152 81.04673279 -6.32743798 82.57228188 -16.48046875 82.36328125 C-22.94726063 81.69578775 -28.60669352 79.59553765 -34 76 C-34.309375 76.86625 -34.309375 76.86625 -34.625 77.75 C-36.60622895 80.99201101 -38.64044471 82.22859812 -42 84 C-44.30444336 84.39575195 -44.30444336 84.39575195 -46.71484375 84.61328125 C-47.51913818 84.68973877 -48.32343262 84.76619629 -49.15209961 84.8449707 C-50.0668103 84.92171021 -50.0668103 84.92171021 -51 85 C-51.09968046 79.77137669 -51.17184747 74.54331956 -51.21972656 69.31396484 C-51.23970839 67.53912711 -51.26690355 65.76435406 -51.30175781 63.98974609 C-51.51554087 52.81643763 -51.42189698 43.94869525 -45.25 34.25 C-36.69647359 25.69647359 -26.87687581 20.7232055 -15.125 18.25 C-13.27325763 17.8393519 -11.42168704 17.42792824 -9.5703125 17.015625 C-8.36012451 16.75700684 -8.36012451 16.75700684 -7.12548828 16.49316406 C-4.83158903 15.99587606 -4.83158903 15.99587606 -2 15 C-0.9458482 11.83754459 -0.68724328 9.13051782 -0.4375 5.8125 C-0.293125 3.894375 -0.14875 1.97625 0 0 Z " fill="#5C8EF8" transform="translate(70,70)"/>
<path d="M0 0 C-0.05221827 3.20962297 -0.14736769 6.4166246 -0.25 9.625 C-0.27126953 10.98044922 -0.27126953 10.98044922 -0.29296875 12.36328125 C-0.50551359 18.18700993 -1.20674373 21.51899446 -5 26 C-8.6208169 29.10355734 -12.06666898 29.63198154 -16.7109375 29.4921875 C-20.72326905 28.62946775 -23.44515635 26.12512125 -26 23 C-27.44816377 18.6555087 -27.51576272 14.54016477 -27 10 C-24.54141092 5.55562743 -21.56903659 4.00064324 -17 2 C-13.45703125 1.26953125 -13.45703125 1.26953125 -9.8125 0.8125 C-8.60207031 0.65394531 -7.39164063 0.49539062 -6.14453125 0.33203125 C-3 0 -3 0 0 0 Z " fill="#FCFCFE" transform="translate(71,105)"/>
<path d="M0 0 C6 0 6 0 9 2 C9.66 1.34 10.32 0.68 11 0 C13.625 0.375 13.625 0.375 16 1 C16.66 3.31 17.32 5.62 18 8 C18.66 5.36 19.32 2.72 20 0 C20.66 0 21.32 0 22 0 C22.50471197 1.76949612 23.00360685 3.54065223 23.5 5.3125 C23.7784375 6.29863281 24.056875 7.28476563 24.34375 8.30078125 C25 11 25 11 25 14 C24.34 14 23.68 14 23 14 C23 13.01 23 12.02 23 11 C22.01 11 21.02 11 20 11 C18.95994298 14.38018531 18.91995518 17.4780279 19 21 C19.99 21 20.98 21 22 21 C22 19.02 22 17.04 22 15 C22.66 15 23.32 15 24 15 C24 19.62 24 24.24 24 29 C23.34 29 22.68 29 22 29 C22 27.02 22 25.04 22 23 C21.01 23 20.02 23 19 23 C19 24.98 19 26.96 19 29 C18.443125 28.814375 17.88625 28.62875 17.3125 28.4375 C14.94391319 27.83463761 14.94391319 27.83463761 12.375 28.5625 C11.59125 28.706875 10.8075 28.85125 10 29 C9.34 28.34 8.68 27.68 8 27 C7.34 27.66 6.68 28.32 6 29 C3.375 28.625 3.375 28.625 1 28 C0.67 27.01 0.34 26.02 0 25 C0.66 25 1.32 25 2 25 C2 25.66 2 26.32 2 27 C2.99 27 3.98 27 5 27 C3.47793991 24.37098712 2.15634036 22.15634036 0 20 C0.53571429 16.46428571 0.53571429 16.46428571 2 15 C1.34 14.67 0.68 14.34 0 14 C0 9.38 0 4.76 0 0 Z " fill="#C6D7FB" transform="translate(142,106)"/>
<path d="M0 0 C1.65 0 3.3 0 5 0 C7 2 7 2 7.125 4.625 C7.08375 5.40875 7.0425 6.1925 7 7 C7.33 4.69 7.66 2.38 8 0 C10.875 -0.125 10.875 -0.125 14 0 C14.66 0.66 15.32 1.32 16 2 C16.33 1.34 16.66 0.68 17 0 C17.66 0 18.32 0 19 0 C18.98839844 0.99902344 18.97679687 1.99804688 18.96484375 3.02734375 C18.95582031 4.31769531 18.94679687 5.60804687 18.9375 6.9375 C18.92589844 8.22527344 18.91429687 9.51304688 18.90234375 10.83984375 C18.63467451 13.86298403 18.63467451 13.86298403 20 15 C20.07244053 17.01964199 20.08377188 19.04167124 20.0625 21.0625 C20.05347656 22.16722656 20.04445312 23.27195313 20.03515625 24.41015625 C20.02355469 25.26480469 20.01195312 26.11945313 20 27 C20.99 27 21.98 27 23 27 C23 27.66 23 28.32 23 29 C21.02 29 19.04 29 17 29 C16.67 28.34 16.34 27.68 16 27 C15.34 27.66 14.68 28.32 14 29 C11.4375 28.75 11.4375 28.75 9 28 C8.67 27.34 8.34 26.68 8 26 C7.608125 26.515625 7.21625 27.03125 6.8125 27.5625 C6.214375 28.036875 5.61625 28.51125 5 29 C3.35 28.67 1.7 28.34 0 28 C0 18.76 0 9.52 0 0 Z " fill="#F1F5FD" transform="translate(168,106)"/>
<path d="M0 0 C12 0 12 0 17 3 C19.44746105 6.8821796 20.14554827 9.48034311 20 14 C19.20335938 14.35191406 18.40671875 14.70382813 17.5859375 15.06640625 C10.88014996 18.19087903 6.30616297 20.98995959 2 27 C1.34 27.66 0.68 28.32 0 29 C0 19.43 0 9.86 0 0 Z " fill="#0735AC" transform="translate(20,74)"/>
<path d="M0 0 C0.66 0 1.32 0 2 0 C1.98839844 0.99902344 1.97679687 1.99804688 1.96484375 3.02734375 C1.95582031 4.31769531 1.94679687 5.60804687 1.9375 6.9375 C1.92589844 8.22527344 1.91429687 9.51304688 1.90234375 10.83984375 C1.63467451 13.86298403 1.63467451 13.86298403 3 15 C3.07244053 17.01964199 3.08377188 19.04167124 3.0625 21.0625 C3.05347656 22.16722656 3.04445312 23.27195313 3.03515625 24.41015625 C3.02355469 25.26480469 3.01195312 26.11945313 3 27 C3.99 27 4.98 27 6 27 C6 27.66 6 28.32 6 29 C4.02 29 2.04 29 0 29 C-0.33 28.34 -0.66 27.68 -1 27 C-1.66 27.66 -2.32 28.32 -3 29 C-5.625 28.625 -5.625 28.625 -8 28 C-8 19 -8 10 -8 1 C-7.34 1 -6.68 1 -6 1 C-6 4.63 -6 8.26 -6 12 C-5.01 12 -4.02 12 -3 12 C-3.14107747 10.54119891 -3.28802415 9.08296449 -3.4375 7.625 C-3.51871094 6.81289062 -3.59992188 6.00078125 -3.68359375 5.1640625 C-3.89090114 2.95727195 -3.89090114 2.95727195 -5 1 C-3.68 1.33 -2.36 1.66 -1 2 C-0.67 1.34 -0.34 0.68 0 0 Z " fill="#BFD2FB" transform="translate(185,106)"/>
<path d="M0 0 C1.98 0 3.96 0 6 0 C7 1 7 1 7.1328125 3.6875 C7.12894531 5.3271875 7.12894531 5.3271875 7.125 7 C7.12757813 8.093125 7.13015625 9.18625 7.1328125 10.3125 C7 13 7 13 6 14 C4.02 14 2.04 14 0 14 C0 9.38 0 4.76 0 0 Z " fill="#9AB8F9" transform="translate(142,106)"/>
<path d="M0 0 C4.70588235 0.70588235 4.70588235 0.70588235 6 2 C6.1245486 3.64230364 6.17568524 5.29052276 6.1875 6.9375 C6.20167969 7.83339844 6.21585938 8.72929687 6.23046875 9.65234375 C6 12 6 12 4 14 C1.375 13.625 1.375 13.625 -1 13 C-1.02686553 11.02090602 -1.04633375 9.04171029 -1.0625 7.0625 C-1.07410156 5.96035156 -1.08570313 4.85820313 -1.09765625 3.72265625 C-1 1 -1 1 0 0 Z " fill="#7AA3F9" transform="translate(178,121)"/>
<path d="M0 0 C1.66561399 1.66561399 1.17115945 3.65962705 1.1875 5.9375 C1.20167969 6.83339844 1.21585938 7.72929687 1.23046875 8.65234375 C1 11 1 11 -1 13 C-2.65 12.67 -4.3 12.34 -6 12 C-6 8.04 -6 4.08 -6 0 C-3.49749232 -1.25125384 -2.59701335 -0.83774624 0 0 Z " fill="#6F9BF9" transform="translate(174,122)"/>
<path d="M0 0 C1.65 0 3.3 0 5 0 C7 2 7 2 7.1953125 4.8203125 C7.16050781 6.45613281 7.16050781 6.45613281 7.125 8.125 C7.10695312 9.22070312 7.08890625 10.31640625 7.0703125 11.4453125 C7.04710937 12.28835937 7.02390625 13.13140625 7 14 C6.34 14 5.68 14 5 14 C4.67 12.02 4.34 10.04 4 8 C3.34 8 2.68 8 2 8 C2 9.98 2 11.96 2 14 C1.34 14 0.68 14 0 14 C0 9.38 0 4.76 0 0 Z " fill="#93B4FA" transform="translate(168,106)"/>
<path d="M0 0 C0.66 0 1.32 0 2 0 C2.66 1.32 3.32 2.64 4 4 C4.33 2.68 4.66 1.36 5 0 C5.66 0 6.32 0 7 0 C7 4.62 7 9.24 7 14 C4 11 4 11 3 8 C2.67 9.98 2.34 11.96 2 14 C1.34 14 0.68 14 0 14 C0 9.38 0 4.76 0 0 Z " fill="#82A8F8" transform="translate(189,106)"/>
<path d="M0 0 C0.66 0 1.32 0 2 0 C2 1.98 2 3.96 2 6 C2.99 6 3.98 6 5 6 C5 4.02 5 2.04 5 0 C5.66 0 6.32 0 7 0 C7 4.62 7 9.24 7 14 C6.34 14 5.68 14 5 14 C5 12.02 5 10.04 5 8 C4.01 8 3.02 8 2 8 C2 9.98 2 11.96 2 14 C1.34 14 0.68 14 0 14 C0 9.38 0 4.76 0 0 Z " fill="#7CA4FA" transform="translate(159,121)"/>
<path d="M0 0 C0.66 0 1.32 0 2 0 C2.50471197 1.76949612 3.00360685 3.54065223 3.5 5.3125 C3.7784375 6.29863281 4.056875 7.28476563 4.34375 8.30078125 C5 11 5 11 5 14 C4.34 14 3.68 14 3 14 C3 13.01 3 12.02 3 11 C2.01 11 1.02 11 0 11 C-0.33 11.99 -0.66 12.98 -1 14 C-1.33 14 -1.66 14 -2 14 C-1.85866501 12.22880197 -1.71176792 10.45804713 -1.5625 8.6875 C-1.48128906 7.70136719 -1.40007812 6.71523437 -1.31640625 5.69921875 C-1 3 -1 3 0 0 Z " fill="#99B7F9" transform="translate(162,106)"/>
<path d="M0 0 C0.66 0 1.32 0 2 0 C2 3.63 2 7.26 2 11 C2.99 11 3.98 11 5 11 C4.85892253 9.54119891 4.71197585 8.08296449 4.5625 6.625 C4.48128906 5.81289062 4.40007812 5.00078125 4.31640625 4.1640625 C4.10909886 1.95727195 4.10909886 1.95727195 3 0 C4.32 0.33 5.64 0.66 7 1 C7.05395478 2.62463842 7.09277195 4.24978541 7.125 5.875 C7.14820313 6.77992187 7.17140625 7.68484375 7.1953125 8.6171875 C7 11 7 11 5 13 C3.35 13 1.7 13 0 13 C0 8.71 0 4.42 0 0 Z " fill="#78A2F8" transform="translate(177,107)"/>
<path d="M0 0 C2.625 0.375 2.625 0.375 5 1 C5 2.32 5 3.64 5 5 C4.34 5 3.68 5 3 5 C3 4.01 3 3.02 3 2 C2.01 2 1.02 2 0 2 C0 5.3 0 8.6 0 12 C0.99 12 1.98 12 3 12 C3 11.01 3 10.02 3 9 C3.66 9 4.32 9 5 9 C4.67 10.65 4.34 12.3 4 14 C-0.875 13.125 -0.875 13.125 -2 12 C-2.1245486 10.35769636 -2.17568524 8.70947724 -2.1875 7.0625 C-2.20167969 6.16660156 -2.21585938 5.27070312 -2.23046875 4.34765625 C-2 2 -2 2 0 0 Z " fill="#749EF9" transform="translate(152,121)"/>
<path d="M0 0 C1.98 0 3.96 0 6 0 C6 4 6 8 6 12 C5.01 12 4.02 12 3 12 C3 8.37 3 4.74 3 1 C2.34 1 1.68 1 1 1 C1 5.29 1 9.58 1 14 C0.67 14 0.34 14 0 14 C0 9.38 0 4.76 0 0 Z " fill="#DEE7FC" transform="translate(176,106)"/>
<path d="M0 0 C2 0.25 2 0.25 4 1 C4.33 1.99 4.66 2.98 5 4 C4.34 4 3.68 4 3 4 C3 3.34 3 2.68 3 2 C2.01 2 1.02 2 0 2 C0.75416282 5.09938099 0.75416282 5.09938099 3.125 6.875 C3.74375 7.57625 4.3625 8.2775 5 9 C4.75 11.75 4.75 11.75 4 14 C2.35 13.67 0.7 13.34 -1 13 C-1.33 12.01 -1.66 11.02 -2 10 C-1.34 10 -0.68 10 0 10 C0 10.66 0 11.32 0 12 C0.99 12 1.98 12 3 12 C1.47793991 9.37098712 0.15634036 7.15634036 -2 5 C-1.46428571 1.46428571 -1.46428571 1.46428571 0 0 Z " fill="#77A0F9" transform="translate(144,121)"/>
<path d="M0 0 C0.66 0 1.32 0 2 0 C2 3.96 2 7.92 2 12 C2.99 12 3.98 12 5 12 C5 12.66 5 13.32 5 14 C3.35 14 1.7 14 0 14 C0 9.38 0 4.76 0 0 Z " fill="#82A8FB" transform="translate(186,121)"/>
<path d="M0 0 C1.65 0 3.3 0 5 0 C3.68 0.33 2.36 0.66 1 1 C1.34786708 2.97536745 1.34786708 2.97536745 2 5 C2.66 5.33 3.32 5.66 4 6 C4 6.66 4 7.32 4 8 C3.34 8 2.68 8 2 8 C2 9.98 2 11.96 2 14 C1.34 14 0.68 14 0 14 C0 9.38 0 4.76 0 0 Z " fill="#7FA5F8" transform="translate(168,106)"/>
<path d="M0 0 C0.99 0 1.98 0 3 0 C3 3.3 3 6.6 3 10 C2.01 10 1.02 10 0 10 C0 6.7 0 3.4 0 0 Z " fill="#FBFCFE" transform="translate(179,123)"/>
<path d="M0 0 C0.99 0 1.98 0 3 0 C3 3.3 3 6.6 3 10 C2.01 10 1.02 10 0 10 C0 6.7 0 3.4 0 0 Z " fill="#FDFDFE" transform="translate(170,123)"/>
<path d="M0 0 C0.99 0 1.98 0 3 0 C3 3.3 3 6.6 3 10 C2.01 10 1.02 10 0 10 C0 6.7 0 3.4 0 0 Z " fill="#FBFCFE" transform="translate(153,108)"/>
<path d="M0 0 C0.99 0 1.98 0 3 0 C3 0.66 3 1.32 3 2 C3.66 2 4.32 2 5 2 C5.33 1.34 5.66 0.68 6 0 C6 2.97 6 5.94 6 9 C0.42857143 3.85714286 0.42857143 3.85714286 0 0 Z " fill="#F4F7FD" transform="translate(144,123)"/>
<path d="M0 0 C0.66 0 1.32 0 2 0 C2.33 2.31 2.66 4.62 3 7 C2.34 6.67 1.68 6.34 1 6 C0.67 6.99 0.34 7.98 0 9 C0.99 9.33 1.98 9.66 3 10 C1.68 10 0.36 10 -1 10 C-1.125 3.375 -1.125 3.375 0 0 Z " fill="#709CF9" transform="translate(162,106)"/>
<path d="M0 0 C1.32 0 2.64 0 4 0 C4 1.65 4 3.3 4 5 C2.68 5 1.36 5 0 5 C0 3.35 0 1.7 0 0 Z " fill="#B0C8FA" transform="translate(145,107)"/>
<path d="M0 0 C2.0625 0.4375 2.0625 0.4375 4 1 C3.01 1.66 2.02 2.32 1 3 C0.42006301 5.19454681 0.42006301 5.19454681 0.3125 7.625 C0.24675781 8.44226563 0.18101562 9.25953125 0.11328125 10.1015625 C0.07589844 10.72804687 0.03851563 11.35453125 0 12 C-0.33 12 -0.66 12 -1 12 C-1.02687279 10.18757948 -1.04633715 8.37504767 -1.0625 6.5625 C-1.07410156 5.55316406 -1.08570313 4.54382813 -1.09765625 3.50390625 C-1 1 -1 1 0 0 Z " fill="#6997F8" transform="translate(178,121)"/>
</svg>
