<?xml version="1.0" encoding="UTF-8"?>
<svg version="1.1" xmlns="http://www.w3.org/2000/svg" width="225" height="225">
<path d="M0 0 C74.25 0 148.5 0 225 0 C225 74.25 225 148.5 225 225 C150.75 225 76.5 225 0 225 C0 150.75 0 76.5 0 0 Z " fill="#FDFDFD" transform="translate(0,0)"/>
<path d="M0 0 C1.42802693 0.00431428 2.85662588 -0.05763132 4.28125 -0.15625 C5.12300781 -0.20910156 5.96476562 -0.26195313 6.83203125 -0.31640625 C8.15267578 -0.40728516 8.15267578 -0.40728516 9.5 -0.5 C11.23923984 -0.61968415 12.97882327 -0.73450498 14.71875 -0.84375 C15.49154297 -0.89724609 16.26433594 -0.95074219 17.06054688 -1.00585938 C19 -1 19 -1 21 0 C20.67 0.99 20.34 1.98 20 3 C20.99 3.495 20.99 3.495 22 4 C21.01 4.33 20.02 4.66 19 5 C19 5.99 19 6.98 19 8 C22.96 8.33 26.92 8.66 31 9 C31.495 10.485 31.495 10.485 32 12 C35.00847418 13.22520264 35.00847418 13.22520264 38 14 C38 14.33 38 14.66 38 15 C37.29915283 15.11593506 36.59830566 15.23187012 35.8762207 15.35131836 C32.68817089 15.8791866 29.50033408 16.40833053 26.3125 16.9375 C25.20970703 17.11990234 24.10691406 17.30230469 22.97070312 17.49023438 C21.3706543 17.75610352 21.3706543 17.75610352 19.73828125 18.02734375 C18.75899658 18.18968506 17.77971191 18.35202637 16.77075195 18.51928711 C14.93364933 18.83801608 13.1006556 19.18147917 11.27294922 19.55029297 C4.04628963 20.98010038 -2.92562992 19.65413246 -10 18 C-8.02 18.495 -8.02 18.495 -6 19 C-6.33 19.66 -6.66 20.32 -7 21 C-11.62 21 -16.24 21 -21 21 C-20.505 21.99 -20.505 21.99 -20 23 C-19.12988281 22.94779297 -19.12988281 22.94779297 -18.2421875 22.89453125 C-13.05269113 22.71469722 -9.43553242 22.97085591 -5 26 C-2.39137607 30.18987885 -2.45963753 34.2053552 -3 39 C-4.49206469 42.8130542 -5.60170513 43.77351861 -9.1875 45.8125 C-10.115625 46.204375 -11.04375 46.59625 -12 47 C-8.7 47.66 -5.4 48.32 -2 49 C-2 50.32 -2 51.64 -2 53 C-4.77117304 52.85919445 -7.54182641 52.71256882 -10.3125 52.5625 C-11.09818359 52.52318359 -11.88386719 52.48386719 -12.69335938 52.44335938 C-13.8293457 52.38051758 -13.8293457 52.38051758 -14.98828125 52.31640625 C-16.03302612 52.26141968 -16.03302612 52.26141968 -17.09887695 52.20532227 C-19 52 -19 52 -22 51 C-22.495 49.02 -22.495 49.02 -23 47 C-27.95 46.67 -32.9 46.34 -38 46 C-38 45.34 -38 44.68 -38 44 C-37.34 44 -36.68 44 -36 44 C-36 38.06 -36 32.12 -36 26 C-36.99 26.99 -37.98 27.98 -39 29 C-39.66 29 -40.32 29 -41 29 C-41 28.01 -41 27.02 -41 26 C-42.98 26 -44.96 26 -47 26 C-47 32.27 -47 38.54 -47 45 C-46.01 45.495 -46.01 45.495 -45 46 C-48.3 46 -51.6 46 -55 46 C-54.34 45.34 -53.68 44.68 -53 44 C-52.63105418 41.96939341 -52.63105418 41.96939341 -52.5859375 39.6484375 C-52.54726563 38.79765625 -52.50859375 37.946875 -52.46875 37.0703125 C-52.4378125 36.18085938 -52.406875 35.29140625 -52.375 34.375 C-52.33632813 33.4778125 -52.29765625 32.580625 -52.2578125 31.65625 C-52.16340643 29.4377073 -52.07783252 27.21917597 -52 25 C-53.98 25 -55.96 25 -58 25 C-57.938125 25.928125 -57.87625 26.85625 -57.8125 27.8125 C-58 31 -58 31 -59.5 32.875 C-59.995 33.24625 -60.49 33.6175 -61 34 C-59.515 34.495 -59.515 34.495 -58 35 C-58.33 37.64 -58.66 40.28 -59 43 C-59.66 43 -60.32 43 -61 43 C-61.103125 43.639375 -61.20625 44.27875 -61.3125 44.9375 C-61.539375 45.618125 -61.76625 46.29875 -62 47 C-65.47325181 48.1577506 -68.36067448 48.06866652 -72 48 C-71.67 48.66 -71.34 49.32 -71 50 C-68.03 50 -65.06 50 -62 50 C-62 53.3 -62 56.6 -62 60 C-63.65 60 -65.3 60 -67 60 C-67 59.01 -67 58.02 -67 57 C-68.32 57 -69.64 57 -71 57 C-71 57.66 -71 58.32 -71 59 C-71.99 59 -72.98 59 -74 59 C-74 58.01 -74 57.02 -74 56 C-75.32 56 -76.64 56 -78 56 C-78 56.99 -78 57.98 -78 59 C-78.66 59 -79.32 59 -80 59 C-80.33 56.69 -80.66 54.38 -81 52 C-81.99 53.98 -82.98 55.96 -84 58 C-85.77706209 55.33440687 -86.87548273 52.9719385 -88 50 C-87.34 50 -86.68 50 -86 50 C-85.34 50.66 -84.68 51.32 -84 52 C-83.67 51.34 -83.34 50.68 -83 50 C-80.67843403 49.59270772 -78.3431213 49.25561323 -76 49 C-76 48.01 -76 47.02 -76 46 C-80.29 46 -84.58 46 -89 46 C-89 45.34 -89 44.68 -89 44 C-88.01 44 -87.02 44 -86 44 C-86 37.73 -86 31.46 -86 25 C-86.99 25 -87.98 25 -89 25 C-89 24.34 -89 23.68 -89 23 C-85.37 23 -81.74 23 -78 23 C-78 23.66 -78 24.32 -78 25 C-78.99 25 -79.98 25 -81 25 C-81 31.27 -81 37.54 -81 44 C-79.68 44 -78.36 44 -77 44 C-77 42.35 -77 40.7 -77 39 C-76.34 39 -75.68 39 -75 39 C-74.67 40.32 -74.34 41.64 -74 43 C-71.03 43.33 -68.06 43.66 -65 44 C-65 41.69 -65 39.38 -65 37 C-65.62648438 36.95101562 -66.25296875 36.90203125 -66.8984375 36.8515625 C-67.71570313 36.77679688 -68.53296875 36.70203125 -69.375 36.625 C-70.18710938 36.55539063 -70.99921875 36.48578125 -71.8359375 36.4140625 C-74 36 -74 36 -76 34 C-76.31712624 29.08454331 -76.28805642 26.35230594 -74 22 C-72.84999512 21.97494385 -71.69999023 21.9498877 -70.51513672 21.92407227 C-66.23231627 21.82961786 -61.94964368 21.72949124 -57.66699219 21.62768555 C-55.81644154 21.58448014 -53.96585471 21.54279542 -52.11523438 21.50268555 C-49.44910806 21.4446328 -46.7831614 21.38104076 -44.1171875 21.31640625 C-43.29507782 21.29969376 -42.47296814 21.28298126 -41.62594604 21.26576233 C-38.2005677 21.17821265 -35.0034197 21.00058871 -31.61767578 20.41772461 C-29 20 -29 20 -26 21 C-26 18.69 -26 16.38 -26 14 C-20.54873741 11.76108858 -15.86809507 10.52393706 -10 10 C-9.855625 9.236875 -9.71125 8.47375 -9.5625 7.6875 C-9 5 -9 5 -8 2 C-7.34 2 -6.68 2 -6 2 C-6 1.34 -6 0.68 -6 0 C-2.25 -1.125 -2.25 -1.125 0 0 Z " fill="#E9F8F4" transform="translate(106,108)"/>
<path d="M0 0 C2.3125 -0.3125 2.3125 -0.3125 5 0 C6.5625 2.3125 6.5625 2.3125 8 5 C11.775092 8.49361584 14.64232349 8.37691411 19.58203125 8.23828125 C22.33734244 7.96675624 24.55502091 7.30398885 27 6 C25.5341751 9.86444746 23.526449 11.01174362 20 13 C21.24910156 13.13535156 22.49820313 13.27070312 23.78515625 13.41015625 C53.9103991 17.00165188 81.27822079 27.55934429 104 48 C104 48.33 104 48.66 104 49 C89.48 49 74.96 49 60 49 C62.80395694 47.59802153 65.25782969 46.48189315 68.1875 45.5 C68.88230469 45.2628125 69.57710937 45.025625 70.29296875 44.78125 C74.15414545 43.66691329 78.07129989 42.83999883 82 42 C78.64692897 40.39353605 75.29234852 38.79024823 71.9375 37.1875 C70.99455078 36.73568359 70.05160156 36.28386719 69.08007812 35.81835938 C34.4952729 19.30923632 -3.79517179 17.32615593 -40 30 C-51.99821494 34.38615156 -63.51319043 39.63089057 -74 47 C-74.66 46.67 -75.32 46.34 -76 46 C-51.75345865 27.85297921 -24.69098074 15.05077982 6 13 C4.824375 12.38125 4.824375 12.38125 3.625 11.75 C0.85921572 9.90614381 -0.09845711 9.1554001 -1 6 C-0.625 2.75 -0.625 2.75 0 0 Z " fill="#0F8DC7" transform="translate(100,74)"/>
<path d="M0 0 C15.84 0 31.68 0 48 0 C48 0.66 48 1.32 48 2 C48.99 2 49.98 2 51 2 C51 3.65 51 5.3 51 7 C51.66 7 52.32 7 53 7 C53.495 8.98 53.495 8.98 54 11 C53.01 11 52.02 11 51 11 C51 17.6 51 24.2 51 31 C51.66 31.33 52.32 31.66 53 32 C49.7 32 46.4 32 43 32 C43 31.34 43 30.68 43 30 C43.99 30 44.98 30 46 30 C46 27.03 46 24.06 46 21 C42.7 21 39.4 21 36 21 C36 23.97 36 26.94 36 30 C36.99 30.33 37.98 30.66 39 31 C39 31.33 39 31.66 39 32 C31.74 32 24.48 32 17 32 C17 31.34 17 30.68 17 30 C17.66 30 18.32 30 19 30 C18.505 27.525 18.505 27.525 18 25 C15.03 25 12.06 25 9 25 C8.67 26.98 8.34 28.96 8 31 C8.66 31.33 9.32 31.66 10 32 C7.69 32 5.38 32 3 32 C3 31.34 3 30.68 3 30 C3.66 30 4.32 30 5 30 C5.02578125 29.04738281 5.0515625 28.09476563 5.078125 27.11328125 C5.13484375 25.85902344 5.1915625 24.60476562 5.25 23.3125 C5.29640625 22.07113281 5.3428125 20.82976562 5.390625 19.55078125 C6.07938567 15.53742579 7.31314793 13.97324134 10 11 C10.33 10.01 10.66 9.02 11 8 C11.66 8 12.32 8 13 8 C13 7.34 13 6.68 13 6 C9.7 5.67 6.4 5.34 3 5 C3 4.01 3 3.02 3 2 C2.01 2 1.02 2 0 2 C0 1.34 0 0.68 0 0 Z " fill="#E9F8F3" transform="translate(157,122)"/>
<path d="M0 0 C1.859375 0.19140625 1.859375 0.19140625 4 1 C5.265625 3.21484375 5.265625 3.21484375 6.25 5.9375 C6.58515625 6.83339844 6.9203125 7.72929687 7.265625 8.65234375 C8 11 8 11 8 13 C8.99 13 9.98 13 11 13 C11.66 14.65 12.32 16.3 13 18 C13.66 18 14.32 18 15 18 C15 16.35 15 14.7 15 13 C15.66 13 16.32 13 17 13 C16.87625 11.72125 16.7525 10.4425 16.625 9.125 C16.55539063 8.40570313 16.48578125 7.68640625 16.4140625 6.9453125 C16.13625251 4.77331755 16.13625251 4.77331755 14 3 C14.33 2.01 14.66 1.02 15 0 C17.97 0 20.94 0 24 0 C25.00696568 2.10084209 26.0053589 4.20579489 27 6.3125 C27.556875 7.48425781 28.11375 8.65601563 28.6875 9.86328125 C30 13 30 13 30 16 C30.66 16 31.32 16 32 16 C32.17015625 15.43152344 32.3403125 14.86304688 32.515625 14.27734375 C34.15067737 9.0677886 36.13309172 4.64636859 39 0 C41.31 0 43.62 0 46 0 C46 0.66 46 1.32 46 2 C45.34 2 44.68 2 44 2 C44 8.6 44 15.2 44 22 C44.66 22.33 45.32 22.66 46 23 C42.7 23 39.4 23 36 23 C36.33 22.34 36.66 21.68 37 21 C37.66 21 38.32 21 39 21 C38.67 16.71 38.34 12.42 38 8 C34.53764245 14.14181576 34.53764245 14.14181576 34 21 C33.48708406 23.99200963 33.2069098 24.7930902 31 27 C30.01 27 29.02 27 28 27 C28 27.66 28 28.32 28 29 C26 28 26 28 25 27 C19.44764367 25.94213913 19.44764367 25.94213913 14 27 C13.67 26.01 13.34 25.02 13 24 C9.7 24 6.4 24 3 24 C3 23.34 3 22.68 3 22 C2.01 22.2475 2.01 22.2475 1 22.5 C-2.73099794 23.12183299 -6.21873378 23.06408926 -10 23 C-10 22.34 -10 21.68 -10 21 C-9.34 21 -8.68 21 -8 21 C-7.608125 19.7625 -7.21625 18.525 -6.8125 17.25 C-4.86118823 11.36792078 -2.43753821 5.69401218 0 0 Z " fill="#E2F4E8" transform="translate(111,131)"/>
<path d="M0 0 C3.63 0 7.26 0 11 0 C11 0.66 11 1.32 11 2 C10.01 2 9.02 2 8 2 C8 8.27 8 14.54 8 21 C9.32 21 10.64 21 12 21 C12 19.35 12 17.7 12 16 C12.66 16 13.32 16 14 16 C14.33 17.32 14.66 18.64 15 20 C17.97 20.33 20.94 20.66 24 21 C24 18.69 24 16.38 24 14 C23.37351562 13.95101562 22.74703125 13.90203125 22.1015625 13.8515625 C21.28429687 13.77679688 20.46703125 13.70203125 19.625 13.625 C18.81289063 13.55539063 18.00078125 13.48578125 17.1640625 13.4140625 C15 13 15 13 13 11 C12.4587156 5.31651376 12.4587156 5.31651376 13 3 C15.47927595 0.4381075 16.8917019 0.01058844 20.48339844 -0.34057617 C21.85881543 -0.34010423 23.23429315 -0.32333368 24.609375 -0.29296875 C25.33618469 -0.28872391 26.06299438 -0.28447906 26.81182861 -0.28010559 C29.12493504 -0.2633613 31.43715855 -0.22571885 33.75 -0.1875 C35.32160197 -0.17244758 36.89321764 -0.15876015 38.46484375 -0.14648438 C42.31023415 -0.11347195 46.15496756 -0.06172056 50 0 C50 1.98 50 3.96 50 6 C49.34 6 48.68 6 48 6 C48 5.01 48 4.02 48 3 C46.02 3 44.04 3 42 3 C42 9.27 42 15.54 42 22 C42.66 22.33 43.32 22.66 44 23 C40.7 23 37.4 23 34 23 C34.66 22.34 35.32 21.68 36 21 C36.36894582 18.96939341 36.36894582 18.96939341 36.4140625 16.6484375 C36.45273437 15.79765625 36.49140625 14.946875 36.53125 14.0703125 C36.5621875 13.18085938 36.593125 12.29140625 36.625 11.375 C36.66367187 10.4778125 36.70234375 9.580625 36.7421875 8.65625 C36.83659357 6.4377073 36.92216748 4.21917597 37 2 C35.02 2 33.04 2 31 2 C31.061875 2.928125 31.12375 3.85625 31.1875 4.8125 C31 8 31 8 29.5 9.875 C29.005 10.24625 28.51 10.6175 28 11 C28.99 11.33 29.98 11.66 31 12 C30.67 14.64 30.34 17.28 30 20 C29.34 20 28.68 20 28 20 C27.896875 20.639375 27.79375 21.27875 27.6875 21.9375 C27.460625 22.618125 27.23375 23.29875 27 24 C23.52674819 25.1577506 20.63932552 25.06866652 17 25 C17.33 25.66 17.66 26.32 18 27 C20.97 27 23.94 27 27 27 C27 30.3 27 33.6 27 37 C25.35 37 23.7 37 22 37 C22 36.01 22 35.02 22 34 C20.68 34 19.36 34 18 34 C18 34.66 18 35.32 18 36 C17.01 36 16.02 36 15 36 C15 35.01 15 34.02 15 33 C13.68 33 12.36 33 11 33 C11 33.99 11 34.98 11 36 C10.34 36 9.68 36 9 36 C8.67 33.69 8.34 31.38 8 29 C7.01 30.98 6.02 32.96 5 35 C3.22293791 32.33440687 2.12451727 29.9719385 1 27 C1.66 27 2.32 27 3 27 C3.66 27.66 4.32 28.32 5 29 C5.33 28.34 5.66 27.68 6 27 C8.32156597 26.59270772 10.6568787 26.25561323 13 26 C13 25.01 13 24.02 13 23 C8.71 23 4.42 23 0 23 C0 22.34 0 21.68 0 21 C0.99 21 1.98 21 3 21 C3 14.73 3 8.46 3 2 C2.01 2 1.02 2 0 2 C0 1.34 0 0.68 0 0 Z " fill="#BEE2CF" transform="translate(17,131)"/>
<path d="M0 0 C0 0.66 0 1.32 0 2 C-0.66 2 -1.32 2 -2 2 C-1.34 4.97 -0.68 7.94 0 11 C2.64 11 5.28 11 8 11 C6.625 13 6.625 13 5 15 C4.34 15 3.68 15 3 15 C3.66 18.63 4.32 22.26 5 26 C0.74168836 28.83887443 -3.0037447 28.88302397 -8 28 C-10.82173682 26.41962797 -13.07949818 24.61366308 -15 22 C-15 21.01 -15 20.02 -15 19 C-15.66 19 -16.32 19 -17 19 C-17.33 19.66 -17.66 20.32 -18 21 C-18 20.34 -18 19.68 -18 19 C-18.66 19 -19.32 19 -20 19 C-20 21.64 -20 24.28 -20 27 C-22 26 -22 26 -23.10546875 23.78125 C-24.85234637 18.34990997 -24.99357785 12.33490796 -22.75 7.0625 C-17.1178104 0.42456226 -8.81190878 -4.40595439 0 0 Z " fill="#E2F5F6" transform="translate(120,55)"/>
<path d="M0 0 C2.74541398 1.87491686 3.36900006 2.73912514 4.5625 5.75 C5.14153708 9.95365883 4.98661894 13.66614049 3.4375 17.625 C1.11976392 20.25176755 -1.23370598 21.39728697 -4.4375 22.75 C-1.1375 23.41 2.1625 24.07 5.5625 24.75 C4.5725 25.74 3.5825 26.73 2.5625 27.75 C0.22265625 27.67578125 0.22265625 27.67578125 -2.375 27.0625 C-3.65697266 26.77826172 -3.65697266 26.77826172 -4.96484375 26.48828125 C-7.30141991 25.79063055 -9.30125081 24.91477624 -11.4375 23.75 C-11.1075 23.42 -10.7775 23.09 -10.4375 22.75 C-11.365625 22.3375 -12.29375 21.925 -13.25 21.5 C-16.449575 19.74337059 -17.59865554 18.80389213 -19.4375 15.75 C-20.19230318 11.19898082 -19.96137164 7.00729193 -18.1875 2.75 C-13.38672168 -2.7366038 -6.4038105 -2.32865836 0 0 Z " fill="#22884A" transform="translate(98.4375,132.25)"/>
<path d="M0 0 C3 1 3 1 4.07495117 2.73413086 C4.39439697 3.47026611 4.71384277 4.20640137 5.04296875 4.96484375 C5.39423828 5.76470703 5.74550781 6.56457031 6.10742188 7.38867188 C6.46384766 8.22978516 6.82027344 9.07089844 7.1875 9.9375 C7.55552734 10.77474609 7.92355469 11.61199219 8.30273438 12.47460938 C11 18.69483418 11 18.69483418 11 21 C12.65 21 14.3 21 16 21 C16.33 14.73 16.66 8.46 17 2 C16.01 2 15.02 2 14 2 C14 1.34 14 0.68 14 0 C17.63 0 21.26 0 25 0 C25 0.66 25 1.32 25 2 C24.01 2 23.02 2 22 2 C22 4.64 22 7.28 22 10 C25.3 10 28.6 10 32 10 C32 7.36 32 4.72 32 2 C31.01 2 30.02 2 29 2 C29 1.34 29 0.68 29 0 C32.63 0 36.26 0 40 0 C40 0.66 40 1.32 40 2 C39.01 2 38.02 2 37 2 C37 8.6 37 15.2 37 22 C37.66 22.33 38.32 22.66 39 23 C35.7 23 32.4 23 29 23 C29 22.34 29 21.68 29 21 C29.99 21 30.98 21 32 21 C32 18.03 32 15.06 32 12 C28.7 12 25.4 12 22 12 C22 14.97 22 17.94 22 21 C22.99 21.33 23.98 21.66 25 22 C25 22.33 25 22.66 25 23 C17.74 23 10.48 23 3 23 C3 22.34 3 21.68 3 21 C3.66 21 4.32 21 5 21 C4.67 19.35 4.34 17.7 4 16 C1.03 16 -1.94 16 -5 16 C-5.33 17.98 -5.66 19.96 -6 22 C-5.34 22.33 -4.68 22.66 -4 23 C-6.31 23 -8.62 23 -11 23 C-11 22.34 -11 21.68 -11 21 C-10.54189941 20.5457666 -10.08379883 20.0915332 -9.61181641 19.62353516 C-7.82412491 17.82284621 -7.13414327 16.37286727 -6.2109375 14.0234375 C-5.75847656 12.89421875 -5.75847656 12.89421875 -5.296875 11.7421875 C-4.99265625 10.96101562 -4.6884375 10.17984375 -4.375 9.375 C-3.75990943 7.81948169 -3.14282639 6.26474928 -2.5234375 4.7109375 C-2.25450684 4.02306152 -1.98557617 3.33518555 -1.70849609 2.62646484 C-1 1 -1 1 0 0 Z " fill="#1B8842" transform="translate(171,131)"/>
<path d="M0 0 C1.81325551 0.11351517 3.62563357 0.24112961 5.4375 0.375 C6.44683594 0.44460937 7.45617187 0.51421875 8.49609375 0.5859375 C9.73552734 0.79089844 9.73552734 0.79089844 11 1 C11.495 1.99 11.495 1.99 12 3 C13.89533342 3.46523063 13.89533342 3.46523063 16.0625 3.625 C17.361875 3.74875 18.66125 3.8725 20 4 C19.67 4.66 19.34 5.32 19 6 C14.38 6 9.76 6 5 6 C4.34 7.32 3.68 8.64 3 10 C2.46375 10.70125 1.9275 11.4025 1.375 12.125 C-0.663364 16.38703382 -0.82371815 20.36277189 0 25 C2.53555106 28.38073474 5.0914872 30.40764294 9 32 C8.67 32.33 8.34 32.66 8 33 C9.55966218 33.508783 11.12289241 34.00663469 12.6875 34.5 C13.55761719 34.7784375 14.42773438 35.056875 15.32421875 35.34375 C17.99391677 35.99850805 20.26396684 36.11831495 23 36 C23.33 36.66 23.66 37.32 24 38 C21.22882696 37.85919445 18.45817359 37.71256882 15.6875 37.5625 C14.90181641 37.52318359 14.11613281 37.48386719 13.30664062 37.44335938 C12.1706543 37.38051758 12.1706543 37.38051758 11.01171875 37.31640625 C10.31522217 37.27974854 9.61872559 37.24309082 8.90112305 37.20532227 C7 37 7 37 4 36 C3.505 34.02 3.505 34.02 3 32 C-1.95 31.67 -6.9 31.34 -12 31 C-12 30.34 -12 29.68 -12 29 C-11.34 29 -10.68 29 -10 29 C-10 23.06 -10 17.12 -10 11 C-10.99 11.33 -11.98 11.66 -13 12 C-13 10.68 -13 9.36 -13 8 C-30.325 8.495 -30.325 8.495 -48 9 C-48 8.34 -48 7.68 -48 7 C-46.84999512 6.97494385 -45.69999023 6.9498877 -44.51513672 6.92407227 C-40.23231627 6.82961786 -35.94964368 6.72949124 -31.66699219 6.62768555 C-29.81644154 6.58448014 -27.96585471 6.54279542 -26.11523438 6.50268555 C-23.44910806 6.4446328 -20.7831614 6.38104076 -18.1171875 6.31640625 C-17.29507782 6.29969376 -16.47296814 6.28298126 -15.62594604 6.26576233 C-12.2005677 6.17821265 -9.0034197 6.00058871 -5.61767578 5.41772461 C-3 5 -3 5 0 6 C0 4.02 0 2.04 0 0 Z " fill="#F0F9F8" transform="translate(80,123)"/>
<path d="M0 0 C1.98 0 3.96 0 6 0 C6.02888514 3.14581423 6.04675923 6.29159469 6.0625 9.4375 C6.07087891 10.33533203 6.07925781 11.23316406 6.08789062 12.15820312 C6.09272461 13.43920898 6.09272461 13.43920898 6.09765625 14.74609375 C6.10551147 15.93223267 6.10551147 15.93223267 6.11352539 17.14233398 C6 19 6 19 5 20 C8.34252724 20.07427838 10.8035914 20.06546953 14 19 C14.33 19.99 14.66 20.98 15 22 C15.66 22.66 16.32 23.32 17 24 C16.34 24 15.68 24 15 24 C13.68776504 27.93670488 14.75703744 30.12488144 16 34 C13.24921116 34.91692961 11.64051087 35.10886083 8.8125 35.0625 C7.554375 35.041875 6.29625 35.02125 5 35 C4.67 32.69 4.34 30.38 4 28 C3.34 28 2.68 28 2 28 C2 30.31 2 32.62 2 35 C0.02 34.67 -1.96 34.34 -4 34 C-4 31.03 -4 28.06 -4 25 C-8.95 25.495 -8.95 25.495 -14 26 C-14 24.68 -14 23.36 -14 22 C-11.98177083 22.03255208 -9.96354167 22.06510417 -7.9453125 22.09765625 C-5.91814596 22.12649242 -5.91814596 22.12649242 -4 21 C-3.67 20.01 -3.34 19.02 -3 18 C-2.34 18 -1.68 18 -1 18 C-1 15.36 -1 12.72 -1 10 C-1.66 9.67 -2.32 9.34 -3 9 C-2.67 8.01 -2.34 7.02 -2 6 C-1.34 6 -0.68 6 0 6 C0 4.02 0 2.04 0 0 Z " fill="#F3FBF8" transform="translate(48,133)"/>
<path d="M0 0 C2.12534659 0.14069196 4.25027529 0.28770921 6.375 0.4375 C8.15003906 0.55931641 8.15003906 0.55931641 9.9609375 0.68359375 C13 1 13 1 15 2 C21.04143858 2.43426831 27.01302309 1.76025104 33 1 C32.67 1.66 32.34 2.32 32 3 C30.68 3 29.36 3 28 3 C28.185625 3.639375 28.37125 4.27875 28.5625 4.9375 C28.706875 5.618125 28.85125 6.29875 29 7 C28.67 7.33 28.34 7.66 28 8 C28.2475 9.6396875 28.2475 9.6396875 28.5 11.3125 C28.94396816 14.58676521 28.90500057 15.98554956 28 19 C27.51080078 17.71802734 27.51080078 17.71802734 27.01171875 16.41015625 C26.57472656 15.30542969 26.13773438 14.20070312 25.6875 13.0625 C25.25824219 11.96035156 24.82898438 10.85820312 24.38671875 9.72265625 C23.24391139 6.69139735 23.24391139 6.69139735 20 6 C19.90847656 6.65355469 19.81695312 7.30710938 19.72265625 7.98046875 C18.76308939 11.98990219 17.12924389 15.56386353 15.4375 19.3125 C15.10814453 20.05306641 14.77878906 20.79363281 14.43945312 21.55664062 C13.63082877 23.37311562 12.81602884 25.18683931 12 27 C11.34 27 10.68 27 10 27 C10 27.66 10 28.32 10 29 C12.31 29 14.62 29 17 29 C17.33 30.32 17.66 31.64 18 33 C15.03 33.495 15.03 33.495 12 34 C12 33.67 12 33.34 12 33 C11.06027344 32.81824219 11.06027344 32.81824219 10.1015625 32.6328125 C9.28429687 32.46523437 8.46703125 32.29765625 7.625 32.125 C6.81289062 31.96257812 6.00078125 31.80015625 5.1640625 31.6328125 C3 31 3 31 1 29 C2.27875 28.773125 3.5575 28.54625 4.875 28.3125 C8.23752993 27.48942795 8.23752993 27.48942795 10.5 24.9375 C11.41616428 19.55503487 12.29188315 13.68994196 9 9 C5.36242899 7.00216307 2.28885391 6.77617219 -1.8125 6.875 C-2.78832031 6.89304688 -3.76414062 6.91109375 -4.76953125 6.9296875 C-5.50558594 6.95289063 -6.24164063 6.97609375 -7 7 C-6.67 6.01 -6.34 5.02 -6 4 C-2.85069107 2.95023036 -0.61185544 2.89868405 2.6875 2.9375 C3.68136719 2.94652344 4.67523438 2.95554687 5.69921875 2.96484375 C6.83810547 2.98224609 6.83810547 2.98224609 8 3 C6.865625 2.87625 5.73125 2.7525 4.5625 2.625 C3.386875 2.41875 2.21125 2.2125 1 2 C0.67 1.34 0.34 0.68 0 0 Z " fill="#E0F7F1" transform="translate(91,125)"/>
<path d="M0 0 C2.64 0 5.28 0 8 0 C9.00696568 2.10084209 10.0053589 4.20579489 11 6.3125 C11.556875 7.48425781 12.11375 8.65601563 12.6875 9.86328125 C14 13 14 13 14 16 C14.66 16 15.32 16 16 16 C16.17015625 15.43152344 16.3403125 14.86304688 16.515625 14.27734375 C18.15067737 9.0677886 20.13309172 4.64636859 23 0 C25.31 0 27.62 0 30 0 C30 0.66 30 1.32 30 2 C29.34 2 28.68 2 28 2 C28 8.6 28 15.2 28 22 C28.66 22.33 29.32 22.66 30 23 C26.7 23 23.4 23 20 23 C20.33 22.34 20.66 21.68 21 21 C21.66 21 22.32 21 23 21 C22.505 14.565 22.505 14.565 22 8 C19.36 12.95 16.72 17.9 14 23 C10.89330896 19.1166362 9.15259638 16.57404165 7.25 12.1875 C6.82203125 11.21167969 6.3940625 10.23585937 5.953125 9.23046875 C5.63859375 8.49441406 5.3240625 7.75835937 5 7 C4.94615479 9.29141286 4.90727913 11.58318188 4.875 13.875 C4.84019531 15.78925781 4.84019531 15.78925781 4.8046875 17.7421875 C4.64358476 21.08593338 4.64358476 21.08593338 7 23 C4.69 23 2.38 23 0 23 C0.33 22.34 0.66 21.68 1 21 C1.15067214 19.5534758 1.24861036 18.1012066 1.31640625 16.6484375 C1.35830078 15.79765625 1.40019531 14.946875 1.44335938 14.0703125 C1.48267578 13.18085938 1.52199219 12.29140625 1.5625 11.375 C1.60568359 10.4778125 1.64886719 9.580625 1.69335938 8.65625 C1.79956861 6.43765717 1.90161194 4.2189512 2 2 C1.34 2 0.68 2 0 2 C0 1.34 0 0.68 0 0 Z " fill="#2D854E" transform="translate(127,131)"/>
<path d="M0 0 C8.25 0 16.5 0 25 0 C25 1.98 25 3.96 25 6 C24.34 6 23.68 6 23 6 C23 5.01 23 4.02 23 3 C21.02 3 19.04 3 17 3 C17 9.27 17 15.54 17 22 C17.66 22.33 18.32 22.66 19 23 C15.7 23 12.4 23 9 23 C9.66 22.34 10.32 21.68 11 21 C11.36894582 18.96939341 11.36894582 18.96939341 11.4140625 16.6484375 C11.45273437 15.79765625 11.49140625 14.946875 11.53125 14.0703125 C11.5621875 13.18085938 11.593125 12.29140625 11.625 11.375 C11.66367187 10.4778125 11.70234375 9.580625 11.7421875 8.65625 C11.83659357 6.4377073 11.92216748 4.21917597 12 2 C10.02 2 8.04 2 6 2 C6.061875 2.928125 6.12375 3.85625 6.1875 4.8125 C6 8 6 8 4.5 9.875 C4.005 10.24625 3.51 10.6175 3 11 C3.99 11.33 4.98 11.66 6 12 C5.67 14.64 5.34 17.28 5 20 C4.34 20 3.68 20 3 20 C3.33 17.36 3.66 14.72 4 12 C3.22914062 11.80664062 2.45828125 11.61328125 1.6640625 11.4140625 C0.66117188 11.15367187 -0.34171875 10.89328125 -1.375 10.625 C-2.37273438 10.36976563 -3.37046875 10.11453125 -4.3984375 9.8515625 C-7 9 -7 9 -9 7 C-8.46428571 3.46428571 -8.46428571 3.46428571 -7 2 C-3.5 1.875 -3.5 1.875 0 2 C0.33 2.33 0.66 2.66 1 3 C1.33 2.34 1.66 1.68 2 1 C1.34 0.67 0.68 0.34 0 0 Z " fill="#A6D3B7" transform="translate(42,131)"/>
<path d="M0 0 C-0.33 0.66 -0.66 1.32 -1 2 C-2.19882813 1.94779297 -2.19882813 1.94779297 -3.421875 1.89453125 C-10.46286011 1.72098584 -16.56610556 2.31893386 -23.34375 4.24609375 C-25.88270466 4.96670882 -28.40673756 5.51611226 -31 6 C-30.01 6.99 -29.02 7.98 -28 9 C-29.86978516 9.52787109 -29.86978516 9.52787109 -31.77734375 10.06640625 C-49.54282299 15.17786515 -66.75166138 21.28495124 -82 32 C-82.66 31.67 -83.32 31.34 -84 31 C-66.18994383 17.67028608 -47.73046374 7.47207804 -26 2 C-24.74316406 1.6596875 -24.74316406 1.6596875 -23.4609375 1.3125 C-15.73448455 -0.54805054 -7.89168904 -0.17624119 0 0 Z " fill="#1C8CB9" transform="translate(108,89)"/>
<path d="M0 0 C2.1953125 1.15234375 2.1953125 1.15234375 4 3 C4.49609375 5.77734375 4.49609375 5.77734375 4.4375 8.9375 C4.43621094 9.97777344 4.43492188 11.01804688 4.43359375 12.08984375 C3.95145728 15.32580474 3.35198441 16.74401495 1 19 C-0.9375 19.53125 -0.9375 19.53125 -3 19.5 C-3.680625 19.5103125 -4.36125 19.520625 -5.0625 19.53125 C-7 19 -7 19 -8.7265625 17.34765625 C-10.33412637 14.38401857 -10.39997441 12.29655829 -10.375 8.9375 C-10.38273437 7.89464844 -10.39046875 6.85179687 -10.3984375 5.77734375 C-10 3 -10 3 -8.69140625 1.15234375 C-5.83783217 -0.79177716 -3.33416217 -0.35096444 0 0 Z " fill="#F4FBF7" transform="translate(94,133)"/>
<path d="M0 0 C1.98 0 3.96 0 6 0 C6 0.99 6 1.98 6 3 C6.66 3 7.32 3 8 3 C8.33 2.01 8.66 1.02 9 0 C9.66 0 10.32 0 11 0 C11 5.94 11 11.88 11 18 C10.34 18 9.68 18 9 18 C9 18.66 9 19.32 9 20 C12.3 20 15.6 20 19 20 C15.23283399 21.88358301 12.12633637 23.20368947 8 24 C5.0625 22.8125 5.0625 22.8125 3 21 C3 20.01 3 19.02 3 18 C2.01 18 1.02 18 0 18 C0 12.06 0 6.12 0 0 Z " fill="#EEFBF4" transform="translate(59,134)"/>
<path d="M0 0 C1.87060547 0.22485352 1.87060547 0.22485352 4 1 C5.15673828 2.91772461 5.15673828 2.91772461 6.0703125 5.40234375 C6.40933594 6.29244141 6.74835938 7.18253906 7.09765625 8.09960938 C7.43667969 9.03611328 7.77570313 9.97261719 8.125 10.9375 C8.81064739 12.7816111 9.50055825 14.62414426 10.1953125 16.46484375 C10.49453613 17.285896 10.79375977 18.10694824 11.10205078 18.95288086 C11.92591663 21.1682554 11.92591663 21.1682554 14 23 C10.7 23 7.4 23 4 23 C4.66 22.67 5.32 22.34 6 22 C5.67 20.02 5.34 18.04 5 16 C2.03 16.33 -0.94 16.66 -4 17 C-4.33 18.32 -4.66 19.64 -5 21 C-4.34 21 -3.68 21 -3 21 C-3 21.66 -3 22.32 -3 23 C-5.31 23 -7.62 23 -10 23 C-10 22.34 -10 21.68 -10 21 C-9.34 21 -8.68 21 -8 21 C-7.608125 19.7625 -7.21625 18.525 -6.8125 17.25 C-4.86118823 11.36792078 -2.43753821 5.69401218 0 0 Z " fill="#11863D" transform="translate(111,131)"/>
<path d="M0 0 C0.97710937 -0.01417969 1.95421875 -0.02835937 2.9609375 -0.04296875 C5.71256786 0.19507552 7.22712291 0.89852133 9.625 2.1875 C8.57372925 2.36140259 8.57372925 2.36140259 7.5012207 2.53881836 C4.31317089 3.0666866 1.12533408 3.59583053 -2.0625 4.125 C-3.71668945 4.39860352 -3.71668945 4.39860352 -5.40429688 4.67773438 C-6.47099609 4.85498047 -7.53769531 5.03222656 -8.63671875 5.21484375 C-10.10564575 5.45835571 -10.10564575 5.45835571 -11.60424805 5.70678711 C-13.44135067 6.02551608 -15.2743444 6.36897917 -17.10205078 6.73779297 C-23.42656167 7.98910866 -29.51155696 7.14587349 -35.73828125 5.7578125 C-39.5406475 4.93537476 -43.3801708 4.35358818 -47.22265625 3.75 C-47.93292969 3.564375 -48.64320312 3.37875 -49.375 3.1875 C-49.705 2.5275 -50.035 1.8675 -50.375 1.1875 C-49.39740723 1.19273682 -48.41981445 1.19797363 -47.41259766 1.20336914 C-43.74105771 1.22164501 -40.06952168 1.23301349 -36.39794922 1.24243164 C-34.81721314 1.24742073 -33.23648159 1.25421438 -31.65576172 1.26293945 C-19.99884643 1.32734932 -19.99884643 1.32734932 -8.38330078 0.42114258 C-5.58681935 0.09580429 -2.81366997 0.01885838 0 0 Z " fill="#55B9DE" transform="translate(134.375,120.8125)"/>
<path d="M0 0 C1.89983819 -0.14126263 3.79580836 -0.33701605 5.6875 -0.5625 C10.75592153 -1.05043468 14.2734125 -0.82618154 19 1 C19 1.66 19 2.32 19 3 C18.01 3 17.02 3 16 3 C16 4.98 16 6.96 16 9 C15.67 9 15.34 9 15 9 C15 7.02 15 5.04 15 3 C14.01 3 13.02 3 12 3 C11.67 5.31 11.34 7.62 11 10 C10.34 10 9.68 10 9 10 C9 9.34 9 8.68 9 8 C8.01 8.66 7.02 9.32 6 10 C3.08203125 10.1953125 3.08203125 10.1953125 -0.1875 10.125 C-1.27417969 10.10695313 -2.36085938 10.08890625 -3.48046875 10.0703125 C-4.72763672 10.03550781 -4.72763672 10.03550781 -6 10 C-6 9.01 -6 8.02 -6 7 C-5.01 7 -4.02 7 -3 7 C-4.32 6.34 -5.64 5.68 -7 5 C-6.67 3.35 -6.34 1.7 -6 0 C-2.25 -1.125 -2.25 -1.125 0 0 Z " fill="#D7F5E4" transform="translate(106,108)"/>
<path d="M0 0 C0.66 0.66 1.32 1.32 2 2 C1.40832031 2.10957031 0.81664063 2.21914063 0.20703125 2.33203125 C-0.97826172 2.56986328 -0.97826172 2.56986328 -2.1875 2.8125 C-2.96480469 2.96332031 -3.74210937 3.11414062 -4.54296875 3.26953125 C-7.52629649 4.15646652 -9.56543371 5.03394131 -12 7 C-12.96258656 10.10197546 -12.96258656 10.10197546 -13.1875 13.5625 C-13.82258065 19.82258065 -13.82258065 19.82258065 -16 22 C-16 21.34 -16 20.68 -16 20 C-16.66 20 -17.32 20 -18 20 C-18 22.64 -18 25.28 -18 28 C-20 27 -20 27 -21.10546875 24.78125 C-22.85234637 19.34990997 -22.99357785 13.33490796 -20.75 8.0625 C-14.69556504 0.92691594 -9.40394391 -1.1318021 0 0 Z " fill="#8ECBE3" transform="translate(118,54)"/>
<path d="M0 0 C13.81877396 1.85542656 25.77300565 7.63902993 38 14 C38 14.33 38 14.66 38 15 C34.37 15 30.74 15 27 15 C28.258125 15.45375 29.51625 15.9075 30.8125 16.375 C33.58850813 17.37618326 35.49751135 18.33167423 38 20 C38 20.99 38 21.98 38 23 C33.32946228 21.55350065 28.96352358 19.67123052 24.5625 17.5625 C14.78351347 12.88530666 14.78351347 12.88530666 4.5625 9.3125 C3.69753906 9.06113281 2.83257812 8.80976562 1.94140625 8.55078125 C1.30074219 8.36902344 0.66007813 8.18726562 0 8 C3.62910193 6.70697081 6.03945963 7.31322056 9.6875 8.375 C10.66074219 8.65085937 11.63398438 8.92671875 12.63671875 9.2109375 C15 10 15 10 16 11 C21.57902606 12.02243794 21.57902606 12.02243794 27 11 C26.39671875 10.87882812 25.7934375 10.75765625 25.171875 10.6328125 C24.37265625 10.46523437 23.5734375 10.29765625 22.75 10.125 C21.96109375 9.96257812 21.1721875 9.80015625 20.359375 9.6328125 C16.75871202 8.66707177 14.09806217 7.06537478 11 5 C8.70577466 4.18209435 6.38989767 3.48561769 4.05859375 2.78125 C2 2 2 2 0 0 Z " fill="#1490CA" transform="translate(144,92)"/>
<path d="M0 0 C0.66 0.33 1.32 0.66 2 1 C2.40729228 3.32156597 2.74438677 5.6568787 3 8 C5.64 8 8.28 8 11 8 C9.625 10 9.625 10 8 12 C7.34 12 6.68 12 6 12 C6.66 15.3 7.32 18.6 8 22 C7.01 21.67 6.02 21.34 5 21 C5 20.34 5 19.68 5 19 C1.2983569 18.05306805 -0.39112465 17.69556233 -3.875 19.4375 C-4.57625 19.953125 -5.2775 20.46875 -6 21 C-5.67 18.36 -5.34 15.72 -5 13 C-5.66 12.54625 -6.32 12.0925 -7 11.625 C-7.66 11.08875 -8.32 10.5525 -9 10 C-9 9.34 -9 8.68 -9 8 C-6.69 8 -4.38 8 -2 8 C-1.7834375 6.576875 -1.7834375 6.576875 -1.5625 5.125 C-1 2 -1 2 0 0 Z " fill="#74BCDB" transform="translate(117,58)"/>
<path d="M0 0 C2.3125 -0.3125 2.3125 -0.3125 5 0 C6.5625 2.3125 6.5625 2.3125 8 5 C11.775092 8.49361584 14.64232349 8.37691411 19.58203125 8.23828125 C22.33734244 7.96675624 24.55502091 7.30398885 27 6 C25.54744301 9.82946843 23.57104439 11.12050295 20 13 C22.64 13.33 25.28 13.66 28 14 C28 14.33 28 14.66 28 15 C26.56589632 15.24954005 25.12739928 15.47392642 23.6875 15.6875 C22.48673828 15.87892578 22.48673828 15.87892578 21.26171875 16.07421875 C19 16 19 16 17.20703125 14.51953125 C16.80871094 14.01808594 16.41039063 13.51664063 16 13 C16.33 12.34 16.66 11.68 17 11 C13.78099939 11.35766673 12.38227466 11.55736619 10.21875 14.0625 C8 16 8 16 4.984375 16.171875 C3.38335937 15.96304688 3.38335937 15.96304688 1.75 15.75 C0.67234375 15.62109375 -0.4053125 15.4921875 -1.515625 15.359375 C-2.33546875 15.24078125 -3.1553125 15.1221875 -4 15 C-4 14.67 -4 14.34 -4 14 C-0.7 13.67 2.6 13.34 6 13 C4.824375 12.38125 4.824375 12.38125 3.625 11.75 C0.85921572 9.90614381 -0.09845711 9.1554001 -1 6 C-0.625 2.75 -0.625 2.75 0 0 Z " fill="#13A0CC" transform="translate(100,74)"/>
<path d="M0 0 C2.31 0 4.62 0 7 0 C7.2475 0.639375 7.495 1.27875 7.75 1.9375 C8.81562433 4.18741541 8.81562433 4.18741541 11.125 4.75 C11.74375 4.8325 12.3625 4.915 13 5 C12.67 5.66 12.34 6.32 12 7 C11.34 6.67 10.68 6.34 10 6 C10 6.66 10 7.32 10 8 C9.01193359 8.0501123 8.02386719 8.10022461 7.00585938 8.15185547 C3.30782331 8.34151147 -0.38959172 8.54157057 -4.08691406 8.74462891 C-5.68116635 8.83076111 -7.27556972 8.91414598 -8.87011719 8.99462891 C-11.17428952 9.11142362 -13.47772092 9.23839185 -15.78125 9.3671875 C-16.48366821 9.40061249 -17.18608643 9.43403748 -17.90979004 9.46847534 C-21.5338064 9.68103722 -24.84572577 10.15204922 -28.35742188 11.09423828 C-32 12 -32 12 -34.5 11.125 C-34.995 10.75375 -35.49 10.3825 -36 10 C-24.05699038 6.18840119 -13.5382889 4.69908107 -1 5 C-0.67 3.35 -0.34 1.7 0 0 Z " fill="#0591D5" transform="translate(110,85)"/>
<path d="M0 0 C0.66 0.33 1.32 0.66 2 1 C2 2.65 2 4.3 2 6 C1.34 5.01 0.68 4.02 0 3 C-3.58357241 2.74984127 -3.58357241 2.74984127 -7 3 C-7.33 4.32 -7.66 5.64 -8 7 C-7.30132812 7.27714844 -6.60265625 7.55429688 -5.8828125 7.83984375 C-4.97273438 8.20207031 -4.06265625 8.56429687 -3.125 8.9375 C-2.22007813 9.29714844 -1.31515625 9.65679687 -0.3828125 10.02734375 C2 11 2 11 4 12 C4.45291114 15.89503578 4.28517401 17.57683856 2.0625 20.875 C-1.99601522 23.6911126 -5.19265548 23.66112793 -10 23 C-10.66 22.67 -11.32 22.34 -12 22 C-12 20.02 -12 18.04 -12 16 C-11.76539062 16.64453125 -11.53078125 17.2890625 -11.2890625 17.953125 C-10.18838927 20.2077908 -10.18838927 20.2077908 -7.8359375 20.609375 C-6.61777344 20.67898437 -6.61777344 20.67898437 -5.375 20.75 C-4.55773438 20.80671875 -3.74046875 20.8634375 -2.8984375 20.921875 C-1.95871094 20.96054688 -1.95871094 20.96054688 -1 21 C-1 18.69 -1 16.38 -1 14 C-1.62648438 13.95101562 -2.25296875 13.90203125 -2.8984375 13.8515625 C-4.12433594 13.73941406 -4.12433594 13.73941406 -5.375 13.625 C-6.18710937 13.55539063 -6.99921875 13.48578125 -7.8359375 13.4140625 C-10 13 -10 13 -12 11 C-12.67605634 3.90140845 -12.67605634 3.90140845 -10.5 1 C-6.82993959 -0.46802416 -3.9490882 -0.25477988 0 0 Z " fill="#1C8945" transform="translate(42,131)"/>
<path d="M0 0 C0.99 0.33 1.98 0.66 3 1 C2.67 1.33 2.34 1.66 2 2 C1.92851801 3.35243917 1.91600546 4.70834367 1.9375 6.0625 C1.958125 7.361875 1.97875 8.66125 2 10 C3.093125 10.309375 4.18625 10.61875 5.3125 10.9375 C7.55407994 11.58337897 9.7869351 12.2623117 12 13 C13.125 17.75 13.125 17.75 12 20 C9.03 20 6.06 20 3 20 C2.67 18.35 2.34 16.7 2 15 C1.34 15 0.68 15 0 15 C0 16.65 0 18.3 0 20 C-1.32 20 -2.64 20 -4 20 C-4 13.73 -4 7.46 -4 1 C-3.67 1 -3.34 1 -3 1 C-2.67 2.65 -2.34 4.3 -2 6 C-1.67 6 -1.34 6 -1 6 C-0.67 4.02 -0.34 2.04 0 0 Z " fill="#F2FBF7" transform="translate(29,132)"/>
<path d="M0 0 C8.57142857 0.71428571 8.57142857 0.71428571 12 4 C12.66 2.68 13.32 1.36 14 0 C14.66 0 15.32 0 16 0 C15.32512263 4.81919471 13.42034091 8.91883866 11.4375 13.3125 C11.10814453 14.05306641 10.77878906 14.79363281 10.43945312 15.55664062 C9.63082877 17.37311562 8.81602884 19.18683931 8 21 C7.34 21 6.68 21 6 21 C6 21.66 6 22.32 6 23 C8.31 23 10.62 23 13 23 C13.33 24.32 13.66 25.64 14 27 C12.02 27.33 10.04 27.66 8 28 C8 27.67 8 27.34 8 27 C7.37351562 26.87882812 6.74703125 26.75765625 6.1015625 26.6328125 C5.28429687 26.46523437 4.46703125 26.29765625 3.625 26.125 C2.81289062 25.96257812 2.00078125 25.80015625 1.1640625 25.6328125 C-1 25 -1 25 -3 23 C-1.081875 22.6596875 -1.081875 22.6596875 0.875 22.3125 C4.23752993 21.48942795 4.23752993 21.48942795 6.5 18.9375 C7.44228044 13.40160244 8.13601453 7.91735612 5 3 C2.46229997 1.71745356 2.46229997 1.71745356 0 1 C0 0.67 0 0.34 0 0 Z " fill="#CDF1DC" transform="translate(95,131)"/>
<path d="M0 0 C0.66 0.99 1.32 1.98 2 3 C4.05003955 4.19232613 4.05003955 4.19232613 6 5 C4.02 5.99 4.02 5.99 2 7 C5.36625383 10.0617272 7.95014906 10.48024017 12.4375 10.75 C14.10619141 10.86601563 14.10619141 10.86601563 15.80859375 10.984375 C18.88492045 11.10679689 18.88492045 11.10679689 21.390625 10.51953125 C25.02665139 9.79559186 28.62292588 9.89463631 32.3125 9.9375 C33.42334961 9.94426758 33.42334961 9.94426758 34.55664062 9.95117188 C36.37112899 9.96287825 38.18557534 9.98081102 40 10 C37.23978509 12.76021491 34.65235933 12.46377645 30.9375 12.625 C30.1846875 12.66367188 29.431875 12.70234375 28.65625 12.7421875 C18.44751886 13.18262582 8.21530385 13.04975827 -2.00024414 12.96337891 C-2.71052261 12.95907867 -3.42080109 12.95477844 -4.15260315 12.9503479 C-6.11152854 12.93816673 -8.07041698 12.92041645 -10.02929688 12.90234375 C-12.9293913 12.79070173 -12.9293913 12.79070173 -15 14 C-15.99 13.34 -16.98 12.68 -18 12 C-12.54873741 9.76108858 -7.86809507 8.52393706 -2 8 C-1.855625 7.236875 -1.71125 6.47375 -1.5625 5.6875 C-1 3 -1 3 0 0 Z " fill="#C1EAF5" transform="translate(98,110)"/>
<path d="M0 0 C3.96 0 7.92 0 12 0 C10.68 0.99 9.36 1.98 8 3 C8 3.66 8 4.32 8 5 C10.64 5.33 13.28 5.66 16 6 C16 6.66 16 7.32 16 8 C16.66 8.33 17.32 8.66 18 9 C16.9790625 8.855625 15.958125 8.71125 14.90625 8.5625 C-3.34001384 6.16482222 -21.68462849 6.49167529 -40 8 C-28.04334093 2.02167047 -13.15138143 3.88092311 0 4 C0 3.34 0 2.68 0 2 C0.99 1.67 1.98 1.34 3 1 C2.01 0.67 1.02 0.34 0 0 Z " fill="#0A89C4" transform="translate(120,89)"/>
<path d="M0 0 C6.6 0 13.2 0 20 0 C20 0.66 20 1.32 20 2 C17.69 2 15.38 2 13 2 C13 8.27 13 14.54 13 21 C13.66 21.33 14.32 21.66 15 22 C11.7 22 8.4 22 5 22 C5.66 21.34 6.32 20.68 7 20 C7.36894582 17.96939341 7.36894582 17.96939341 7.4140625 15.6484375 C7.47207031 14.37226563 7.47207031 14.37226563 7.53125 13.0703125 C7.5621875 12.18085938 7.593125 11.29140625 7.625 10.375 C7.66367187 9.4778125 7.70234375 8.580625 7.7421875 7.65625 C7.83659357 5.4377073 7.92216748 3.21917597 8 1 C3.52116304 1.44703986 3.52116304 1.44703986 0 4 C0 2.68 0 1.36 0 0 Z " fill="#157B3F" transform="translate(46,132)"/>
<path d="M0 0 C3.63 0 7.26 0 11 0 C11 0.66 11 1.32 11 2 C10.01 2 9.02 2 8 2 C8 8.27 8 14.54 8 21 C8.99 21.33 9.98 21.66 11 22 C11 22.33 11 22.66 11 23 C7.37 23 3.74 23 0 23 C0 22.34 0 21.68 0 21 C0.99 21 1.98 21 3 21 C3 14.73 3 8.46 3 2 C2.01 2 1.02 2 0 2 C0 1.34 0 0.68 0 0 Z " fill="#2E8E54" transform="translate(17,131)"/>
<path d="M0 0 C3.63 0 7.26 0 11 0 C11 0.66 11 1.32 11 2 C10.01 2 9.02 2 8 2 C8 8.27 8 14.54 8 21 C8.99 21.33 9.98 21.66 11 22 C11 22.33 11 22.66 11 23 C7.37 23 3.74 23 0 23 C0 22.34 0 21.68 0 21 C0.99 21 1.98 21 3 21 C3 14.73 3 8.46 3 2 C2.01 2 1.02 2 0 2 C0 1.34 0 0.68 0 0 Z " fill="#40905F" transform="translate(68,131)"/>
<path d="M0 0 C6.96447819 2.16212796 13.43111688 4.90667993 20 8.0625 C20.95261719 8.50916016 21.90523437 8.95582031 22.88671875 9.41601562 C23.79035156 9.84720703 24.69398438 10.27839844 25.625 10.72265625 C26.44226563 11.11203369 27.25953125 11.50141113 28.1015625 11.90258789 C30 13 30 13 31 15 C30.154375 15.19335938 29.30875 15.38671875 28.4375 15.5859375 C22.2760304 17.00027484 16.12587437 18.43850261 10 20 C10.75 17.5625 10.75 17.5625 12 15 C15.4940676 13.2529662 20.18575485 13.93642925 24 14 C22.68 13.34 21.36 12.68 20 12 C20 11.34 20 10.68 20 10 C18.68 10.33 17.36 10.66 16 11 C15.67 10.01 15.34 9.02 15 8 C13.88625 7.87625 12.7725 7.7525 11.625 7.625 C8 7 8 7 6 5 C4.01643517 4.28591666 2.01684563 3.61382258 0 3 C0 2.01 0 1.02 0 0 Z " fill="#D1F2F6" transform="translate(152,102)"/>
<path d="M0 0 C2.31243792 -0.02685412 4.6249627 -0.04632841 6.9375 -0.0625 C8.22527344 -0.07410156 9.51304688 -0.08570313 10.83984375 -0.09765625 C14 0 14 0 15 1 C15.125 4.5 15.125 4.5 15 8 C14 9 14 9 10.9375 9.0625 C9.968125 9.041875 8.99875 9.02125 8 9 C7.67 7.02 7.34 5.04 7 3 C6.34 3 5.68 3 5 3 C5 5.31 5 7.62 5 10 C3.35 9.67 1.7 9.34 0 9 C0 6.03 0 3.06 0 0 Z " fill="#6BB7BF" transform="translate(45,158)"/>
<path d="M0 0 C1.65 0 3.3 0 5 0 C5 0.33 5 0.66 5 1 C8.34252724 1.07427838 10.8035914 1.06546953 14 0 C14.33 0.99 14.66 1.98 15 3 C15.66 3.66 16.32 4.32 17 5 C16.34 5 15.68 5 15 5 C13.68776504 8.93670488 14.75703744 11.12488144 16 15 C13.24921116 15.91692961 11.64051087 16.10886083 8.8125 16.0625 C6.9253125 16.0315625 6.9253125 16.0315625 5 16 C5 15.67 5 15.34 5 15 C6.98 14.67 8.96 14.34 11 14 C11 11.69 11 9.38 11 7 C4.07 6.505 4.07 6.505 -3 6 C-2.79375 7.11375 -2.5875 8.2275 -2.375 9.375 C-2.25125 10.57125 -2.1275 11.7675 -2 13 C-2.66 13.66 -3.32 14.32 -4 15 C-4 12.03 -4 9.06 -4 6 C-4.66 5.67 -5.32 5.34 -6 5 C-4.02 4.34 -2.04 3.68 0 3 C0 2.01 0 1.02 0 0 Z " fill="#E2F6F8" transform="translate(48,152)"/>
<path d="M0 0 C1.17691406 0.26425781 2.35382813 0.52851562 3.56640625 0.80078125 C4.51386719 1.09339844 5.46132812 1.38601562 6.4375 1.6875 C6.7675 2.3475 7.0975 3.0075 7.4375 3.6875 C8.4275 3.8525 9.4175 4.0175 10.4375 4.1875 C11.4275 4.3525 12.4175 4.5175 13.4375 4.6875 C13.7675 5.3475 14.0975 6.0075 14.4375 6.6875 C16.7515622 7.41825648 19.08578869 8.08888258 21.4375 8.6875 C18.23233056 10.95782835 15.53933259 10.83241922 11.73828125 10.23828125 C7.47355814 9.21735433 3.33462909 7.70063686 -0.5625 5.6875 C-0.8925 5.0275 -1.2225 4.3675 -1.5625 3.6875 C-4.08983235 3.03194881 -4.08983235 3.03194881 -6.5625 2.6875 C-6.5625 2.0275 -6.5625 1.3675 -6.5625 0.6875 C-7.2225 0.3575 -7.8825 0.0275 -8.5625 -0.3125 C-5.50822078 -1.83963961 -3.2717749 -0.7577876 0 0 Z " fill="#0692D8" transform="translate(150.5625,94.3125)"/>
<path d="M0 0 C3.3 0 6.6 0 10 0 C10 2.97 10 5.94 10 9 C9.01 9 8.02 9 7 9 C6.67 9.66 6.34 10.32 6 11 C3.83125748 10.49396008 2.00032373 10.00016187 0 9 C0 6.03 0 3.06 0 0 Z " fill="#FAFBFA" transform="translate(193,143)"/>
<path d="M0 0 C3.63 0.33 7.26 0.66 11 1 C11 1.66 11 2.32 11 3 C11.78375 3.309375 12.5675 3.61875 13.375 3.9375 C16 5 16 5 18 6 C18 6.66 18 7.32 18 8 C18.99 8.33 19.98 8.66 21 9 C20.01 10.485 20.01 10.485 19 12 C19.66 12.66 20.32 13.32 21 14 C18.36 14 15.72 14 13 14 C12.67 13.34 12.34 12.68 12 12 C13.65 12 15.3 12 17 12 C17 11.34 17 10.68 17 10 C16.38125 9.855625 15.7625 9.71125 15.125 9.5625 C13 9 13 9 11 8 C11 7.34 11 6.68 11 6 C10.42765625 5.86722656 9.8553125 5.73445313 9.265625 5.59765625 C7.02349125 5.00619683 4.91420381 4.26711146 2.75 3.4375 C2.04359375 3.16808594 1.3371875 2.89867188 0.609375 2.62109375 C0.07828125 2.41613281 -0.4528125 2.21117188 -1 2 C-0.67 1.34 -0.34 0.68 0 0 Z " fill="#0492D8" transform="translate(171,106)"/>
<path d="M0 0 C0.33 0 0.66 0 1 0 C1.01417969 0.66386719 1.02835937 1.32773438 1.04296875 2.01171875 C1.36167266 7.94189679 1.36167266 7.94189679 4.3125 13 C6.51397091 14.63830393 8.46700687 15.96803984 11 17 C10.67 17.33 10.34 17.66 10 18 C11.55966218 18.508783 13.12289241 19.00663469 14.6875 19.5 C15.55761719 19.7784375 16.42773438 20.056875 17.32421875 20.34375 C19.99391677 20.99850805 22.26396684 21.11831495 25 21 C25.33 21.66 25.66 22.32 26 23 C23.22882696 22.85919445 20.45817359 22.71256882 17.6875 22.5625 C16.50897461 22.50352539 16.50897461 22.50352539 15.30664062 22.44335938 C14.54931641 22.40146484 13.79199219 22.35957031 13.01171875 22.31640625 C12.31522217 22.27974854 11.61872559 22.24309082 10.90112305 22.20532227 C9 22 9 22 6 21 C5.87625 20.071875 5.87625 20.071875 5.75 19.125 C5.11693478 16.54178709 5.11693478 16.54178709 1.4375 15.25 C0.303125 14.8375 -0.83125 14.425 -2 14 C-1.34 9.38 -0.68 4.76 0 0 Z " fill="#BDE5CE" transform="translate(78,138)"/>
<path d="M0 0 C1.04005702 3.38018531 1.08004482 6.4780279 1 10 C0.01 10.495 0.01 10.495 -1 11 C-1 11.66 -1 12.32 -1 13 C-1.66 13.66 -2.32 14.32 -3 15 C-3.99 15 -4.98 15 -6 15 C-6.33 15.66 -6.66 16.32 -7 17 C-8.06795656 11.42289352 -7.82622671 6.60563042 -7 1 C-4 2 -4 2 -3 4 C-2.34 4 -1.68 4 -1 4 C-0.67 2.68 -0.34 1.36 0 0 Z " fill="#FAFCFB" transform="translate(68,134)"/>
<path d="M0 0 C1.9375 0.6875 1.9375 0.6875 3.9375 1.6875 C3.9375 2.3475 3.9375 3.0075 3.9375 3.6875 C4.9275 4.0175 5.9175 4.3475 6.9375 4.6875 C5.23670778 6.77736233 4.31264733 7.61119885 1.6328125 8.15625 C-5.19650994 8.23928128 -5.19650994 8.23928128 -7.828125 6.5625 C-9.1875 5.1875 -9.1875 5.1875 -11.0625 2.6875 C-8.98696352 2.1340236 -7.21884036 1.6875 -5.0625 1.6875 C-2.0625 -0.3125 -2.0625 -0.3125 0 0 Z " fill="#DDF6F6" transform="translate(118.0625,75.3125)"/>
<path d="M0 0 C3.84375 1.765625 3.84375 1.765625 5.25 3.875 C6 6 6 6 6 10 C3.36 10 0.72 10 -2 10 C-2.33 11.98 -2.66 13.96 -3 16 C-2.34 16.33 -1.68 16.66 -1 17 C-3.31 17 -5.62 17 -8 17 C-8 16.34 -8 15.68 -8 15 C-7.56042969 14.59136719 -7.12085938 14.18273437 -6.66796875 13.76171875 C-4.40873422 11.37550148 -3.52300322 8.85511621 -2.3125 5.8125 C-1.87550781 4.72582031 -1.43851563 3.63914063 -0.98828125 2.51953125 C-0.66214844 1.68808594 -0.33601562 0.85664063 0 0 Z " fill="#41835C" transform="translate(168,137)"/>
<path d="M0 0 C2.64 0 5.28 0 8 0 C8 3.3 8 6.6 8 10 C6.35 10 4.7 10 3 10 C3 9.01 3 8.02 3 7 C1.68 7 0.36 7 -1 7 C-1 7.66 -1 8.32 -1 9 C-1.66 9 -2.32 9 -3 9 C-2.01 6.03 -1.02 3.06 0 0 Z " fill="#9FD0D2" transform="translate(36,158)"/>
<path d="M0 0 C2.97 0 5.94 0 9 0 C9.33 1.65 9.66 3.3 10 5 C9.34 5 8.68 5 8 5 C8 5.66 8 6.32 8 7 C7.01 7.33 6.02 7.66 5 8 C4.05125 8.391875 3.1025 8.78375 2.125 9.1875 C-1.46007364 10.11961915 -2.78923823 9.69981505 -6 8 C-6 7.67 -6 7.34 -6 7 C-4.35 6.67 -2.7 6.34 -1 6 C-0.67 4.02 -0.34 2.04 0 0 Z " fill="#F2FDF8" transform="translate(166,147)"/>
<path d="M0 0 C0.66 0 1.32 0 2 0 C5 5.625 5 5.625 5 9 C2.36 9.33 -0.28 9.66 -3 10 C-3.33 11.32 -3.66 12.64 -4 14 C-3.34 14 -2.68 14 -2 14 C-2 14.66 -2 15.32 -2 16 C-4.31 16 -6.62 16 -9 16 C-9 15.34 -9 14.68 -9 14 C-8.34 14 -7.68 14 -7 14 C-6.72736328 13.07767578 -6.72736328 13.07767578 -6.44921875 12.13671875 C-6.07216797 10.92435547 -6.07216797 10.92435547 -5.6875 9.6875 C-5.32205078 8.48673828 -5.32205078 8.48673828 -4.94921875 7.26171875 C-3.94836247 4.87696243 -2.88589808 3.72410521 -1 2 C-0.67 1.34 -0.34 0.68 0 0 Z " fill="#428963" transform="translate(110,138)"/>
<path d="M0 0 C3.63 0 7.26 0 11 0 C11 0.66 11 1.32 11 2 C10.01 2 9.02 2 8 2 C8 4.64 8 7.28 8 10 C11.3 10 14.6 10 18 10 C18 10.66 18 11.32 18 12 C14.7 12 11.4 12 8 12 C8 14.97 8 17.94 8 21 C7.67 21 7.34 21 7 21 C6.67 16.71 6.34 12.42 6 8 C5.34 8.66 4.68 9.32 4 10 C4 7.36 4 4.72 4 2 C2.68 2 1.36 2 0 2 C0 1.34 0 0.68 0 0 Z " fill="#4D9168" transform="translate(185,131)"/>
<path d="M0 0 C8.57142857 0.71428571 8.57142857 0.71428571 12 4 C12.66 2.68 13.32 1.36 14 0 C14.66 0 15.32 0 16 0 C15.39644592 3.85025879 14.23227397 6.86101159 12.4375 10.3125 C11.98246094 11.19550781 11.52742188 12.07851562 11.05859375 12.98828125 C10.70925781 13.65214844 10.35992187 14.31601563 10 15 C9.67 15 9.34 15 9 15 C9 12.36 9 9.72 9 7 C8.34 7 7.68 7 7 7 C6.6596875 6.071875 6.6596875 6.071875 6.3125 5.125 C4.62070165 2.38589791 3.00755839 1.94975528 0 1 C0 0.67 0 0.34 0 0 Z " fill="#DEF5E7" transform="translate(95,131)"/>
<path d="M0 0 C0.66 1.98 1.32 3.96 2 6 C1.34 5.67 0.68 5.34 0 5 C0 4.34 0 3.68 0 3 C-3.37400358 2.89646818 -3.37400358 2.89646818 -7 4 C-8.88863315 6.27876632 -9.87044668 8.82114756 -10.9375 11.5625 C-11.39092773 12.62887695 -11.39092773 12.62887695 -11.85351562 13.71679688 C-12.59378577 15.46759452 -13.30027422 17.23260754 -14 19 C-14.66 19 -15.32 19 -16 19 C-16.66 17.02 -17.32 15.04 -18 13 C-17.34 13 -16.68 13 -16 13 C-15.67 12.34 -15.34 11.68 -15 11 C-14.33333333 9.66666667 -13.66666667 8.33333333 -13 7 C-12.01 7 -11.02 7 -10 7 C-9.87625 6.030625 -9.7525 5.06125 -9.625 4.0625 C-9.41875 3.051875 -9.2125 2.04125 -9 1 C-6.04335481 -0.4783226 -3.25770263 -0.06032783 0 0 Z " fill="#DBF5E7" transform="translate(157,128)"/>
<path d="M0 0 C-1.65 0.33 -3.3 0.66 -5 1 C-4.7215625 1.9590625 -4.7215625 1.9590625 -4.4375 2.9375 C-4.293125 3.618125 -4.14875 4.29875 -4 5 C-4.33 5.33 -4.66 5.66 -5 6 C-4.835 7.093125 -4.67 8.18625 -4.5 9.3125 C-4.05603184 12.58676521 -4.09499943 13.98554956 -5 17 C-5.32613281 16.14535156 -5.65226562 15.29070312 -5.98828125 14.41015625 C-6.42527344 13.30542969 -6.86226562 12.20070312 -7.3125 11.0625 C-7.74175781 9.96035156 -8.17101562 8.85820312 -8.61328125 7.72265625 C-9.75608861 4.69139735 -9.75608861 4.69139735 -13 4 C-13 3.34 -13 2.68 -13 2 C-13.66 1.67 -14.32 1.34 -15 1 C-13.25215171 0.63536268 -11.50159498 0.2836922 -9.75 -0.0625 C-8.28820312 -0.35833984 -8.28820312 -0.35833984 -6.796875 -0.66015625 C-4.131881 -0.98397535 -2.51128277 -0.85503199 0 0 Z " fill="#D6F0F1" transform="translate(124,127)"/>
<path d="M0 0 C0 0.99 0 1.98 0 3 C-7.625 5 -7.625 5 -11 5 C-11.33 5.66 -11.66 6.32 -12 7 C-13.65 7 -15.3 7 -17 7 C-17 6.34 -17 5.68 -17 5 C-17.66 4.67 -18.32 4.34 -19 4 C-19 3.34 -19 2.68 -19 2 C-12.56971459 0.67611771 -6.5705166 -0.24794402 0 0 Z " fill="#E3F3F3" transform="translate(96,96)"/>
<path d="M0 0 C2.69082872 0.17635452 5.32851446 0.61835921 8 1 C5.51775638 3.73213392 2.74742947 5.54955091 -0.375 7.5 C-1.77878906 8.38171875 -1.77878906 8.38171875 -3.2109375 9.28125 C-5.79578603 10.87415386 -8.39229149 12.44485747 -11 14 C-12.125 10.25 -12.125 10.25 -11 8 C-8.66666667 7.33333333 -6.33333333 6.66666667 -4 6 C-3.67 5.34 -3.34 4.68 -3 4 C-2.01 4 -1.02 4 0 4 C-0.33 3.01 -0.66 2.02 -1 1 C-0.67 0.67 -0.34 0.34 0 0 Z " fill="#D8F5F5" transform="translate(38,104)"/>
<path d="M0 0 C2.64 0 5.28 0 8 0 C8.33 1.32 8.66 2.64 9 4 C7.68 3.67 6.36 3.34 5 3 C4.94620774 5.95857409 4.90642907 8.91617721 4.875 11.875 C4.85824219 12.71675781 4.84148437 13.55851563 4.82421875 14.42578125 C4.81777344 15.23144531 4.81132812 16.03710938 4.8046875 16.8671875 C4.79421387 17.61081543 4.78374023 18.35444336 4.77294922 19.12060547 C4.8334403 21.24490235 4.8334403 21.24490235 7 23 C4.69 23 2.38 23 0 23 C0.33 22.34 0.66 21.68 1 21 C1.15067214 19.5534758 1.24861036 18.1012066 1.31640625 16.6484375 C1.35830078 15.79765625 1.40019531 14.946875 1.44335938 14.0703125 C1.48267578 13.18085938 1.52199219 12.29140625 1.5625 11.375 C1.60568359 10.4778125 1.64886719 9.580625 1.69335938 8.65625 C1.79956861 6.43765717 1.90161194 4.2189512 2 2 C1.34 2 0.68 2 0 2 C0 1.34 0 0.68 0 0 Z " fill="#409765" transform="translate(127,131)"/>
<path d="M0 0 C0 1.32 0 2.64 0 4 C-1.59328125 4.77923828 -1.59328125 4.77923828 -3.21875 5.57421875 C-12.2486565 9.95409749 -12.2486565 9.95409749 -20.875 15.0625 C-22.421875 16.0215625 -22.421875 16.0215625 -24 17 C-24.66 16.67 -25.32 16.34 -26 16 C-4.05533597 0 -4.05533597 0 0 0 Z " fill="#4191AC" transform="translate(50,104)"/>
<path d="M0 0 C0 0.66 0 1.32 0 2 C-1.32 2 -2.64 2 -4 2 C-4 2.66 -4 3.32 -4 4 C-3.01 4 -2.02 4 -1 4 C-1 10.27 -1 16.54 -1 23 C-1.33 23 -1.66 23 -2 23 C-2 17.06 -2 11.12 -2 5 C-2.99 5.33 -3.98 5.66 -5 6 C-5 4.68 -5 3.36 -5 2 C-22.325 2.495 -22.325 2.495 -40 3 C-40 2.34 -40 1.68 -40 1 C-35.10704143 0.85666128 -30.21405645 0.71427337 -25.32104492 0.57275391 C-23.65762592 0.52451071 -21.99421434 0.47601091 -20.33081055 0.42724609 C-17.93540334 0.35706675 -15.53997067 0.28782014 -13.14453125 0.21875 C-12.4047554 0.19687622 -11.66497955 0.17500244 -10.90278625 0.15246582 C-7.26725241 0.04853741 -3.63706438 -0.02497555 0 0 Z " fill="#CBF9DF" transform="translate(72,129)"/>
<path d="M0 0 C12.27090527 1.6475965 23.120922 6.22893153 34 12 C31 13 31 13 29.09375 12.125 C28.4028125 11.75375 27.711875 11.3825 27 11 C25.51053021 10.62238794 24.00908927 10.28941438 22.5 10 C17.9785388 9.13287045 14.82995386 7.55330257 11 5 C8.70577466 4.18209435 6.38989767 3.48561769 4.05859375 2.78125 C2 2 2 2 0 0 Z " fill="#1988B6" transform="translate(144,92)"/>
<path d="M0 0 C6.93 0.495 6.93 0.495 14 1 C14.33 2.32 14.66 3.64 15 5 C12.36 5 9.72 5 7 5 C6.67 5.99 6.34 6.98 6 8 C5.34 7.67 4.68 7.34 4 7 C4 6.34 4 5.68 4 5 C2.68 5.33 1.36 5.66 0 6 C0 4.02 0 2.04 0 0 Z " fill="#DEF6F3" transform="translate(16,153)"/>
<path d="M0 0 C1.65 0.33 3.3 0.66 5 1 C4.34 1.66 3.68 2.32 3 3 C2.72285104 5.13252093 2.72285104 5.13252093 2.8046875 7.5703125 C2.81113281 8.46621094 2.81757813 9.36210937 2.82421875 10.28515625 C2.84097656 11.22230469 2.85773438 12.15945312 2.875 13.125 C2.88853516 14.54232422 2.88853516 14.54232422 2.90234375 15.98828125 C2.92595478 18.32577292 2.95888484 20.66276123 3 23 C1.54207116 23.05399736 0.08357288 23.09279177 -1.375 23.125 C-2.59316406 23.15980469 -2.59316406 23.15980469 -3.8359375 23.1953125 C-6 23 -6 23 -8 21 C-4.04 20.505 -4.04 20.505 0 20 C0 13.4 0 6.8 0 0 Z " fill="#E0F7E9" transform="translate(208,133)"/>
<path d="M0 0 C0 0.99 0 1.98 0 3 C0.99 3.33 1.98 3.66 3 4 C1.625 6.5 1.625 6.5 0 9 C-0.66 9 -1.32 9 -2 9 C-1.97679688 9.69867188 -1.95359375 10.39734375 -1.9296875 11.1171875 C-1.91164063 12.02726563 -1.89359375 12.93734375 -1.875 13.875 C-1.85179688 14.77992188 -1.82859375 15.68484375 -1.8046875 16.6171875 C-2 19 -2 19 -4 21 C-4 15.39 -4 9.78 -4 4 C-3.01 4 -2.02 4 -1 4 C-1 3.34 -1 2.68 -1 2 C-3.31 2 -5.62 2 -8 2 C-8 1.34 -8 0.68 -8 0 C-4.94736336 -0.98120464 -3.05263664 -0.98120464 0 0 Z " fill="#DEF9EE" transform="translate(80,129)"/>
<path d="M0 0 C0 0.66 0 1.32 0 2 C0.66 2 1.32 2 2 2 C2 2.99 2 3.98 2 5 C1.34 5 0.68 5 0 5 C-0.33 4.34 -0.66 3.68 -1 3 C-1.66 3 -2.32 3 -3 3 C-5.64 9.27 -8.28 15.54 -11 22 C-12.37460298 16.50158806 -11.8530145 11.91352497 -9 7 C-8.505 5.948125 -8.01 4.89625 -7.5 3.8125 C-5.32315964 -0.26907568 -4.69987444 0 0 0 Z " fill="#D4F5E1" transform="translate(174,129)"/>
<path d="M0 0 C0.33 0 0.66 0 1 0 C1.33 1.98 1.66 3.96 2 6 C2.33 4.35 2.66 2.7 3 1 C3.33 1 3.66 1 4 1 C4.33 7.27 4.66 13.54 5 20 C3.35 20 1.7 20 0 20 C0 13.4 0 6.8 0 0 Z " fill="#0D8339" transform="translate(188,133)"/>
<path d="M0 0 C1.65 0 3.3 0 5 0 C5 0.66 5 1.32 5 2 C7.64 2 10.28 2 13 2 C12.01 2.495 12.01 2.495 11 3 C10.67 3.66 10.34 4.32 10 5 C9.34 5.66 8.68 6.32 8 7 C7.67 6.01 7.34 5.02 7 4 C6.01 4 5.02 4 4 4 C4.33 4.99 4.66 5.98 5 7 C1.37 7 -2.26 7 -6 7 C-4.68 6.01 -3.36 5.02 -2 4 C-0.7483533 1.91665365 -0.7483533 1.91665365 0 0 Z " fill="#F6FAF5" transform="translate(109,153)"/>
<path d="M0 0 C0.66 0 1.32 0 2 0 C2.66 0.66 3.32 1.32 4 2 C4.33 1.34 4.66 0.68 5 0 C7.97 0 10.94 0 14 0 C14.33 1.32 14.66 2.64 15 4 C13.35 4.33 11.7 4.66 10 5 C10 6.32 10 7.64 10 9 C9.34 9 8.68 9 8 9 C7.67 6.69 7.34 4.38 7 2 C6.01 3.98 5.02 5.96 4 8 C2.22293791 5.33440687 1.12451727 2.9719385 0 0 Z " fill="#62A6AF" transform="translate(18,158)"/>
<path d="M0 0 C-1.60149886 0.67305018 -3.20631029 1.33822227 -4.8125 2 C-5.70582031 2.37125 -6.59914063 2.7425 -7.51953125 3.125 C-10 4 -10 4 -13 4 C-13.19335938 4.64453125 -13.38671875 5.2890625 -13.5859375 5.953125 C-15 8 -15 8 -18.0390625 8.609375 C-19.22242188 8.65578125 -20.40578125 8.7021875 -21.625 8.75 C-23.40777344 8.83507812 -23.40777344 8.83507812 -25.2265625 8.921875 C-26.59941406 8.96054688 -26.59941406 8.96054688 -28 9 C-23.71063814 5.53080722 -19.15988667 4.0412178 -14 2.25 C-13.09765625 1.92128906 -12.1953125 1.59257813 -11.265625 1.25390625 C-10.39421875 0.94839844 -9.5228125 0.64289063 -8.625 0.328125 C-7.83351563 0.0487207 -7.04203125 -0.23068359 -6.2265625 -0.51855469 C-3.77177931 -1.04934772 -2.35338547 -0.80192416 0 0 Z " fill="#CFECEF" transform="translate(76,100)"/>
<path d="M0 0 C2.64 0 5.28 0 8 0 C6.625 2 6.625 2 5 4 C4.34 4 3.68 4 3 4 C3.66 7.3 4.32 10.6 5 14 C4.01 13.67 3.02 13.34 2 13 C2 12.34 2 11.68 2 11 C-0.64 10.34 -3.28 9.68 -6 9 C-5.67 8.34 -5.34 7.68 -5 7 C-4.34 7 -3.68 7 -3 7 C-2.67 6.01 -2.34 5.02 -2 4 C-0.02 3.67 1.96 3.34 4 3 C4 2.34 4 1.68 4 1 C2.68 0.67 1.36 0.34 0 0 Z " fill="#4AADCD" transform="translate(120,66)"/>
<path d="M0 0 C2.64 0 5.28 0 8 0 C8 2.31 8 4.62 8 7 C7.67 5.68 7.34 4.36 7 3 C6.34 3 5.68 3 5 3 C5 5.31 5 7.62 5 10 C3.35 9.67 1.7 9.34 0 9 C0 6.03 0 3.06 0 0 Z " fill="#C3EBEE" transform="translate(45,158)"/>
<path d="M0 0 C7.75 -0.125 7.75 -0.125 10 1 C9.34 2.32 8.68 3.64 8 5 C8.66 5.66 9.32 6.32 10 7 C8.02 7.99 8.02 7.99 6 9 C6 9.66 6 10.32 6 11 C6.66 11.66 7.32 12.32 8 13 C7.625 15.125 7.625 15.125 7 17 C4.9656541 15.58480285 4.09589607 14.45017877 3.578125 12.01953125 C3.33726048 10.01823046 3.16467259 8.0090056 3 6 C4.32 5.01 5.64 4.02 7 3 C4.69 2.67 2.38 2.34 0 2 C0 1.34 0 0.68 0 0 Z " fill="#DBF3F4" transform="translate(120,64)"/>
<path d="M0 0 C0.99 0 1.98 0 3 0 C3.38922918 1.28745036 3.76098036 2.58019597 4.125 3.875 C4.33382812 4.59429687 4.54265625 5.31359375 4.7578125 6.0546875 C4.83773437 6.69664063 4.91765625 7.33859375 5 8 C4.34 8.66 3.68 9.32 3 10 C3 9.34 3 8.68 3 8 C2.34 8 1.68 8 1 8 C1 10.64 1 13.28 1 16 C-1 15 -1 15 -2.125 12.8125 C-3.08328236 9.73230669 -3.14915816 7.20690052 -3 4 C-2.34 4 -1.68 4 -1 4 C-0.67 2.68 -0.34 1.36 0 0 Z " fill="#62BAE0" transform="translate(99,66)"/>
<path d="M0 0 C0.66 0.66 1.32 1.32 2 2 C1.39671875 2.12117188 0.7934375 2.24234375 0.171875 2.3671875 C-1.02695313 2.61855469 -1.02695313 2.61855469 -2.25 2.875 C-3.03890625 3.03742187 -3.8278125 3.19984375 -4.640625 3.3671875 C-7.00368962 3.91405293 -7.00368962 3.91405293 -9.03125 5.03125 C-12.24115622 6.61072766 -15.46125108 6.64612511 -19 7 C-13.97820036 -0.06771801 -8.36364185 -1.0065976 0 0 Z " fill="#A0D0E5" transform="translate(118,54)"/>
<path d="M0 0 C3.63 0 7.26 0 11 0 C11 0.66 11 1.32 11 2 C10.01 2 9.02 2 8 2 C8 8.27 8 14.54 8 21 C6.68 21.33 5.36 21.66 4 22 C4.66 21.67 5.32 21.34 6 21 C6 14.4 6 7.8 6 1 C4.02 1.33 2.04 1.66 0 2 C0 1.34 0 0.68 0 0 Z " fill="#50996D" transform="translate(200,131)"/>
<path d="M0 0 C-7.26 0.99 -14.52 1.98 -22 3 C-22 2.34 -22 1.68 -22 1 C-23.32 0.34 -24.64 -0.32 -26 -1 C-6.76595745 -3.38297872 -6.76595745 -3.38297872 0 0 Z " fill="#82C1DC" transform="translate(144,123)"/>
<path d="M0 0 C2.375 -0.125 2.375 -0.125 5 0 C7 2 7 2 7.25 4.5 C7 7 7 7 5 9 C2.375 9.125 2.375 9.125 0 9 C0 6.03 0 3.06 0 0 Z " fill="#74A98D" transform="translate(107,109)"/>
<path d="M0 0 C0.99 0.33 1.98 0.66 3 1 C2.67 1.33 2.34 1.66 2 2 C1.53668563 7.87646031 1.53668563 7.87646031 4 13 C2.02 13 0.04 13 -2 13 C-2.33 15.31 -2.66 17.62 -3 20 C-3.33 20 -3.66 20 -4 20 C-4 13.73 -4 7.46 -4 1 C-3.67 1 -3.34 1 -3 1 C-2.67 2.65 -2.34 4.3 -2 6 C-1.67 6 -1.34 6 -1 6 C-0.67 4.02 -0.34 2.04 0 0 Z " fill="#D4F3E0" transform="translate(29,132)"/>
<path d="M0 0 C0.99 0 1.98 0 3 0 C3 6.6 3 13.2 3 20 C2.01 20 1.02 20 0 20 C0 13.4 0 6.8 0 0 Z " fill="#088636" transform="translate(151,133)"/>
<path d="M0 0 C2.3125 -0.3125 2.3125 -0.3125 5 0 C6.75 2.375 6.75 2.375 8 5 C8.33 5.66 8.66 6.32 9 7 C7.35 7 5.7 7 4 7 C3.67 8.32 3.34 9.64 3 11 C0 9 0 9 -0.75 6.0625 C-1 3 -1 3 0 0 Z " fill="#42AED7" transform="translate(100,74)"/>
<path d="M0 0 C0.33 0 0.66 0 1 0 C1.16435547 0.99580078 1.16435547 0.99580078 1.33203125 2.01171875 C2.53319881 8.70114784 3.39617086 13.16200296 9.1875 17.25 C10.5796875 18.11625 10.5796875 18.11625 12 19 C12 19.33 12 19.66 12 20 C8.37 20 4.74 20 1 20 C2 18 2 18 5 17 C4.0409375 16.690625 4.0409375 16.690625 3.0625 16.375 C1 15 1 15 0.3125 12.1875 C0.1578125 10.6096875 0.1578125 10.6096875 0 9 C-0.309375 7.700625 -0.309375 7.700625 -0.625 6.375 C-1.01703609 3.89210477 -0.78767666 2.36302998 0 0 Z " fill="#CDEFF4" transform="translate(95,68)"/>
<path d="M0 0 C1.12775345 0.00212242 1.12775345 0.00212242 2.27828979 0.00428772 C4.6829626 0.0098916 7.08754277 0.02244468 9.4921875 0.03515625 C11.12109241 0.04017075 12.74999877 0.04473375 14.37890625 0.04882812 C18.37503577 0.05986228 22.37109592 0.07712946 26.3671875 0.09765625 C26.3671875 0.42765625 26.3671875 0.75765625 26.3671875 1.09765625 C25.72394531 1.1227124 25.08070312 1.14776855 24.41796875 1.17358398 C11.72332014 1.67272272 -0.95798925 2.22160229 -13.6328125 3.09765625 C-8.76224002 0.66237001 -5.46881199 -0.03848738 0 0 Z " fill="#2A84A8" transform="translate(93.6328125,93.90234375)"/>
<path d="M0 0 C0.98613281 0.00322266 1.97226563 0.00644531 2.98828125 0.00976562 C4.02082031 0.01814453 5.05335938 0.02652344 6.1171875 0.03515625 C7.67759766 0.04192383 7.67759766 0.04192383 9.26953125 0.04882812 C11.84380712 0.06063673 14.41796896 0.0771055 16.9921875 0.09765625 C16.9921875 0.42765625 16.9921875 0.75765625 16.9921875 1.09765625 C10.29543614 2.12792569 3.7607199 2.19918424 -3.0078125 2.09765625 C-2.6778125 3.41765625 -2.3478125 4.73765625 -2.0078125 6.09765625 C-4.3178125 6.09765625 -6.6278125 6.09765625 -9.0078125 6.09765625 C-7.01576165 0.54837173 -5.79267906 -0.03329126 0 0 Z " fill="#E4F8EB" transform="translate(179.0078125,153.90234375)"/>
<path d="M0 0 C0.66 0 1.32 0 2 0 C2.33 1.32 2.66 2.64 3 4 C4.32 4.33 5.64 4.66 7 5 C7.33 3.35 7.66 1.7 8 0 C8.66 0 9.32 0 10 0 C10 2.64 10 5.28 10 8 C6.7 8 3.4 8 0 8 C0 5.36 0 2.72 0 0 Z " fill="#D6F7E4" transform="translate(193,133)"/>
<path d="M0 0 C2.375 0.25 2.375 0.25 5 1 C7.66181082 4.2955753 7.15640774 7.93339881 7 12 C5.02 12.99 5.02 12.99 3 14 C2.86722656 13.24074219 2.73445313 12.48148438 2.59765625 11.69921875 C2.42105469 10.70535156 2.24445313 9.71148437 2.0625 8.6875 C1.88847656 7.70136719 1.71445313 6.71523437 1.53515625 5.69921875 C1.04253153 2.91810787 1.04253153 2.91810787 0 0 Z " fill="#12813D" transform="translate(96,133)"/>
<path d="M0 0 C1.32 0.66 2.64 1.32 4 2 C4 2.33 4 2.66 4 3 C-10.52 3 -25.04 3 -40 3 C-35.57099979 0.7854999 -32.51148103 0.82285953 -27.734375 1.0234375 C-26.94097717 1.04846344 -26.14757935 1.07348938 -25.33013916 1.09927368 C-22.80297783 1.18126376 -20.27662274 1.27793309 -17.75 1.375 C-16.0338868 1.4332611 -14.31774079 1.49056392 -12.6015625 1.546875 C-8.40058028 1.68681103 -4.20026059 1.83991173 0 2 C0 1.34 0 0.68 0 0 Z " fill="#2C7FA0" transform="translate(200,120)"/>
<path d="M0 0 C1.65 0.66 3.3 1.32 5 2 C2.2623524 3.47980951 -0.20318387 4.38625286 -3.25 5 C-7.53161184 5.89466516 -11.76113148 6.92101528 -16 8 C-15.25 5.5625 -15.25 5.5625 -14 3 C-10.83633512 1.75713165 -8.07886511 2.04329229 -4.75 2.4375 C-3.85796875 2.53933594 -2.9659375 2.64117187 -2.046875 2.74609375 C-1.37140625 2.82988281 -0.6959375 2.91367188 0 3 C0 2.01 0 1.02 0 0 Z " fill="#C8F3F7" transform="translate(178,114)"/>
<path d="M0 0 C0.66 0.33 1.32 0.66 2 1 C1.67 6.28 1.34 11.56 1 17 C2.32 16.67 3.64 16.34 5 16 C5 16.66 5 17.32 5 18 C5.66 18.33 6.32 18.66 7 19 C6.34 19 5.68 19 5 19 C5 19.66 5 20.32 5 21 C3.39950296 21.39036513 1.79437629 21.76178619 0.1875 22.125 C-0.70582031 22.33382812 -1.59914062 22.54265625 -2.51953125 22.7578125 C-5 23 -5 23 -8 21 C-4.04 20.505 -4.04 20.505 0 20 C0 13.4 0 6.8 0 0 Z " fill="#D5F5E1" transform="translate(155,133)"/>
<path d="M0 0 C0.66 0 1.32 0 2 0 C3.53266582 3.06533164 3.10276471 6.26754272 3.0625 9.625 C3.05798828 10.33140625 3.05347656 11.0378125 3.04882812 11.765625 C3.03703875 13.51045275 3.01910324 15.255237 3 17 C1.68 16.67 0.36 16.34 -1 16 C-0.67 10.72 -0.34 5.44 0 0 Z " fill="#0A8839" transform="translate(72,136)"/>
<path d="M0 0 C0.66 0.33 1.32 0.66 2 1 C2 1.99 2 2.98 2 4 C4.64 4.33 7.28 4.66 10 5 C10 5.66 10 6.32 10 7 C4.39 6.67 -1.22 6.34 -7 6 C-4.71658281 3.71658281 -2.59070454 1.87602742 0 0 Z " fill="#E4F8F8" transform="translate(126,82)"/>
<path d="M0 0 C2.31 0 4.62 0 7 0 C7 0.33 7 0.66 7 1 C5.02 1 3.04 1 1 1 C1 7.27 1 13.54 1 20 C1.66 20.33 2.32 20.66 3 21 C-0.3 21 -3.6 21 -7 21 C-6.38125 20.401875 -5.7625 19.80375 -5.125 19.1875 C-1.13996991 15.08526314 -0.68345171 12.41603938 -0.375 6.8125 C-0.30023438 5.54019531 -0.22546875 4.26789063 -0.1484375 2.95703125 C-0.09945312 1.98121094 -0.05046875 1.00539062 0 0 Z " fill="#419262" transform="translate(58,133)"/>
<path d="M0 0 C1.98 0 3.96 0 6 0 C6 6.27 6 12.54 6 19 C5.67 19 5.34 19 5 19 C5 13.06 5 7.12 5 1 C4.01 1 3.02 1 2 1 C1.95101562 1.84304687 1.90203125 2.68609375 1.8515625 3.5546875 C1.77679688 4.65039062 1.70203125 5.74609375 1.625 6.875 C1.55539063 7.96554688 1.48578125 9.05609375 1.4140625 10.1796875 C1 13 1 13 -1 15 C-1 13.35 -1 11.7 -1 10 C-1.66 9.67 -2.32 9.34 -3 9 C-2.67 8.01 -2.34 7.02 -2 6 C-1.34 6 -0.68 6 0 6 C0 4.02 0 2.04 0 0 Z " fill="#D4F6E4" transform="translate(48,133)"/>
<path d="M0 0 C0.99 0 1.98 0 3 0 C3 4.29 3 8.58 3 13 C2.01 13.33 1.02 13.66 0 14 C-1 13 -1 13 -1.1328125 10.8203125 C-1.13023438 9.93085938 -1.12765625 9.04140625 -1.125 8.125 C-1.12757812 7.24070313 -1.13015625 6.35640625 -1.1328125 5.4453125 C-1 3 -1 3 0 0 Z " fill="#08822F" transform="translate(80,135)"/>
<path d="M0 0 C1.32 0.33 2.64 0.66 4 1 C4.66 3.31 5.32 5.62 6 8 C4.68 7.67 3.36 7.34 2 7 C1.67 7.66 1.34 8.32 1 9 C1 8.34 1 7.68 1 7 C0.34 7 -0.32 7 -1 7 C-1.33 8.98 -1.66 10.96 -2 13 C-2.66 12.01 -3.32 11.02 -4 10 C-3.3203125 7.51953125 -3.3203125 7.51953125 -2.125 4.8125 C-1.73570313 3.91144531 -1.34640625 3.01039063 -0.9453125 2.08203125 C-0.63335937 1.39496094 -0.32140625 0.70789063 0 0 Z " fill="#378D59" transform="translate(111,131)"/>
<path d="M0 0 C0.66 0.66 1.32 1.32 2 2 C-0.88211302 2.96070434 -2.69850044 3.10581883 -5.6875 3.0625 C-7.8221875 3.0315625 -7.8221875 3.0315625 -10 3 C-10 7.95 -10 12.9 -10 18 C-10.66 18 -11.32 18 -12 18 C-12 13.38 -12 8.76 -12 4 C-12.66 3.67 -13.32 3.34 -14 3 C-9.63252845 -0.38126829 -5.34873901 -0.80914126 0 0 Z " fill="#469365" transform="translate(95,131)"/>
<path d="M0 0 C0.66 0 1.32 0 2 0 C0.54744301 3.82946843 -1.42895561 5.12050295 -5 7 C-2.36 7.33 0.28 7.66 3 8 C3 8.33 3 8.66 3 9 C1.56589632 9.24954005 0.12739928 9.47392642 -1.3125 9.6875 C-2.11300781 9.81511719 -2.91351563 9.94273438 -3.73828125 10.07421875 C-6 10 -6 10 -7.79296875 8.51953125 C-8.19128906 8.01808594 -8.58960937 7.51664062 -9 7 C-8.67 6.01 -8.34 5.02 -8 4 C-8.99 3.67 -9.98 3.34 -11 3 C-10.28972656 2.86722656 -9.57945313 2.73445313 -8.84765625 2.59765625 C-7.92855469 2.42105469 -7.00945312 2.24445313 -6.0625 2.0625 C-4.68771484 1.80146484 -4.68771484 1.80146484 -3.28515625 1.53515625 C-1.04710156 1.22285012 -1.04710156 1.22285012 0 0 Z " fill="#42A1BB" transform="translate(125,80)"/>
<path d="M0 0 C0.33 0 0.66 0 1 0 C1.33 2.31 1.66 4.62 2 7 C2.99 6.67 3.98 6.34 5 6 C3.82884146 9.33329739 2.88352404 11.86405627 0 14 C-3.64834225 15.15210808 -6.32009358 14.94626165 -10 14 C-10 13.67 -10 13.34 -10 13 C-8.88625 12.896875 -7.7725 12.79375 -6.625 12.6875 C-5.42875 12.460625 -4.2325 12.23375 -3 12 C-0.97649676 8.96474514 -0.67875982 7.80573798 -0.375 4.3125 C-0.30023438 3.50425781 -0.22546875 2.69601563 -0.1484375 1.86328125 C-0.09945312 1.24839844 -0.05046875 0.63351563 0 0 Z " fill="#3D9360" transform="translate(98,139)"/>
<path d="M0 0 C2.31 0 4.62 0 7 0 C7 0.66 7 1.32 7 2 C6.34 2 5.68 2 5 2 C5 8.6 5 15.2 5 22 C5.66 22.33 6.32 22.66 7 23 C3.7 23 0.4 23 -3 23 C-2.67 22.34 -2.34 21.68 -2 21 C-0.02 21.33 1.96 21.66 4 22 C4 15.4 4 8.8 4 2 C2.35 2.33 0.7 2.66 -1 3 C-0.67 2.01 -0.34 1.02 0 0 Z " fill="#50976A" transform="translate(150,131)"/>
<path d="M0 0 C7.59 0 15.18 0 23 0 C19.74776871 3.25223129 16.04513887 3.07454926 11.625 3.1875 C7.41478342 3.15223855 3.9744563 2.3530064 0 1 C0 0.67 0 0.34 0 0 Z " fill="#2697BB" transform="translate(99,125)"/>
<path d="M0 0 C-1.3003887 3.90116609 -3.41996165 6.09948581 -7 8 C-10.05084455 8.40744178 -12.94306888 8.30569311 -16 8 C-13.62999752 5.34154327 -11.18015846 3.88838209 -8 2.3125 C-6.700625 1.65701172 -6.700625 1.65701172 -5.375 0.98828125 C-3 0 -3 0 0 0 Z " fill="#DAF1F0" transform="translate(48,109)"/>
<path d="M0 0 C7.75 -0.125 7.75 -0.125 10 1 C11.134375 1 12.26875 1 13.4375 1 C17 1 17 1 20 2 C20 2.66 20 3.32 20 4 C21.32 4.33 22.64 4.66 24 5 C24 5.66 24 6.32 24 7 C17.89453125 5.47363281 11.7890625 3.94726562 5.68359375 2.42089844 C4.58724609 2.14681152 4.58724609 2.14681152 3.46875 1.8671875 C2.3240625 1.58101563 1.179375 1.29484375 0 1 C0 0.67 0 0.34 0 0 Z " fill="#BFEDF3" transform="translate(136,89)"/>
<path d="M0 0 C0.66 0.33 1.32 0.66 2 1 C2.59355614 3.64860427 2.74209269 6.29197322 3 9 C2.04287109 9.07347656 2.04287109 9.07347656 1.06640625 9.1484375 C0.24011719 9.22320312 -0.58617188 9.29796875 -1.4375 9.375 C-2.26121094 9.44460937 -3.08492188 9.51421875 -3.93359375 9.5859375 C-4.61550781 9.72257812 -5.29742187 9.85921875 -6 10 C-6.33 10.66 -6.66 11.32 -7 12 C-7.66 10.68 -8.32 9.36 -9 8 C-6.69 8 -4.38 8 -2 8 C-1.7834375 6.576875 -1.7834375 6.576875 -1.5625 5.125 C-1 2 -1 2 0 0 Z " fill="#9CCEE1" transform="translate(117,58)"/>
<path d="M0 0 C0.99 0 1.98 0 3 0 C3 6.27 3 12.54 3 19 C1.68 19 0.36 19 -1 19 C-0.83628906 18.49984375 -0.67257813 17.9996875 -0.50390625 17.484375 C0.1878911 14.0736532 0.10504665 10.71264243 0.0625 7.25 C0.05573242 6.20392578 0.05573242 6.20392578 0.04882812 5.13671875 C0.0371002 3.42444197 0.01916653 1.71220967 0 0 Z " fill="#DBFAE9" transform="translate(17,133)"/>
<path d="M0 0 C0.99 0 1.98 0 3 0 C4.35439668 2.70879335 4.06501451 5.00933268 4 8 C5.32 8 6.64 8 8 8 C8 10.64 8 13.28 8 16 C7.34 16 6.68 16 6 16 C5.18082358 14.27398621 4.36993984 12.5440353 3.5625 10.8125 C3.11003906 9.84957031 2.65757812 8.88664063 2.19140625 7.89453125 C1.09618578 5.23368414 0.45045204 2.83215245 0 0 Z " fill="#E7F8ED" transform="translate(176,136)"/>
<path d="M0 0 C0.33 0 0.66 0 1 0 C1 4.95 1 9.9 1 15 C0.01 15.33 -0.98 15.66 -2 16 C-2 13 -2 13 -1 10 C-2.32 10.33 -3.64 10.66 -5 11 C-1.85714286 3.57142857 -1.85714286 3.57142857 0 0 Z " fill="#CBF3DA" transform="translate(149,137)"/>
<path d="M0 0 C3.3 0 6.6 0 10 0 C10 2.97 10 5.94 10 9 C9.67 9 9.34 9 9 9 C9 6.36 9 3.72 9 1 C6.36 1 3.72 1 1 1 C1.33 2.65 1.66 4.3 2 6 C3.65 6.33 5.3 6.66 7 7 C6.67 8.32 6.34 9.64 6 11 C3.83125748 10.49396008 2.00032373 10.00016187 0 9 C0 6.03 0 3.06 0 0 Z " fill="#C8F4D9" transform="translate(193,143)"/>
<path d="M0 0 C2.31 0.33 4.62 0.66 7 1 C8.125 5.75 8.125 5.75 7 8 C4.03 8 1.06 8 -2 8 C-2.66 6.02 -3.32 4.04 -4 2 C-3.34 2 -2.68 2 -2 2 C-2 2.99 -2 3.98 -2 5 C0.64 5.33 3.28 5.66 6 6 C6 4.68 6 3.36 6 2 C4.02 2 2.04 2 0 2 C0 1.34 0 0.68 0 0 Z " fill="#C4EFD3" transform="translate(34,144)"/>
<path d="M0 0 C1.50433594 0.29197266 1.50433594 0.29197266 3.0390625 0.58984375 C4.19535156 0.82380859 4.19535156 0.82380859 5.375 1.0625 C5.375 1.7225 5.375 2.3825 5.375 3.0625 C4.385 3.0625 3.395 3.0625 2.375 3.0625 C2.375 6.0325 2.375 9.0025 2.375 12.0625 C1.385 11.4025 0.395 10.7425 -0.625 10.0625 C-0.8125 6.9375 -0.8125 6.9375 -0.625 4.0625 C0.035 4.0625 0.695 4.0625 1.375 4.0625 C1.375 3.4025 1.375 2.7425 1.375 2.0625 C-1.595 2.0625 -4.565 2.0625 -7.625 2.0625 C-7.625 1.4025 -7.625 0.7425 -7.625 0.0625 C-4.81015955 -1.34492022 -3.05563887 -0.60402164 0 0 Z " fill="#E7FAEF" transform="translate(26.625,128.9375)"/>
<path d="M0 0 C1.37671875 0.00966797 1.37671875 0.00966797 2.78125 0.01953125 C5.43865687 0.18371012 7.90626246 0.60015001 10.5 1.1875 C10.5 1.5175 10.5 1.8475 10.5 2.1875 C6.85347481 3.03769167 3.5512223 3.26910922 -0.1875 3.1875 C-3.99287145 3.01028314 -3.99287145 3.01028314 -7.5 4.1875 C-8.49 3.5275 -9.48 2.8675 -10.5 2.1875 C-6.84242447 0.51111122 -4.01532824 -0.06203457 0 0 Z " fill="#96CFE8" transform="translate(90.5,119.8125)"/>
<path d="M0 0 C2.97 0.495 2.97 0.495 6 1 C6 1.66 6 2.32 6 3 C7.98 3.66 9.96 4.32 12 5 C11.67 5.66 11.34 6.32 11 7 C5.70715835 7.34707158 5.70715835 7.34707158 3 7 C1 5.1875 1 5.1875 0 3 C0 2.01 0 1.02 0 0 Z " fill="#DAF6E8" transform="translate(84,145)"/>
<path d="M0 0 C6.2915723 -0.36297532 6.2915723 -0.36297532 9.2109375 1.1328125 C11 3 11 3 11.4609375 5.84765625 C11.43257812 6.90855469 11.40421875 7.96945313 11.375 9.0625 C11.36210938 10.12597656 11.34921875 11.18945312 11.3359375 12.28515625 C11 15 11 15 9 17 C7.86983399 11.97703996 8.22083908 8.02125926 9 3 C4.545 2.01 4.545 2.01 0 1 C0 0.67 0 0.34 0 0 Z " fill="#CFF4DC" transform="translate(87,133)"/>
<path d="M0 0 C8.79029799 0.30843151 16.03345739 3.56777413 24 7 C24 7.66 24 8.32 24 9 C7.48275862 4.13793103 7.48275862 4.13793103 0 1 C0 0.67 0 0.34 0 0 Z " fill="#3191B5" transform="translate(144,99)"/>
<path d="M0 0 C2.4993415 3.33245533 4.3518139 6.20917197 6 10 C5.67 10.66 5.34 11.32 5 12 C4.01 11.67 3.02 11.34 2 11 C1.67 12.65 1.34 14.3 1 16 C0.67 16 0.34 16 0 16 C0 10.72 0 5.44 0 0 Z " fill="#B1E4C5" transform="translate(131,136)"/>
<path d="M0 0 C0.66 0 1.32 0 2 0 C2.99 2.97 3.98 5.94 5 9 C4.34 9 3.68 9 3 9 C3 8.34 3 7.68 3 7 C1.68 7 0.36 7 -1 7 C-1 7.66 -1 8.32 -1 9 C-1.66 9 -2.32 9 -3 9 C-2.01 6.03 -1.02 3.06 0 0 Z " fill="#4E9CA5" transform="translate(36,158)"/>
<path d="M0 0 C0.66 0 1.32 0 2 0 C2 0.66 2 1.32 2 2 C3.04800781 2.13277344 4.09601563 2.26554688 5.17578125 2.40234375 C6.55470778 2.58057235 7.93361293 2.75896641 9.3125 2.9375 C10.00279297 3.02451172 10.69308594 3.11152344 11.40429688 3.20117188 C14.40142288 3.59210135 17.12450119 4.0415004 20 5 C20 5.33 20 5.66 20 6 C17.22882696 5.85919445 14.45817359 5.71256882 11.6875 5.5625 C10.50897461 5.50352539 10.50897461 5.50352539 9.30664062 5.44335938 C8.54931641 5.40146484 7.79199219 5.35957031 7.01171875 5.31640625 C6.31522217 5.27974854 5.61872559 5.24309082 4.90112305 5.20532227 C3 5 3 5 0 4 C-0.33 3.01 -0.66 2.02 -1 1 C-0.67 0.67 -0.34 0.34 0 0 Z " fill="#D4EFDF" transform="translate(84,155)"/>
<path d="M0 0 C1.23556641 0.01740234 1.23556641 0.01740234 2.49609375 0.03515625 C3.32238281 0.04417969 4.14867188 0.05320312 5 0.0625 C5.63808594 0.07410156 6.27617188 0.08570312 6.93359375 0.09765625 C6.93359375 0.75765625 6.93359375 1.41765625 6.93359375 2.09765625 C5.94359375 2.09765625 4.95359375 2.09765625 3.93359375 2.09765625 C3.93359375 4.07765625 3.93359375 6.05765625 3.93359375 8.09765625 C3.60359375 8.09765625 3.27359375 8.09765625 2.93359375 8.09765625 C2.93359375 6.11765625 2.93359375 4.13765625 2.93359375 2.09765625 C1.94359375 2.09765625 0.95359375 2.09765625 -0.06640625 2.09765625 C-0.39640625 4.40765625 -0.72640625 6.71765625 -1.06640625 9.09765625 C-1.72640625 9.09765625 -2.38640625 9.09765625 -3.06640625 9.09765625 C-3.1640625 2.9453125 -3.1640625 2.9453125 -3.06640625 1.09765625 C-2.06640625 0.09765625 -2.06640625 0.09765625 0 0 Z " fill="#569072" transform="translate(118.06640625,108.90234375)"/>
<path d="M0 0 C0.23460938 0.64453125 0.46921875 1.2890625 0.7109375 1.953125 C1.81161073 4.2077908 1.81161073 4.2077908 4.1640625 4.609375 C4.97617187 4.65578125 5.78828125 4.7021875 6.625 4.75 C7.85089844 4.83507812 7.85089844 4.83507812 9.1015625 4.921875 C9.72804688 4.94765625 10.35453125 4.9734375 11 5 C11.33 4.01 11.66 3.02 12 2 C12.99 2.33 13.98 2.66 15 3 C13.5625 5 13.5625 5 11 7 C7.23633647 7.51474617 3.44210849 7.72105424 0 6 C0 4.02 0 2.04 0 0 Z " fill="#378155" transform="translate(30,147)"/>
<path d="M0 0 C3.63 0 7.26 0 11 0 C11 0.66 11 1.32 11 2 C9.68 2.33 8.36 2.66 7 3 C6.34 5.31 5.68 7.62 5 10 C4.67 10 4.34 10 4 10 C4 7.36 4 4.72 4 2 C2.68 2 1.36 2 0 2 C0 1.34 0 0.68 0 0 Z " fill="#3A935D" transform="translate(185,131)"/>
<path d="M0 0 C2.97 0.495 2.97 0.495 6 1 C6 3.31 6 5.62 6 8 C4.02 8 2.04 8 0 8 C0 5.36 0 2.72 0 0 Z " fill="#BFE6CF" transform="translate(117,110)"/>
<path d="M0 0 C1.65 0 3.3 0 5 0 C5 0.33 5 0.66 5 1 C8.34252724 1.07427838 10.8035914 1.06546953 14 0 C14 0.99 14 1.98 14 3 C12.25215171 3.36463732 10.50159498 3.7163078 8.75 4.0625 C7.28820312 4.35833984 7.28820312 4.35833984 5.796875 4.66015625 C3.131881 4.98397535 1.51128277 4.85503199 -1 4 C-0.67 2.68 -0.34 1.36 0 0 Z " fill="#D1ECDF" transform="translate(48,152)"/>
<path d="M0 0 C0.33 0.66 0.66 1.32 1 2 C5.29 2 9.58 2 14 2 C14.33 2.66 14.66 3.32 15 4 C7.74 4 0.48 4 -7 4 C-7 3.34 -7 2.68 -7 2 C-6.01 1.67 -5.02 1.34 -4 1 C-4 1.66 -4 2.32 -4 3 C-2.68 2.67 -1.36 2.34 0 2 C0 1.34 0 0.68 0 0 Z " fill="#54956C" transform="translate(181,150)"/>
<path d="M0 0 C0 0.66 0 1.32 0 2 C1.32 2 2.64 2 4 2 C4 2.66 4 3.32 4 4 C4.66 4 5.32 4 6 4 C6 4.99 6 5.98 6 7 C1.52761347 5.58192622 -2.71146306 3.88695626 -7 2 C-4.35261084 0.5393715 -3.10551666 0 0 0 Z " fill="#C4EDF2" transform="translate(168,95)"/>
<path d="M0 0 C3.40667322 0.44824648 5.07914607 1.05276405 8 3 C8 3.66 8 4.32 8 5 C5.36 5 2.72 5 0 5 C-0.5625 3.0625 -0.5625 3.0625 -1 1 C-0.67 0.67 -0.34 0.34 0 0 Z " fill="#E6F6EB" transform="translate(34,134)"/>
<path d="M0 0 C1.65 0.33 3.3 0.66 5 1 C5 1.66 5 2.32 5 3 C4.01 3 3.02 3 2 3 C2.99 3.66 3.98 4.32 5 5 C4.67 6.32 4.34 7.64 4 9 C2.35 8.67 0.7 8.34 -1 8 C-0.67 7.34 -0.34 6.68 0 6 C0.99 6 1.98 6 3 6 C1.68 5.34 0.36 4.68 -1 4 C-0.67 2.68 -0.34 1.36 0 0 Z " fill="#538B69" transform="translate(100,109)"/>
<path d="M0 0 C5.78591511 -0.10477512 11.29309366 0.00749455 17 1 C15.80859375 2.54296875 15.80859375 2.54296875 14 4 C11.66015625 3.92578125 11.66015625 3.92578125 9.0625 3.3125 C8.20785156 3.12300781 7.35320312 2.93351563 6.47265625 2.73828125 C4.13608009 2.04063055 2.13624919 1.16477624 0 0 Z " fill="#237A47" transform="translate(87,156)"/>
<path d="M0 0 C2.67289025 3.87671106 2.01875653 7.79267603 1.625 12.25 C1.53992188 13.36761719 1.53992188 13.36761719 1.453125 14.5078125 C1.31223742 16.33935108 1.15748116 18.16981352 1 20 C0.67 20 0.34 20 0 20 C-0.33 15.38 -0.66 10.76 -1 6 C-1.99 6.495 -1.99 6.495 -3 7 C-2.25 2.25 -2.25 2.25 0 0 Z " fill="#218A48" transform="translate(150,133)"/>
<path d="M0 0 C0.66 0 1.32 0 2 0 C2.33 0.99 2.66 1.98 3 3 C5.97 3.495 5.97 3.495 9 4 C9 4.33 9 4.66 9 5 C2.11422188 6.01593448 -4.09811029 5.83854735 -11 5 C-10.67 4.34 -10.34 3.68 -10 3 C-7.98177083 3.03255208 -5.96354167 3.06510417 -3.9453125 3.09765625 C-1.91814596 3.12649242 -1.91814596 3.12649242 0 2 C0 1.34 0 0.68 0 0 Z " fill="#CEEEDB" transform="translate(125,150)"/>
<path d="M0 0 C2 3 2 3 3 5.5625 C3.86842753 8.12563162 3.86842753 8.12563162 6 10 C2.7 10 -0.6 10 -4 10 C-3.01 9.34 -2.02 8.68 -1 8 C-0.34 8.33 0.32 8.66 1 9 C0.34 8.01 -0.32 7.02 -1 6 C-0.625 2.8125 -0.625 2.8125 0 0 Z " fill="#2C8850" transform="translate(119,144)"/>
<path d="M0 0 C2.475 0.99 2.475 0.99 5 2 C5.72795155 6.20594226 6.04973814 8.80104745 5 13 C3.35 8.71 1.7 4.42 0 0 Z " fill="#DDF6E7" transform="translate(114,131)"/>
<path d="M0 0 C0 0.66 0 1.32 0 2 C0.66 2.33 1.32 2.66 2 3 C-3.94 2.34 -9.88 1.68 -16 1 C-16 0.67 -16 0.34 -16 0 C-10.47032059 -0.71033431 -5.50016964 -1.30267176 0 0 Z " fill="#3696C1" transform="translate(136,95)"/>
<path d="M0 0 C1.32 0.33 2.64 0.66 4 1 C3.67 2.32 3.34 3.64 3 5 C3.99 5.33 4.98 5.66 6 6 C0.70769231 8.21538462 0.70769231 8.21538462 -2.875 7.125 C-3.57625 6.75375 -4.2775 6.3825 -5 6 C-5 5.67 -5 5.34 -5 5 C-3.35 4.67 -1.7 4.34 0 4 C0 2.68 0 1.36 0 0 Z " fill="#D5EBDC" transform="translate(165,149)"/>
<path d="M0 0 C0.99 0 1.98 0 3 0 C3 0.66 3 1.32 3 2 C6.3 2 9.6 2 13 2 C9.32326162 3.83836919 5.95007553 4.93651813 2 6 C0 1.125 0 1.125 0 0 Z " fill="#E3F7E7" transform="translate(65,152)"/>
<path d="M0 0 C0.66 0 1.32 0 2 0 C2.33 0.66 2.66 1.32 3 2 C3.33 1.34 3.66 0.68 4 0 C4.66 0 5.32 0 6 0 C5.55090939 1.48199902 5.09043436 2.96055236 4.625 4.4375 C4.36976562 5.26121094 4.11453125 6.08492187 3.8515625 6.93359375 C3 9 3 9 1 10 C0.67 6.7 0.34 3.4 0 0 Z " fill="#DCF9E9" transform="translate(103,136)"/>
<path d="M0 0 C0.66 0.33 1.32 0.66 2 1 C2 2.65 2 4.3 2 6 C1.34 5.01 0.68 4.02 0 3 C-4.65145592 2.61975225 -4.65145592 2.61975225 -9 4 C-9.66 3.34 -10.32 2.68 -11 2 C-6.94641576 -0.70238949 -4.81689896 -0.22937614 0 0 Z " fill="#3E8259" transform="translate(42,131)"/>
<path d="M0 0 C-1.32 0.33 -2.64 0.66 -4 1 C-4 1.66 -4 2.32 -4 3 C-6.64 3 -9.28 3 -12 3 C-12 2.34 -12 1.68 -12 1 C-7.67265609 -1.22923777 -4.71599818 -0.92470553 0 0 Z " fill="#2397C8" transform="translate(180,119)"/>
<path d="M0 0 C3.71888239 0.50712033 6.73454239 1.11608215 10 3 C10 4.32 10 5.64 10 7 C7.5625 6.1875 7.5625 6.1875 5 5 C4.67 4.01 4.34 3.02 4 2 C2.68 2.33 1.36 2.66 0 3 C0 2.01 0 1.02 0 0 Z " fill="#E1FAF8" transform="translate(168,110)"/>
<path d="M0 0 C4.92991345 -0.28999491 8.09251769 -0.19703098 12 3 C12 3.99 12 4.98 12 6 C7.76570244 4.68938409 3.92592596 3.05643741 0 1 C0 0.67 0 0.34 0 0 Z " fill="#2B91BC" transform="translate(170,109)"/>
<path d="M0 0 C1.91595968 -0.08133791 3.83291932 -0.13934367 5.75 -0.1875 C7.35101563 -0.23970703 7.35101563 -0.23970703 8.984375 -0.29296875 C12 0 12 0 16 3 C10.72 2.67 5.44 2.34 0 2 C0 1.34 0 0.68 0 0 Z " fill="#FBFBEF" transform="translate(120,98)"/>
<path d="M0 0 C2.50037734 2.17424117 3.43628586 3.73045798 4 7 C1.69 7 -0.62 7 -3 7 C-2.01 4.69 -1.02 2.38 0 0 Z " fill="#C2F1D3" transform="translate(170,138)"/>
<path d="M0 0 C8.91426564 0.75544624 8.91426564 0.75544624 13 4 C14.3125 6.1875 14.3125 6.1875 15 8 C11.45756548 6.63408831 8.07372071 5.09068516 4.6875 3.375 C3.80449219 2.92898437 2.92148438 2.48296875 2.01171875 2.0234375 C1.34785156 1.68570313 0.68398437 1.34796875 0 1 C0 0.67 0 0.34 0 0 Z " fill="#C1EDF4" transform="translate(174,102)"/>
<path d="M0 0 C0.66 0.33 1.32 0.66 2 1 C2 1.99 2 2.98 2 4 C-1.50776784 5.60355101 -4.14354879 6.22036864 -8 6 C-3.375 1.125 -3.375 1.125 0 0 Z " fill="#1791C4" transform="translate(66,96)"/>
<path d="M0 0 C0.639375 0.2475 1.27875 0.495 1.9375 0.75 C2.2675 1.74 2.5975 2.73 2.9375 3.75 C5.5775 4.08 8.2175 4.41 10.9375 4.75 C10.9375 5.08 10.9375 5.41 10.9375 5.75 C2.16171525 6.51681614 2.16171525 6.51681614 -0.83984375 4.63671875 C-2.1875 3.25 -2.1875 3.25 -4.0625 0.75 C-2.0625 -0.25 -2.0625 -0.25 0 0 Z " fill="#B4E8EF" transform="translate(111.0625,77.25)"/>
<path d="M0 0 C0.33 0 0.66 0 1 0 C1.22331199 1.58129029 1.42804644 3.16521089 1.625 4.75 C1.74101563 5.63171875 1.85703125 6.5134375 1.9765625 7.421875 C2.00207817 10.22859878 1.44843844 11.63384866 0 14 C-0.66 14 -1.32 14 -2 14 C-2.33 14.66 -2.66 15.32 -3 16 C-3.66 15.34 -4.32 14.68 -5 14 C-4.34 14 -3.68 14 -3 14 C-0.79600832 9.44508386 -0.41153737 4.97093824 0 0 Z " fill="#AFE6C6" transform="translate(103,138)"/>
<path d="M0 0 C0.66 0 1.32 0 2 0 C3.4606285 2.64738916 4 3.89448334 4 7 C2.02 7 0.04 7 -2 7 C-1.34 4.69 -0.68 2.38 0 0 Z " fill="#C2F2D8" transform="translate(110,138)"/>
<path d="M0 0 C1.65 0 3.3 0 5 0 C3.125 5.75 3.125 5.75 2 8 C1.34 8 0.68 8 0 8 C-0.66 6.02 -1.32 4.04 -2 2 C-1.34 2 -0.68 2 0 2 C0 1.34 0 0.68 0 0 Z " fill="#C5F0D7" transform="translate(141,139)"/>
<path d="M0 0 C1.32 0 2.64 0 4 0 C6.1519437 3.22791555 6.20086443 4.28400809 6 8 C4.35 8 2.7 8 1 8 C1.33 5.69 1.66 3.38 2 1 C1.34 0.67 0.68 0.34 0 0 Z " fill="#B5E0C7" transform="translate(42,131)"/>
<path d="M0 0 C-0.33 0.33 -0.66 0.66 -1 1 C1.64 1.66 4.28 2.32 7 3 C7 3.33 7 3.66 7 4 C5.39620659 4.05416188 3.79188594 4.09286638 2.1875 4.125 C1.29417969 4.14820312 0.40085938 4.17140625 -0.51953125 4.1953125 C-3 4 -3 4 -6 2 C-6.33 1.34 -6.66 0.68 -7 0 C-3.98968256 -0.93423645 -3.13349732 -1.04449911 0 0 Z " fill="#0694DB" transform="translate(131,91)"/>
<path d="M0 0 C0 0.66 0 1.32 0 2 C-1.98 2.33 -3.96 2.66 -6 3 C-6.33 4.32 -6.66 5.64 -7 7 C-7.66 7 -8.32 7 -9 7 C-9 3 -9 3 -7.875 1.25 C-5.22990509 -0.5133966 -3.10417379 -0.20694492 0 0 Z " fill="#5DBFE6" transform="translate(124,67)"/>
<path d="M0 0 C0 0.66 0 1.32 0 2 C-0.66 2 -1.32 2 -2 2 C-2 2.99 -2 3.98 -2 5 C-3.98 5 -5.96 5 -8 5 C-7.6875 3.0625 -7.6875 3.0625 -7 1 C-4 0 -4 0 0 0 Z " fill="#F8F9F1" transform="translate(116,59)"/>
<path d="M0 0 C2.97 0.33 5.94 0.66 9 1 C9 1.66 9 2.32 9 3 C8.09507813 3.09087891 8.09507813 3.09087891 7.171875 3.18359375 C5.97304687 3.30927734 5.97304687 3.30927734 4.75 3.4375 C3.96109375 3.51871094 3.1721875 3.59992187 2.359375 3.68359375 C0.17635361 3.97634993 -1.8773182 4.42064419 -4 5 C-4 4.34 -4 3.68 -4 3 C-3.01 2.67 -2.02 2.34 -1 2 C-0.67 1.34 -0.34 0.68 0 0 Z " fill="#EBFBFC" transform="translate(108,51)"/>
<path d="M0 0 C0.33 0.66 0.66 1.32 1 2 C1.66 2 2.32 2 3 2 C3 8.27 3 14.54 3 21 C2.67 21 2.34 21 2 21 C1.92652344 19.30230469 1.92652344 19.30230469 1.8515625 17.5703125 C1.77653486 16.08851661 1.70098703 14.606747 1.625 13.125 C1.57859375 12.00544922 1.57859375 12.00544922 1.53125 10.86328125 C1.44356169 6.46526812 1.44356169 6.46526812 -1 3 C-0.67 2.01 -0.34 1.02 0 0 Z " fill="#D7F4DE" transform="translate(126,131)"/>
<path d="M0 0 C0.99 0.66 1.98 1.32 3 2 C-4.92 2.495 -4.92 2.495 -13 3 C-7.99387459 0.49693729 -5.64431526 -0.29706922 0 0 Z " fill="#2B8EBE" transform="translate(93,94)"/>
<path d="M0 0 C6.0546875 -0.1953125 6.0546875 -0.1953125 8 0 C8.66 0.66 9.32 1.32 10 2 C6.04 2.66 2.08 3.32 -2 4 C-1.34 2.68 -0.68 1.36 0 0 Z " fill="#90BFCB" transform="translate(110,54)"/>
<path d="M0 0 C1.9375 0.625 1.9375 0.625 4 2 C4.75 5.125 4.75 5.125 5 8 C3.125 7.875 3.125 7.875 1 7 C-0.25 3.9375 -0.25 3.9375 -1 1 C-0.67 0.67 -0.34 0.34 0 0 Z " fill="#0D8939" transform="translate(132,133)"/>
<path d="M0 0 C0.99 0 1.98 0 3 0 C3 0.99 3 1.98 3 3 C2.34 3 1.68 3 1 3 C1 5.31 1 7.62 1 10 C-0.32 9.67 -1.64 9.34 -3 9 C-2.01 6.03 -1.02 3.06 0 0 Z " fill="#EFF8F2" transform="translate(97,107)"/>
<path d="M0 0 C0.66 0.33 1.32 0.66 2 1 C1.01 1.33 0.02 1.66 -1 2 C-1 2.66 -1 3.32 -1 4 C-7.96428571 6.27678571 -7.96428571 6.27678571 -12 5 C-10.04578965 4.13644222 -8.08648653 3.28440066 -6.125 2.4375 C-5.03445312 1.96183594 -3.94390625 1.48617187 -2.8203125 0.99609375 C-1.88960937 0.66738281 -0.95890625 0.33867188 0 0 Z " fill="#C2E9F2" transform="translate(60,103)"/>
<path d="M0 0 C2.97 0 5.94 0 9 0 C9.33 1.65 9.66 3.3 10 5 C9.34 5 8.68 5 8 5 C7.67 5.66 7.34 6.32 7 7 C6.67 6.01 6.34 5.02 6 4 C6.33 3.34 6.66 2.68 7 2 C4.69 1.67 2.38 1.34 0 1 C0 0.67 0 0.34 0 0 Z " fill="#CDF1DB" transform="translate(166,147)"/>
<path d="M0 0 C0.99 0 1.98 0 3 0 C1.6 10.4 1.6 10.4 -1 13 C-1.02708567 11.39592672 -1.04643483 9.7917215 -1.0625 8.1875 C-1.07410156 7.29417969 -1.08570312 6.40085938 -1.09765625 5.48046875 C-1 3 -1 3 0 0 Z " fill="#1B8742" transform="translate(80,135)"/>
<path d="M0 0 C1.65 0 3.3 0 5 0 C5 2.64 5 5.28 5 8 C4.34 8 3.68 8 3 8 C3 7.34 3 6.68 3 6 C2.34 5.67 1.68 5.34 1 5 C1.66 5 2.32 5 3 5 C3 4.01 3 3.02 3 2 C2.01 2 1.02 2 0 2 C0 1.34 0 0.68 0 0 Z " fill="#EAFAF5" transform="translate(197,144)"/>
<path d="M0 0 C1.32 0 2.64 0 4 0 C4 0.66 4 1.32 4 2 C5.175625 2.185625 5.175625 2.185625 6.375 2.375 C9 3 9 3 11 5 C10.67 5.66 10.34 6.32 10 7 C9.01 6.67 8.02 6.34 7 6 C7 5.34 7 4.68 7 4 C6.401875 3.896875 5.80375 3.79375 5.1875 3.6875 C2.71756736 2.91123545 1.67748765 1.92911079 0 0 Z " fill="#F8F9F0" transform="translate(180,102)"/>
<path d="M0 0 C2.31 0.66 4.62 1.32 7 2 C6.67 2.66 6.34 3.32 6 4 C5.34 3.67 4.68 3.34 4 3 C4 3.66 4 4.32 4 5 C2.35 4.67 0.7 4.34 -1 4 C-0.67 2.68 -0.34 1.36 0 0 Z " fill="#0491D4" transform="translate(116,88)"/>
<path d="M0 0 C0.33 0 0.66 0 1 0 C1.04898438 0.84304687 1.09796875 1.68609375 1.1484375 2.5546875 C1.22320312 3.65039062 1.29796875 4.74609375 1.375 5.875 C1.44460937 6.96554688 1.51421875 8.05609375 1.5859375 9.1796875 C1.73253491 12.13046474 1.73253491 12.13046474 4 14 C1.69 14 -0.62 14 -3 14 C-2.67 13.34 -2.34 12.68 -2 12 C-1.34 12 -0.68 12 0 12 C0 8.04 0 4.08 0 0 Z " fill="#25774C" transform="translate(130,140)"/>
<path d="M0 0 C1.32 0 2.64 0 4 0 C3.85904936 1.6254308 3.71207913 3.25034051 3.5625 4.875 C3.48128906 5.77992188 3.40007812 6.68484375 3.31640625 7.6171875 C3 10 3 10 2 12 C0.26043342 10.26043342 0.62809614 7.8063378 0.4375 5.4375 C0.35371094 4.42558594 0.26992187 3.41367188 0.18359375 2.37109375 C0.12300781 1.58863281 0.06242188 0.80617187 0 0 Z " fill="#078535" transform="translate(202,132)"/>
<path d="M0 0 C0.99 0 1.98 0 3 0 C4.60725635 3.21451269 4.05748185 6.43612536 4 10 C1.04816899 7.04816899 0.91336012 4.04488053 0 0 Z " fill="#D9F3E0" transform="translate(176,136)"/>
<path d="M0 0 C2.83374881 3.20336822 3.5205537 5.78087253 4 10 C3.34 10 2.68 10 2 10 C2 8.68 2 7.36 2 6 C0.68 6.33 -0.64 6.66 -2 7 C-2 6.34 -2 5.68 -2 5 C-1.34 5 -0.68 5 0 5 C-0.2784375 4.0409375 -0.2784375 4.0409375 -0.5625 3.0625 C-0.7790625 2.0415625 -0.7790625 2.0415625 -1 1 C-0.67 0.67 -0.34 0.34 0 0 Z " fill="#338B54" transform="translate(174,134)"/>
<path d="M0 0 C2.875 0.3125 2.875 0.3125 6 1 C6.66 1.99 7.32 2.98 8 4 C6.824375 3.9690625 6.824375 3.9690625 5.625 3.9375 C3.01885039 3.81315937 3.01885039 3.81315937 1 5 C0.67 3.35 0.34 1.7 0 0 Z " fill="#2EB1DD" transform="translate(101,77)"/>
<path d="M0 0 C1.32 0 2.64 0 4 0 C3.01 2.97 2.02 5.94 1 9 C0.67 8.01 0.34 7.02 0 6 C-2.01508358 5.26676204 -2.01508358 5.26676204 -4 5 C-2.68 4.67 -1.36 4.34 0 4 C0 2.68 0 1.36 0 0 Z " fill="#B2E4EB" transform="translate(32,158)"/>
<path d="M0 0 C3 1 3 1 5 3 C5.625 5.125 5.625 5.125 6 7 C4.68 7 3.36 7 2 7 C1.87625 6.195625 1.7525 5.39125 1.625 4.5625 C1.315625 3.2940625 1.315625 3.2940625 1 2 C0.34 1.67 -0.32 1.34 -1 1 C-0.67 0.67 -0.34 0.34 0 0 Z " fill="#C1E3E8" transform="translate(17,160)"/>
<path d="M0 0 C0 0.33 0 0.66 0 1 C-2.31 1 -4.62 1 -7 1 C-6.79375 2.11375 -6.5875 3.2275 -6.375 4.375 C-6.25125 5.57125 -6.1275 6.7675 -6 8 C-6.66 8.66 -7.32 9.32 -8 10 C-8 7.03 -8 4.06 -8 1 C-8.66 0.67 -9.32 0.34 -10 0 C-6.7169902 -1.6415049 -3.57454967 -0.51888624 0 0 Z " fill="#D4F6F7" transform="translate(52,157)"/>
<path d="M0 0 C1.67542976 0.28604898 3.34385343 0.61781233 5 1 C2.77174356 3.22825644 1.34238372 3.69239369 -1.625 4.625 C-2.44226562 4.88539062 -3.25953125 5.14578125 -4.1015625 5.4140625 C-4.72804687 5.60742188 -5.35453125 5.80078125 -6 6 C-6 5.34 -6 4.68 -6 4 C-4.36368108 2.95107762 -2.69514137 1.95093297 -1 1 C-0.67 0.67 -0.34 0.34 0 0 Z " fill="#C1F0F8" transform="translate(54,98)"/>
<path d="M0 0 C0 0.33 0 0.66 0 1 C-3.63 1 -7.26 1 -11 1 C-10 -1 -10 -1 -8.3125 -1.75 C-5.17326781 -2.08937645 -2.91097894 -1.12469641 0 0 Z " fill="#C5F7F7" transform="translate(107,87)"/>
<path d="M0 0 C1.65 0 3.3 0 5 0 C4.67 1.32 4.34 2.64 4 4 C2.02 4 0.04 4 -2 4 C-1.34 3.67 -0.68 3.34 0 3 C0 2.01 0 1.02 0 0 Z " fill="#75B5BC" transform="translate(55,163)"/>
<path d="M0 0 C2.31 0 4.62 0 7 0 C7 0.66 7 1.32 7 2 C6.01 2 5.02 2 4 2 C4 4.31 4 6.62 4 9 C3.67 9 3.34 9 3 9 C3 6.69 3 4.38 3 2 C2.01 2 1.02 2 0 2 C0 1.34 0 0.68 0 0 Z " fill="#4B919E" transform="translate(45,158)"/>
<path d="M0 0 C0 1.32 0 2.64 0 4 C-2.64 4 -5.28 4 -8 4 C-8 3.01 -8 2.02 -8 1 C-2.25 0 -2.25 0 0 0 Z " fill="#F3F6F5" transform="translate(160,154)"/>
<path d="M0 0 C0.061875 0.61875 0.12375 1.2375 0.1875 1.875 C0.828919 4.27761141 0.828919 4.27761141 3.5625 5.25 C4.366875 5.4975 5.17125 5.745 6 6 C5.01 6.495 5.01 6.495 4 7 C3.34786708 9.02463255 3.34786708 9.02463255 3 11 C0.84694043 7.14243493 -0.39253254 4.44870215 0 0 Z " fill="#D3F1DF" transform="translate(135,129)"/>
<path d="M0 0 C0.99 0 1.98 0 3 0 C3 1.98 3 3.96 3 6 C1.68 6 0.36 6 -1 6 C-0.67 4.02 -0.34 2.04 0 0 Z " fill="#1C8A43" transform="translate(111,131)"/>
<path d="M0 0 C0.33 0.99 0.66 1.98 1 3 C-1.64 3 -4.28 3 -7 3 C-7.33 3.66 -7.66 4.32 -8 5 C-8 3.68 -8 2.36 -8 1 C-5.29120665 -0.35439668 -2.99066732 -0.06501451 0 0 Z " fill="#E8FCEF" transform="translate(133,128)"/>
<path d="M0 0 C0.66 0.99 1.32 1.98 2 3 C-0.3125 4.5625 -0.3125 4.5625 -3 6 C-3.99 5.67 -4.98 5.34 -6 5 C-4.06745228 2.9754262 -2.36841312 1.57894208 0 0 Z " fill="#3A8FB8" transform="translate(41,108)"/>
<path d="M0 0 C2.475 0.495 2.475 0.495 5 1 C5 2.32 5 3.64 5 5 C3.68 5 2.36 5 1 5 C0.67 3.35 0.34 1.7 0 0 Z " fill="#0F893E" transform="translate(136,144)"/>
<path d="M0 0 C2.29633824 3.44450737 2.54016485 5.93812283 3 10 C2.01 9.67 1.02 9.34 0 9 C0 6.03 0 3.06 0 0 Z " fill="#E9F3E8" transform="translate(132,144)"/>
<path d="M0 0 C1.4540625 0.0309375 1.4540625 0.0309375 2.9375 0.0625 C2.6075 1.7125 2.2775 3.3625 1.9375 5.0625 C-1.05582739 4.0647242 -2.01016315 3.3102975 -4.0625 1.0625 C-3.0625 0.0625 -3.0625 0.0625 0 0 Z " fill="#FDFAFE" transform="translate(105.0625,129.9375)"/>
<path d="M0 0 C0.66 0.99 1.32 1.98 2 3 C4.05003955 4.19232613 4.05003955 4.19232613 6 5 C3.35261084 6.4606285 2.10551666 7 -1 7 C-0.67 4.69 -0.34 2.38 0 0 Z " fill="#C0EAD2" transform="translate(98,110)"/>
<path d="M0 0 C1.65 0.33 3.3 0.66 5 1 C4 4 4 4 1.9375 5.1875 C1.298125 5.455625 0.65875 5.72375 0 6 C-1.125 2.25 -1.125 2.25 0 0 Z " fill="#E1F6F5" transform="translate(27,112)"/>
<path d="M0 0 C0.66 0 1.32 0 2 0 C2 2.31 2 4.62 2 7 C1.34 7 0.68 7 0 7 C-0.33 6.01 -0.66 5.02 -1 4 C-2.49985609 2.33289654 -2.49985609 2.33289654 -4 1 C-2.68 1.33 -1.36 1.66 0 2 C0 1.34 0 0.68 0 0 Z " fill="#ABE8C6" transform="translate(105,110)"/>
<path d="M0 0 C0.66 0 1.32 0 2 0 C2 0.99 2 1.98 2 3 C3.32 2.67 4.64 2.34 6 2 C6 2.66 6 3.32 6 4 C4.68 4 3.36 4 2 4 C2 4.99 2 5.98 2 7 C1.34 7 0.68 7 0 7 C0 4.69 0 2.38 0 0 Z " fill="#44909E" transform="translate(53,159)"/>
<path d="M0 0 C0.33 0 0.66 0 1 0 C1 2.64 1 5.28 1 8 C1.66 8.33 2.32 8.66 3 9 C2.01 9 1.02 9 0 9 C-2 6 -2 6 -1.6875 3.375 C-1 1 -1 1 0 0 Z " fill="#D3F8F8" transform="translate(25,159)"/>
<path d="M0 0 C0.33 0.99 0.66 1.98 1 3 C-2.99560608 5.83022097 -6.42737323 4.76210446 -11 4 C-11 3.67 -11 3.34 -11 3 C-10.28972656 2.86722656 -9.57945313 2.73445312 -8.84765625 2.59765625 C-7.92855469 2.42105469 -7.00945313 2.24445313 -6.0625 2.0625 C-4.68771484 1.80146484 -4.68771484 1.80146484 -3.28515625 1.53515625 C-1.04710156 1.22285012 -1.04710156 1.22285012 0 0 Z " fill="#C9EBD5" transform="translate(44,151)"/>
<path d="M0 0 C0 0.66 0 1.32 0 2 C-4.455 2.495 -4.455 2.495 -9 3 C-9 2.34 -9 1.68 -9 1 C-6.04335481 -0.4783226 -3.25770263 -0.06032783 0 0 Z " fill="#6BB5CD" transform="translate(131,123)"/>
<path d="M0 0 C1.32 0.33 2.64 0.66 4 1 C4 1.99 4 2.98 4 4 C1.69 4 -0.62 4 -3 4 C-2.01 2.68 -1.02 1.36 0 0 Z " fill="#1C96D1" transform="translate(132,89)"/>
<path d="M0 0 C0.99 0.33 1.98 0.66 3 1 C2.01 2.485 2.01 2.485 1 4 C-2.96 3.67 -6.92 3.34 -11 3 C-11 2.67 -11 2.34 -11 2 C-7.37 2 -3.74 2 0 2 C0 1.34 0 0.68 0 0 Z " fill="#3BA9CF" transform="translate(107,86)"/>
<path d="M0 0 C2.64 0 5.28 0 8 0 C6.625 2 6.625 2 5 4 C4.34 4 3.68 4 3 4 C2.67 4.99 2.34 5.98 2 7 C2 5.68 2 4.36 2 3 C2.66 3 3.32 3 4 3 C4 2.34 4 1.68 4 1 C2.68 0.67 1.36 0.34 0 0 Z " fill="#74B6C7" transform="translate(120,66)"/>
<path d="M0 0 C0.66 0 1.32 0 2 0 C2.66 0.66 3.32 1.32 4 2 C4.66 1.67 5.32 1.34 6 1 C5.34 3.31 4.68 5.62 4 8 C2.22293791 5.33440687 1.12451727 2.9719385 0 0 Z " fill="#3E8A92" transform="translate(18,158)"/>
<path d="M0 0 C2.64 0.33 5.28 0.66 8 1 C8 2.98 8 4.96 8 7 C7.608125 6.38125 7.21625 5.7625 6.8125 5.125 C4.72282509 2.67503632 3.02536673 1.98120002 0 1 C0 0.67 0 0.34 0 0 Z " fill="#B4E0C3" transform="translate(95,131)"/>
<path d="M0 0 C3.3125 -0.25 3.3125 -0.25 7 0 C8.9375 2 8.9375 2 10 4 C3.47692308 3.38461538 3.47692308 3.38461538 1.0625 1.4375 C0.711875 0.963125 0.36125 0.48875 0 0 Z " fill="#0C8AC8" transform="translate(159,98)"/>
<path d="M0 0 C0.33 0.99 0.66 1.98 1 3 C1.99 3.33 2.98 3.66 4 4 C1.03 4 -1.94 4 -5 4 C-2 1 -2 1 0 0 Z " fill="#C9F7F6" transform="translate(124,84)"/>
<path d="M0 0 C2.31 0 4.62 0 7 0 C6.67 0.99 6.34 1.98 6 3 C4.02 3 2.04 3 0 3 C0 2.01 0 1.02 0 0 Z " fill="#059FE0" transform="translate(110,85)"/>
<path d="M0 0 C2.02045442 0.60183749 4.02111039 1.27306096 6 2 C6.33 2.66 6.66 3.32 7 4 C5.02 4 3.04 4 1 4 C0.67 2.68 0.34 1.36 0 0 Z " fill="#0CA8E4" transform="translate(103,80)"/>
<path d="M0 0 C2.31 0 4.62 0 7 0 C7.33 1.32 7.66 2.64 8 4 C5.36 3.01 2.72 2.02 0 1 C0 0.67 0 0.34 0 0 Z " fill="#C5E8D8" transform="translate(35,133)"/>
<path d="M0 0 C1.65 0 3.3 0 5 0 C3.625 2.5 3.625 2.5 2 5 C1.34 5 0.68 5 0 5 C0 3.35 0 1.7 0 0 Z " fill="#E5EEED" transform="translate(20,121)"/>
<path d="M0 0 C1.9375 0.3125 1.9375 0.3125 4 1 C4.33 1.99 4.66 2.98 5 4 C3.35 4.33 1.7 4.66 0 5 C0 3.35 0 1.7 0 0 Z " fill="#F3F8F6" transform="translate(152,120)"/>
<path d="M0 0 C2.97 0.495 2.97 0.495 6 1 C6.33 2.65 6.66 4.3 7 6 C1.125 2.25 1.125 2.25 0 0 Z " fill="#B8E5ED" transform="translate(197,116)"/>
</svg>
