<?xml version="1.0" standalone="no"?>
<!DOCTYPE svg PUBLIC "-//W3C//DTD SVG 20010904//EN"
 "http://www.w3.org/TR/2001/REC-SVG-20010904/DTD/svg10.dtd">
<svg version="1.0" xmlns="http://www.w3.org/2000/svg"
 width="410.000000pt" height="123.000000pt" viewBox="0 0 410.000000 123.000000"
 preserveAspectRatio="xMidYMid meet">

<g transform="translate(0.000000,123.000000) scale(0.100000,-0.100000)"
fill="#000000" stroke="none">
<path d="M490 1174 c-207 -44 -381 -210 -435 -414 -19 -71 -19 -219 0 -290 56
-213 243 -384 458 -420 299 -51 588 134 662 425 19 76 19 204 0 280 -53 209
-228 375 -440 420 -86 18 -160 18 -245 -1z m243 -19 c105 -22 192 -70 272
-150 114 -113 165 -234 165 -390 0 -156 -51 -279 -164 -391 -216 -215 -552
-219 -775 -10 -114 107 -171 240 -171 398 0 161 49 280 164 394 137 137 318
190 509 149z"/>
<path d="M521 1113 c1 -10 5 -29 10 -43 l9 -25 -4 27 c-2 15 1 25 5 22 11 -6
11 -1 3 20 -8 21 -24 20 -23 -1z"/>
<path d="M558 1106 c-6 -32 -1 -56 13 -56 10 0 10 24 0 60 l-7 25 -6 -29z"/>
<path d="M651 1103 c2 -24 2 -25 6 -5 6 32 25 27 21 -5 -2 -20 -8 -28 -20 -27
-10 1 -18 -2 -18 -7 0 -16 38 -10 44 7 13 34 7 64 -14 64 -15 0 -20 -6 -19
-27z"/>
<path d="M470 1073 c0 -31 3 -43 9 -34 5 7 7 23 4 35 l-4 21 10 -21 c9 -20 31
-42 31 -30 0 7 -41 76 -46 76 -2 0 -4 -21 -4 -47z"/>
<path d="M718 1086 c-16 -32 -16 -34 2 -29 12 3 20 -1 23 -14 3 -10 5 3 6 30
1 55 -9 60 -31 13z m22 -1 c0 -8 -4 -15 -10 -15 -5 0 -7 7 -4 15 4 8 8 15 10
15 2 0 4 -7 4 -15z"/>
<path d="M421 1086 c-1 -15 -4 -16 -16 -6 -13 11 -13 7 1 -26 19 -46 30 -59
19 -24 -8 25 -8 25 14 6 11 -11 21 -14 21 -9 0 6 -6 13 -14 16 -8 3 -16 18
-19 34 -2 15 -5 20 -6 9z"/>
<path d="M787 1094 c-7 -7 2 -65 12 -76 3 -4 14 11 23 33 19 45 16 52 -6 12
-13 -24 -15 -25 -17 -8 -1 11 -1 26 0 33 2 13 -2 15 -12 6z"/>
<path d="M368 1054 c6 -11 18 -28 27 -39 15 -19 15 -18 1 12 -9 17 -21 35 -27
39 -8 4 -8 1 -1 -12z"/>
<path d="M766 1043 c-6 -14 -5 -15 5 -6 7 7 10 15 7 18 -3 3 -9 -2 -12 -12z"/>
<path d="M315 1040 c-6 -9 1 -25 24 -59 8 -12 12 -12 25 -2 14 12 14 16 -1 42
-18 29 -37 37 -48 19z m39 -22 c21 -30 7 -46 -15 -17 -10 13 -19 27 -19 32 0
15 19 6 34 -15z"/>
<path d="M890 1027 c-29 -43 -34 -53 -19 -39 7 6 21 12 30 12 25 0 34 19 17
36 -11 12 -16 10 -28 -9z m30 -7 c0 -5 -7 -10 -16 -10 -8 0 -12 5 -9 10 3 6
10 10 16 10 5 0 9 -4 9 -10z"/>
<path d="M560 1029 c-70 -9 -129 -30 -183 -68 -217 -149 -248 -443 -68 -634
240 -254 664 -121 724 226 46 268 -194 509 -473 476z m76 -36 c20 -27 17 -33
-16 -33 -34 0 -35 2 -18 30 16 24 17 24 34 3z m16 -100 l3 -58 58 -3 c56 -3
57 -4 57 -32 0 -28 -1 -29 -57 -32 l-58 -3 -3 -122 -3 -123 -29 0 -29 0 -3
123 -3 122 -57 3 c-57 3 -58 4 -58 32 0 28 1 29 58 32 l57 3 3 58 c3 56 4 57
32 57 28 0 29 -1 32 -57z m-72 -3 c0 -49 -1 -50 -31 -50 l-30 0 28 50 c15 27
29 50 31 50 1 0 2 -22 2 -50z m114 -2 l27 -48 -31 0 c-30 0 -30 1 -30 52 0 28
1 49 3 47 2 -2 16 -25 31 -51z m-144 -133 c0 -2 -34 -66 -75 -141 -41 -75 -75
-138 -75 -140 0 -2 99 -4 220 -4 121 0 220 2 220 4 0 2 -34 65 -75 139 -41 75
-75 138 -75 141 0 4 17 6 38 6 l37 -1 96 -177 97 -177 -169 -3 c-93 -1 -245
-1 -338 0 l-170 3 97 177 97 178 38 0 c20 0 37 -2 37 -5z m-120 -396 c0 -5 -6
-7 -12 -3 -7 4 -5 -2 6 -14 17 -20 17 -22 2 -28 -10 -4 -23 -1 -29 6 -10 10
-8 12 7 6 19 -6 19 -6 3 12 -9 10 -14 22 -10 25 10 11 33 8 33 -4z m40 -39 c5
0 11 12 13 28 4 25 4 25 6 -5 1 -27 -3 -33 -19 -33 -16 0 -20 6 -19 33 2 30 2
30 6 5 2 -16 8 -28 13 -28z m78 20 c0 -16 -4 -30 -9 -30 -5 0 -9 6 -9 13 0 8
-4 7 -10 -3 -7 -11 -10 -7 -10 18 0 24 4 32 18 32 14 0 19 -8 20 -30z m52 4
c13 -33 14 -32 -15 -30 -27 1 -27 1 -19 34 8 29 22 28 34 -4z m60 -4 c0 -23
-4 -30 -20 -30 -16 0 -20 7 -20 30 0 23 4 30 20 30 16 0 20 -7 20 -30z m58 2
c9 -27 8 -29 -18 -29 -26 0 -27 2 -18 29 6 15 14 28 18 28 4 0 12 -13 18 -28z
m32 16 c0 -9 3 -8 10 2 14 23 18 8 6 -22 l-12 -28 -11 30 c-6 17 -7 30 -2 30
5 0 9 -6 9 -12z m81 -20 c6 -23 4 -26 -17 -24 -24 1 -29 12 -18 41 9 22 27 14
35 -17z"/>
<path d="M440 435 c0 -14 5 -25 10 -25 6 0 10 5 10 10 0 6 7 10 15 10 8 0 15
7 15 15 0 9 -9 15 -25 15 -20 0 -25 -5 -25 -25z"/>
<path d="M520 435 c0 -14 5 -25 11 -25 5 0 8 4 4 9 -3 5 3 12 12 14 16 4 15 5
-2 7 l-20 1 20 9 c19 8 19 9 -2 9 -18 1 -23 -5 -23 -24z"/>
<path d="M588 453 c6 -2 12 -13 12 -24 0 -10 5 -19 10 -19 6 0 10 9 10 19 0
11 6 22 13 24 6 3 -4 5 -23 5 -19 0 -29 -2 -22 -5z"/>
<path d="M660 434 c0 -22 2 -25 15 -14 10 9 15 9 15 1 0 -6 4 -11 9 -11 5 0 9
11 9 25 0 20 -6 25 -24 25 -19 0 -24 -5 -24 -26z"/>
<path d="M743 443 c-3 -10 -7 -21 -9 -24 -2 -3 10 -6 26 -6 31 0 34 4 24 31
-8 21 -33 20 -41 -1z"/>
<path d="M280 1016 c0 -4 11 -21 25 -38 14 -16 25 -26 25 -21 -1 11 -50 70
-50 59z"/>
<path d="M931 986 c-22 -24 -27 -41 -12 -50 5 -3 8 2 7 12 -1 11 5 16 19 15
11 -1 15 0 8 3 -7 3 -9 12 -6 20 4 11 9 12 19 3 9 -7 14 -8 14 -1 0 21 -29 20
-49 -2z"/>
<path d="M239 980 c-11 -8 -8 -15 18 -42 28 -27 33 -29 39 -15 13 35 -27 75
-57 57z m51 -48 c0 -12 -6 -10 -25 8 -13 12 -22 27 -19 32 8 12 44 -21 44 -40z"/>
<path d="M973 943 c-16 -15 -22 -22 -13 -15 26 19 32 14 14 -13 -24 -37 -11
-41 23 -8 16 15 19 19 6 9 -27 -23 -30 -15 -7 20 24 36 11 40 -23 7z"/>
<path d="M216 924 c18 -15 18 -15 -8 -9 -36 7 -35 -6 2 -33 36 -27 54 -29 20
-2 l-25 20 35 -6 35 -5 -30 25 c-16 14 -34 26 -39 26 -6 0 -1 -7 10 -16z"/>
<path d="M1008 886 c-34 -25 -18 -65 15 -41 10 7 14 16 8 19 -5 3 -11 0 -14
-6 -2 -7 -8 -9 -13 -5 -5 5 -1 15 10 23 27 20 47 18 39 -3 -5 -14 -3 -15 7 -6
29 27 -19 45 -52 19z"/>
<path d="M157 873 c-13 -12 -7 -23 23 -38 31 -16 50 -13 50 8 0 8 -3 7 -9 -2
-5 -7 -14 -10 -20 -7 -6 4 -9 11 -6 16 3 4 -5 6 -17 2 -17 -4 -20 -2 -15 11 7
18 5 21 -6 10z"/>
<path d="M126 814 c-4 -11 5 -19 30 -30 20 -8 39 -13 42 -10 3 3 0 6 -7 6 -6
0 -16 11 -21 25 -11 28 -35 33 -44 9z m34 -14 c0 -5 -7 -7 -15 -4 -8 4 -12 10
-9 15 6 11 24 2 24 -11z"/>
<path d="M1020 820 c-13 -8 -12 -10 2 -10 11 0 17 -7 16 -17 -4 -53 16 -66 67
-43 14 7 8 8 -19 3 -28 -4 -37 -3 -32 6 4 6 1 11 -6 11 -7 1 3 14 22 30 l34
30 -34 0 c-19 0 -42 -5 -50 -10z m50 -4 c0 -11 -19 -15 -25 -6 -3 5 1 10 9 10
9 0 16 -2 16 -4z"/>
<path d="M1059 711 c8 -5 11 -16 8 -25 -8 -20 -6 -20 38 1 41 19 30 33 -25 33
-24 0 -31 -3 -21 -9z m51 -11 c-19 -13 -30 -13 -30 0 0 6 10 10 23 10 18 0 19
-2 7 -10z"/>
<path d="M135 700 c3 -5 15 -10 26 -10 10 0 19 5 19 10 0 6 -12 10 -26 10 -14
0 -23 -4 -19 -10z"/>
<path d="M90 680 c0 -5 9 -10 20 -10 11 0 20 5 20 10 0 6 -9 10 -20 10 -11 0
-20 -4 -20 -10z"/>
<path d="M148 663 c7 -3 16 -2 19 1 4 3 -2 6 -13 5 -11 0 -14 -3 -6 -6z"/>
<path d="M1066 651 c-4 -5 3 -7 14 -4 11 3 20 0 20 -6 0 -6 -6 -11 -14 -11 -8
0 -17 -3 -20 -8 -2 -4 13 -6 35 -4 30 3 39 8 39 23 0 15 -7 19 -34 19 -19 0
-37 -4 -40 -9z m64 -11 c0 -5 -4 -10 -10 -10 -5 0 -10 5 -10 10 0 6 5 10 10
10 6 0 10 -4 10 -10z"/>
<path d="M123 639 c-44 -13 -41 -24 7 -37 35 -9 39 -8 29 4 -9 11 -9 18 1 29
14 17 9 17 -37 4z m17 -19 c0 -5 -4 -10 -9 -10 -6 0 -13 5 -16 10 -3 6 1 10 9
10 9 0 16 -4 16 -10z"/>
<path d="M1077 584 c3 -9 0 -20 -8 -25 -9 -6 -1 -7 21 -3 49 9 58 21 26 34
-38 14 -46 13 -39 -6z m43 -10 c0 -2 -7 -4 -15 -4 -8 0 -15 4 -15 10 0 5 7 7
15 4 8 -4 15 -8 15 -10z"/>
<path d="M96 571 c-3 -4 7 -6 22 -4 l27 4 -27 -16 c-37 -21 -35 -25 10 -24 33
1 34 2 12 9 -14 4 -20 8 -14 9 5 1 19 8 30 16 18 13 17 14 -18 15 -20 0 -39
-4 -42 -9z"/>
<path d="M1085 525 c34 -16 72 -21 45 -6 -8 5 -28 11 -45 14 l-30 6 30 -14z"/>
<path d="M115 500 c-13 -6 -5 -7 24 -3 51 7 50 -10 -2 -27 l-32 -10 35 5 c34
5 53 22 44 37 -7 10 -43 9 -69 -2z"/>
<path d="M1050 500 c0 -13 20 -13 40 0 12 8 9 10 -12 10 -16 0 -28 -4 -28 -10z"/>
<path d="M1098 483 c6 -2 18 -2 25 0 6 3 1 5 -13 5 -14 0 -19 -2 -12 -5z"/>
<path d="M124 429 c-13 -22 13 -30 47 -14 19 8 26 13 17 11 -10 -3 -20 -1 -23
4 -8 13 -32 13 -41 -1z m31 -9 c-3 -5 -10 -10 -16 -10 -5 0 -9 5 -9 10 0 6 7
10 16 10 8 0 12 -4 9 -10z"/>
<path d="M1039 421 c11 -7 9 -10 -10 -14 -22 -4 -22 -4 4 -6 15 0 30 -8 33
-16 4 -8 11 -15 16 -15 6 0 4 8 -3 17 -12 15 -12 16 4 10 27 -10 20 1 -13 18
-31 16 -54 21 -31 6z"/>
<path d="M183 390 c-18 -11 -33 -22 -33 -25 0 -10 74 2 78 13 2 6 -6 8 -20 5
-23 -5 -23 -5 -3 10 28 23 16 21 -22 -3z"/>
<path d="M1008 379 c19 -20 14 -31 -10 -24 -16 5 -13 0 10 -14 38 -25 48 -26
55 -7 4 10 -7 22 -31 36 -20 12 -31 16 -24 9z m42 -39 c0 -5 -4 -10 -10 -10
-5 0 -10 5 -10 10 0 6 5 10 10 10 6 0 10 -4 10 -10z"/>
<path d="M183 338 c-21 -24 -2 -23 38 1 l31 19 -27 -1 c-14 -1 -34 -10 -42
-19z"/>
<path d="M225 314 l-30 -26 33 22 c17 12 32 23 32 26 0 7 -4 5 -35 -22z"/>
<path d="M970 336 c0 -2 14 -14 30 -26 17 -12 30 -19 30 -16 0 2 -13 14 -30
26 -16 12 -30 19 -30 16z"/>
<path d="M244 288 c-16 -18 -22 -27 -13 -20 20 15 33 3 16 -16 -10 -13 -9 -14
9 -4 11 6 27 19 35 28 12 15 12 16 -9 10 -24 -8 -29 3 -10 22 7 7 10 12 7 12
-3 0 -18 -14 -35 -32z"/>
<path d="M941 306 c-14 -17 11 -41 34 -33 8 4 17 2 20 -3 4 -6 -2 -10 -11 -10
-14 0 -15 -3 -6 -12 9 -9 15 -9 24 0 15 15 -3 36 -32 37 -11 0 -19 5 -17 10 1
6 6 9 10 7 5 -1 6 2 2 8 -8 13 -10 13 -24 -4z"/>
<path d="M310 270 c0 -5 -10 -18 -22 -30 -20 -18 -21 -22 -7 -36 14 -14 19
-11 44 23 24 32 25 35 5 18 l-23 -20 7 28 c3 15 4 27 1 27 -3 0 -5 -4 -5 -10z
m-5 -50 c-3 -5 -11 -10 -16 -10 -6 0 -7 5 -4 10 3 6 11 10 16 10 6 0 7 -4 4
-10z"/>
<path d="M923 242 c15 -16 24 -32 20 -37 -5 -5 0 -3 10 4 18 14 24 26 7 16 -5
-3 -17 6 -26 20 -9 14 -21 25 -27 25 -6 0 1 -13 16 -28z"/>
<path d="M860 239 c-13 -9 -12 -10 2 -5 22 7 35 -13 17 -26 -11 -8 -10 -9 3
-4 22 7 35 -13 17 -26 -12 -8 -12 -9 0 -6 23 7 23 21 -2 50 -17 22 -25 26 -37
17z"/>
<path d="M366 225 c4 -9 0 -15 -10 -15 -9 0 -13 -6 -10 -14 3 -9 -2 -16 -13
-18 -16 -3 -16 -4 -1 -10 12 -5 22 2 37 27 18 31 18 45 0 45 -5 0 -6 -7 -3
-15z"/>
<path d="M840 201 c17 -32 12 -36 -15 -11 -14 13 -25 18 -25 11 0 -14 28 -71
36 -71 2 0 0 9 -6 19 -16 30 -12 36 10 16 11 -10 23 -16 26 -13 6 6 -23 68
-32 68 -2 0 0 -9 6 -19z"/>
<path d="M420 192 c0 -6 -10 -12 -22 -14 -27 -4 -36 -33 -14 -41 11 -4 21 4
32 24 8 17 13 33 10 37 -3 3 -6 0 -6 -6z m-16 -37 c-4 -8 -10 -12 -15 -9 -11
6 -2 24 11 24 5 0 7 -7 4 -15z"/>
<path d="M1390 655 c0 -149 2 -175 15 -175 12 0 15 15 15 79 l0 79 66 7 c81 8
114 34 114 88 0 66 -50 94 -172 96 l-38 1 0 -175z m167 109 c15 -24 15 -29 2
-53 -11 -19 -27 -28 -61 -35 -69 -13 -78 -6 -78 59 l0 55 60 0 c53 0 61 -3 77
-26z"/>
<path d="M1670 656 c0 -150 2 -176 15 -176 12 0 15 15 15 79 l0 78 63 7 c87 9
112 29 112 91 0 65 -24 83 -127 91 l-78 7 0 -177z m162 117 c22 -20 23 -56 3
-77 -18 -17 -70 -29 -106 -24 -22 3 -24 9 -27 61 l-3 57 57 0 c39 0 63 -5 76
-17z"/>
<path d="M1960 656 c0 -138 3 -177 13 -174 8 3 13 31 15 80 l3 76 65 7 c71 7
99 25 110 70 8 31 -10 76 -35 92 -11 7 -53 15 -95 19 l-76 7 0 -177z m151 124
c23 -13 26 -71 5 -89 -8 -7 -40 -15 -70 -18 l-56 -6 0 62 0 61 51 0 c28 0 59
-5 70 -10z"/>
<path d="M2240 655 c0 -149 2 -175 15 -175 12 0 15 16 15 83 l1 82 78 -82 c42
-46 85 -83 94 -83 9 0 17 3 17 6 0 3 -38 47 -85 96 l-85 91 82 78 c61 57 78
78 63 78 -11 0 -51 -29 -90 -64 l-70 -65 -3 65 c-2 49 -7 65 -17 65 -13 0 -15
-29 -15 -175z"/>
<path d="M2655 818 c-3 -7 -4 -86 -3 -173 3 -134 5 -160 18 -160 12 0 16 16
18 76 l3 77 65 7 c71 7 99 25 110 70 8 31 -10 76 -35 92 -11 7 -53 15 -95 19
-61 5 -77 4 -81 -8z m156 -38 c23 -13 26 -71 5 -89 -8 -7 -40 -15 -70 -18
l-56 -6 0 62 0 61 51 0 c28 0 59 -5 70 -10z"/>
<path d="M2940 655 l0 -175 95 0 c77 0 95 3 95 15 0 11 -18 15 -77 17 l-78 3
-3 68 -3 67 81 0 c64 0 80 3 80 15 0 12 -16 15 -80 15 l-80 0 0 55 0 55 80 0
c73 0 80 2 80 20 0 19 -7 20 -95 20 l-95 0 0 -175z"/>
<path d="M3160 810 c0 -17 7 -20 40 -20 l40 0 0 -155 c0 -131 2 -155 15 -155
13 0 15 24 15 155 l0 155 40 0 c33 0 40 3 40 20 0 19 -7 20 -95 20 -88 0 -95
-1 -95 -20z"/>
<path d="M3400 656 c0 -150 2 -176 15 -176 12 0 15 16 15 80 0 60 3 80 13 80
8 0 42 -36 76 -80 34 -44 68 -80 76 -80 23 0 18 10 -39 85 -55 71 -57 85 -10
85 37 0 66 42 62 90 -4 60 -32 78 -130 86 l-78 7 0 -177z m162 117 c22 -20 23
-56 3 -77 -18 -17 -70 -29 -106 -24 -22 3 -24 9 -27 61 l-3 57 57 0 c39 0 63
-5 76 -17z"/>
<path d="M3743 659 c-46 -95 -81 -174 -78 -177 13 -13 39 14 61 63 l25 55 73
0 74 0 28 -57 c16 -32 37 -59 46 -61 20 -4 14 9 -93 237 l-54 113 -82 -173z
m111 35 c14 -31 26 -58 26 -60 0 -2 -25 -4 -55 -4 -30 0 -55 2 -55 5 0 6 53
115 56 115 2 0 14 -25 28 -56z"/>
</g>
</svg>
